<?xml version="1.0" encoding="UTF-8"?>
<svg id="Layer_2" data-name="Layer 2" xmlns="http://www.w3.org/2000/svg" viewBox="0 0 1931.26 208.78">
  <defs>
    <style>
      .cls-1 {
        fill: none;
      }

      .cls-1, .cls-2 {
        stroke-width: 0px;
      }

      .cls-2 {
        fill: #f5df4d;
      }
    </style>
  </defs>
  <g id="Opening_doors" data-name="Opening doors">
    <g>
      <g>
        <path class="cls-2" d="m198.64,146.9c-16.9,36.92-54.08,61.1-94.64,61.1C46.54,208,0,161.46,0,104S46.54,0,104,0c41.34,0,79.56,25.22,95.68,63.44l-43.42,18.46c-8.84-20.8-29.64-34.84-52.26-34.84-31.2,0-56.94,25.74-56.94,56.94s25.74,56.94,56.94,56.94c22.1,0,42.38-13.52,51.74-33.54l42.9,19.5Z"/>
        <path class="cls-2" d="m421.71,104.52c0,57.2-46.8,104.26-104,104.26s-104.26-46.8-104.26-104.26S260.52.52,317.72.52s104,46.8,104,104Zm-47.32,0c0-31.2-25.48-56.68-56.68-56.68s-56.94,25.48-56.94,56.68,25.74,56.94,56.94,56.94,56.68-25.74,56.68-56.94Z"/>
        <path class="cls-2" d="m623.73,7.28v194.48h-49.66l-81.12-118.56v118.56h-49.92V7.28h49.92l81.12,124.02V7.28h49.66Z"/>
        <path class="cls-2" d="m836.67,55.64h-73.06v146.12h-48.62V55.64h-73.06V7.02h194.74v48.62Z"/>
        <path class="cls-2" d="m970.13,175.5h-87.88l-10.92,26.26h-52.78L899.67,7.02h53.04l81.12,194.74h-52.52l-11.18-26.26Zm-20.02-48.1l-23.92-56.94-23.92,56.94h47.84Z"/>
        <path class="cls-2" d="m1227.46,146.9c-16.9,36.92-54.08,61.1-94.64,61.1-57.46,0-104-46.54-104-104S1075.36,0,1132.82,0c41.34,0,79.56,25.22,95.68,63.44l-43.42,18.46c-8.84-20.8-29.64-34.84-52.26-34.84-31.2,0-56.94,25.74-56.94,56.94s25.74,56.94,56.94,56.94c22.1,0,42.38-13.52,51.74-33.54l42.9,19.5Z"/>
        <path class="cls-2" d="m1433.64,55.64h-73.06v146.12h-48.62V55.64h-73.06V7.02h194.74v48.62Z"/>
      </g>
      <rect class="cls-1" y="0" width="1931.26" height="208.78"/>
    </g>
  </g>
</svg>