<?xml version="1.0" encoding="UTF-8"?>
<svg id="Layer_2" data-name="Layer 2" xmlns="http://www.w3.org/2000/svg" viewBox="0 0 1931.68 408.87">
  <defs>
    <style>
      .cls-1 {
        fill: none;
      }

      .cls-1, .cls-2 {
        stroke-width: 0px;
      }

      .cls-2 {
        fill: #f5df4d;
      }
    </style>
  </defs>
  <g id="Opening_doors" data-name="Opening doors">
    <g>
      <rect class="cls-1" x=".43" y=".14" width="1931.26" height="408.72"/>
      <g>
        <path class="cls-2" d="m74.63,158.02h78.8v33c-13,28.6-41.6,47-73,47C36.23,238.02.43,202.22.43,158.02s35.8-80,80-80c32,0,61.2,19.4,73.8,48.8l-33.4,14.2c-7-16.2-22.8-26.8-40.4-26.8-24,0-43.8,19.8-43.8,43.8s19.8,43.8,43.8,43.8c16.8,0,32.2-10,39.4-25h-45.2v-18.8Z"/>
        <path class="cls-2" d="m309.02,232.82h-45.6l-39.2-56.2h-16.4v56.2h-37.4V83.02h90.8c25.8,0,46.8,21.2,46.8,47,0,22.6-16.4,42.2-38.6,46l39.6,56.8Zm-38.4-102.8c0-5.2-4.2-9.4-9.4-9.4h-53.4v18.6h53.4c5,0,9.4-4.2,9.4-9.2Z"/>
        <path class="cls-2" d="m436.62,212.62h-67.6l-8.4,20.2h-40.6l62.4-149.8h40.8l62.4,149.8h-40.4l-8.6-20.2Zm-15.4-37l-18.4-43.8-18.4,43.8h36.8Z"/>
        <path class="cls-2" d="m648.82,157.82c0,41.4-33.4,75-74.8,75h-74.8V83.02h74.8c41.2,0,74.8,33.6,74.8,74.8Zm-37.4,0c0-20.6-16.8-37.4-37.4-37.4h-37.4v75h37.4c20.6,0,37.4-17,37.4-37.6Z"/>
        <path class="cls-2" d="m702.42,232.82h-37.4V83.02h37.4v149.8Z"/>
        <path class="cls-2" d="m862.62,83.22v149.6h-38.2l-62.4-91.2v91.2h-38.4V83.22h38.4l62.4,95.4v-95.4h38.2Z"/>
        <path class="cls-2" d="m953.22,158.02h78.8v33c-13,28.6-41.6,47-73,47-44.2,0-80-35.8-80-80s35.8-80,80-80c32,0,61.2,19.4,73.8,48.8l-33.4,14.2c-7-16.2-22.8-26.8-40.4-26.8-24,0-43.8,19.8-43.8,43.8s19.8,43.8,43.8,43.8c16.8,0,32.2-10,39.4-25h-45.2v-18.8Z"/>
        <path class="cls-2" d="m47,315.27h37.4c25.6,0,46.8,21.2,46.8,46.8s-21.2,46.8-46.8,46.8H9.2v-37.4h75.2c5.2,0,9.2-4.4,9.2-9.4s-4-9.4-9.2-9.4h-37.4c-25.8,0-47-21-47-46.8s21.2-46.8,47-46.8h75.2v37.4H47c-5.2,0-9.4,4.2-9.4,9.4s4.2,9.4,9.4,9.4Z"/>
        <path class="cls-2" d="m238.16,360.07v48.8h-37.6v-48.8l-68.4-101.2h45.2l42,62.4,41.8-62.4h45.2l-68.2,101.2Z"/>
        <path class="cls-2" d="m346.39,315.17h37.4c25.6,0,46.8,21.2,46.8,46.8s-21.2,46.8-46.8,46.8h-75.2v-37.4h75.2c5.2,0,9.2-4.4,9.2-9.4s-4-9.4-9.2-9.4h-37.4c-25.8,0-47-21-47-46.8s21.2-46.8,47-46.8h75.2v37.4h-75.2c-5.2,0-9.4,4.2-9.4,9.4s4.2,9.4,9.4,9.4Z"/>
        <path class="cls-2" d="m580.39,296.37h-56.2v112.4h-37.4v-112.4h-56.2v-37.4h149.8v37.4Z"/>
        <path class="cls-2" d="m627.89,296.47v18.8h72.6v37.4h-72.6v18.6h93.6v37.6h-131v-149.8h131v37.4h-93.6Z"/>
        <path class="cls-2" d="m901.69,259.07v149.8h-37.4v-83.6l-34.6,37.4h-22l-14.4-15.6h-.2l-19-20.8v82.6h-37.6v-149.8h26.4c18.4,20.2,37.2,40.2,55.8,60.4l55.8-60.4h27.2Z"/>
      </g>
      <g>
        <path class="cls-2" d="m55.44,40.68c-4.68,10.22-14.98,16.92-26.21,16.92C13.32,57.61.43,44.72.43,28.8S13.32,0,29.23,0c11.45,0,22.03,6.98,26.5,17.57l-12.02,5.11c-2.45-5.76-8.21-9.65-14.47-9.65-8.64,0-15.77,7.13-15.77,15.77s7.13,15.77,15.77,15.77c6.12,0,11.74-3.74,14.33-9.29l11.88,5.4Z"/>
        <path class="cls-2" d="m117.21,28.95c0,15.84-12.96,28.88-28.8,28.88s-28.88-12.96-28.88-28.88S72.57.14,88.41.14s28.8,12.96,28.8,28.8Zm-13.1,0c0-8.64-7.06-15.7-15.7-15.7s-15.77,7.06-15.77,15.7,7.13,15.77,15.77,15.77,15.7-7.13,15.7-15.77Z"/>
        <path class="cls-2" d="m170.28,22.18c0,11.09-9.14,20.23-20.23,20.23h-13.46v13.46h-13.47V2.02h26.93c11.09,0,20.23,9.07,20.23,20.16Zm-13.46,0c0-3.67-3.1-6.7-6.77-6.7h-13.46v13.46h13.46c3.67,0,6.77-3.1,6.77-6.77Z"/>
        <path class="cls-2" d="m224.71,55.88h-16.42l-14.11-20.23h-5.9v20.23h-13.47V1.95h32.69c9.29,0,16.85,7.63,16.85,16.92,0,8.14-5.9,15.19-13.9,16.56l14.26,20.45Zm-13.83-37.01c0-1.87-1.51-3.38-3.38-3.38h-19.23v6.7h19.23c1.8,0,3.38-1.51,3.38-3.31Z"/>
        <path class="cls-2" d="m270.64,48.61h-24.34l-3.02,7.27h-14.62L251.13,1.95h14.69l22.47,53.93h-14.55l-3.1-7.27Zm-5.54-13.32l-6.62-15.77-6.62,15.77h13.25Z"/>
        <path class="cls-2" d="m306.64,55.88h-13.47V1.95h13.47v53.93Z"/>
        <path class="cls-2" d="m333.21,22.18h13.47c9.22,0,16.85,7.63,16.85,16.85s-7.63,16.85-16.85,16.85h-27.07v-13.46h27.07c1.87,0,3.31-1.58,3.31-3.38s-1.44-3.38-3.31-3.38h-13.47c-9.29,0-16.92-7.56-16.92-16.85s7.63-16.85,16.92-16.85h27.07v13.46h-27.07c-1.87,0-3.38,1.51-3.38,3.38s1.51,3.38,3.38,3.38Z"/>
        <path class="cls-2" d="m383.86,15.41v6.77h33.7v13.47h-33.7v6.7h33.7v13.54h-47.16V1.95h47.16v13.46h-33.7Z"/>
        <path class="cls-2" d="m456.58,35.64h-13.47v-13.47h13.47v13.47Zm0,20.23h-13.47v-13.46h13.47v13.46Z"/>
      </g>
    </g>
  </g>
</svg>