<?xml version="1.0" encoding="UTF-8"?>
<svg id="Layer_2" data-name="Layer 2" xmlns="http://www.w3.org/2000/svg" viewBox="0 0 1931.26 283.33">
  <defs>
    <style>
      .cls-1 {
        fill: none;
      }

      .cls-2 {
        fill: #f5df4d;
      }
    </style>
  </defs>
  <g id="Opening_doors" data-name="Opening doors">
    <g>
      <g>
        <path class="cls-2" d="m227.24,155.27c0,53.56-43.94,97.24-97.5,97.24H32.5v-82.94H0v-24.44h32.5V57.77h97.24c53.82,0,97.5,43.68,97.5,97.5Zm-48.62,0c0-27.04-21.84-48.88-48.88-48.88h-48.62v38.74h55.64v24.44h-55.64v34.32h48.62c26.78,0,48.88-21.84,48.88-48.62Z"/>
        <path class="cls-2" d="m389.36,0c17.62,5.68,35.17,12.01,53.68,12.01,16.42,0,32.44-4.73,46.94-12.01h-100.62Zm-88.54,4.47c2.84-1.58,5.79-3.09,8.81-4.47h-11.34l2.53,4.47Zm149.78,140.66c-5.13-52.49-49.72-93.86-103.5-93.86-57.2,0-104.26,46.8-104.26,104s46.8,104.25,104.26,104.25c52.36,0,96-39.43,103.01-89.96.65-4.67.99-9.45.99-14.29,0-3.42-.17-6.8-.5-10.14Zm-103.5,67.07c-31.2,0-56.94-25.74-56.94-56.93s25.74-56.68,56.94-56.68,56.68,25.48,56.68,56.68-25.48,56.93-56.68,56.93Zm0-201.75l-115.44,26.26,2.6,11.96,112.84-25.74,112.58,25.74,2.86-11.96-115.44-26.26Z"/>
        <path class="cls-2" d="m669.23,155.27c0,53.56-43.94,97.24-97.5,97.24h-97.24v-82.94h-32.5v-24.44h32.5V57.77h97.24c53.82,0,97.5,43.68,97.5,97.5Zm-48.62,0c0-27.04-21.84-48.88-48.88-48.88h-48.62v38.74h55.64v24.44h-55.64v34.32h48.62c26.78,0,48.88-21.84,48.88-48.62Z"/>
        <path class="cls-2" d="m767.25,0v97.03h12.22V0h-12.22Zm91.52,23.45v34.32h-48.62v115.96c0,20.01-16.38,36.65-36.4,36.65s-36.66-16.38-36.66-36.65V57.77h-48.61v115.96c0,47.05,38.21,85.27,85.27,85.27s85.02-38.22,85.02-85.27v-89.44h24.18V23.45h-24.18Z"/>
        <path class="cls-2" d="m1075.87,197.65c-16.9,36.92-54.08,61.1-94.64,61.1-57.46,0-104-46.54-104-104s46.54-104,104-104c41.34,0,79.56,25.22,95.68,63.44l-43.42,18.46c-8.84-20.8-29.64-34.84-52.26-34.84-31.2,0-56.94,25.74-56.94,56.94s25.74,56.94,56.94,56.94c22.1,0,42.38-13.52,51.74-33.54l42.9,19.5Z"/>
        <path class="cls-2" d="m1194.17,51.53c-57.46,0-104,46.54-104,104s47.58,102.43,104.52,102.43,103.48-44.98,103.48-102.43-46.54-104-104-104Zm0,160.67c-31.2,0-56.68-25.47-56.68-56.67s25.48-56.94,56.68-56.94,56.94,25.74,56.94,56.94-25.74,56.67-56.94,56.67Zm-97.24,43.42v24.7l22.1,3.01h172.64v-.93l-194.74-26.78Z"/>
        <path class="cls-2" d="m1487.96,57.51v115.96c0,47.06-37.96,85.28-85.02,85.28s-85.28-38.22-85.28-85.28V57.51h48.62v115.96c0,20.28,16.38,36.66,36.66,36.66s36.4-16.64,36.4-36.66V57.51h48.62Z"/>
        <path class="cls-2" d="m1726.64,40.35l-2.86,11.96-112.58-25.74-112.84,25.74-2.6-11.96,115.44-26.26,115.44,26.26Zm-71.5,185.9h-87.88l-10.92,26.26h-52.78l81.12-194.74h53.04l81.12,194.74h-52.52l-11.18-26.26Zm-20.02-48.1l-23.92-56.94-23.92,56.94h47.84Z"/>
        <path class="cls-2" d="m1917.48,58.03v194.48h-49.66l-81.12-118.56v118.56h-49.92V58.03h49.92l81.12,124.02V58.03h49.66Z"/>
      </g>
      <rect class="cls-1" width="1931.26" height="283.33"/>
    </g>
  </g>
</svg>