<?xml version="1.0" encoding="utf-8"?>
<!-- Generator: Adobe Illustrator 27.7.0, SVG Export Plug-In . SVG Version: 6.00 Build 0)  -->
<svg version="1.1" id="Layer_2_00000020383538826997005160000011795208624942707121_"
	 xmlns="http://www.w3.org/2000/svg" xmlns:xlink="http://www.w3.org/1999/xlink" x="0px" y="0px" viewBox="0 0 1919.6 283.3"
	 style="enable-background:new 0 0 1919.6 283.3;" xml:space="preserve">
<style type="text/css">
	.st0{opacity:0.2;}
	.st1{fill:#F5DF4D;}
</style>
<g id="Opening_doors" class="st0">
	<g>
		<path class="st1" d="M129.7,155.2H32.5v87.4H0V267h32.5v16.3h48.6V267h55.6v-24.4H81.1v-38.7h48.6c27,0,48.9,21.8,48.9,48.9
			c0,11.6-4.1,22.3-11,30.6h54.6c3.2-9.6,5-19.9,5-30.6C227.2,198.9,183.6,155.2,129.7,155.2L129.7,155.2z"/>
		<path class="st1" d="M489.6,82.9c-13.5,7.5-29.1,13-44.7,13c-34,0-64.5-20.8-98.5-20.8c-17.9,0-35.9,6.2-51.2,14.8l6.8,12
			c13.5-7.5,29.4-13.3,45-13.3c33.3,0,63.7,20.8,97.2,20.8c18.5,0,36.4-6,52.2-14.8C496.3,94.6,489.6,82.9,489.6,82.9z M451.6,242.6
			c-5.1-52.5-49.7-93.9-103.5-93.9c-57.2,0-104.3,46.8-104.3,104c0,10.6,1.6,20.9,4.6,30.6h51.8c-5.7-8.9-9-19.4-9-30.6
			c0-31.2,25.7-56.7,56.9-56.7s56.7,25.5,56.7,56.7c0,11.2-3.3,21.7-9,30.6h51.7c1.6-5.3,2.9-10.7,3.6-16.3c0.6-4.7,1-9.5,1-14.3
			C452.1,249.3,452,245.9,451.6,242.6z M348.1,107.9l-115.4,26.3l2.6,12l112.8-25.7l112.6,25.7l2.9-12
			C463.6,134.2,348.1,107.9,348.1,107.9z"/>
		<path class="st1" d="M572.8,155.2h-97.2v87.4H443V267h32.5v16.3h48.6V267h55.6v-24.4h-55.6v-38.7h48.6c27,0,48.9,21.8,48.9,48.9
			c0,11.6-4.1,22.3-11,30.6h54.6c3.2-9.6,5-19.9,5-30.6C670.3,198.9,626.6,155.2,572.8,155.2z"/>
		<path class="st1" d="M769.3,0v194.5h12.2V0H769.3z M860.9,120.9v34.3h-48.6v115.9c0,4.2-0.7,8.3-2.1,12.1H860
			c0.6-4,0.9-8,0.9-12.1v-89.4H885v-60.8L860.9,120.9L860.9,120.9z M739.2,155.2h-48.6v115.9c0,4.1,0.3,8.2,0.9,12.1h49.8
			c-1.3-3.8-2-7.9-2-12.1V155.2L739.2,155.2z"/>
		<path class="st1" d="M1079,211.6c-16.1-38.2-54.3-63.4-95.7-63.4c-57.5,0-104,46.5-104,104c0,10.9,1.7,21.3,4.7,31.1h51.7
			c-5.9-9-9.4-19.7-9.4-31.1c0-31.2,25.7-56.9,56.9-56.9c22.6,0,43.4,14,52.3,34.8L1079,211.6z M1030.7,283.3h21.4l-17-7.7
			C1033.8,278.3,1032.3,280.9,1030.7,283.3z"/>
		<path class="st1" d="M1196.2,149c-57.5,0-104,46.5-104,104c0,10.6,1.6,20.8,4.6,30.4h51.6c-5.6-8.8-8.9-19.2-8.9-30.4
			c0-31.2,25.5-56.9,56.7-56.9s56.9,25.7,56.9,56.9c0,11.1-3.3,21.6-8.9,30.4h51.5c2.9-9.5,4.5-19.7,4.5-30.4
			C1300.2,195.5,1253.7,149,1196.2,149L1196.2,149z"/>
		<path class="st1" d="M1441.4,155v115.9c0,4.3-0.8,8.5-2.2,12.4h49.9c0.6-4,0.9-8.2,0.9-12.4V155H1441.4z M1368.4,155h-48.6v115.9
			c0,4.2,0.3,8.4,0.9,12.4h49.9c-1.4-3.9-2.2-8-2.2-12.4V155z"/>
		<path class="st1" d="M1639.8,155.2h-53l-53.4,128.1h159.8L1639.8,155.2z M1589.4,275.6l23.9-56.9l23.9,56.9H1589.4L1589.4,275.6z
			 M1613.3,112.6l-115.4,26.3l2.6,12l112.8-25.7l112.6,25.7l2.9-12L1613.3,112.6L1613.3,112.6z"/>
		<path class="st1" d="M1869.9,155.5v124l-81.1-124h-49.9v127.8h49.9v-51.9l35.5,51.9h95.2V155.5L1869.9,155.5L1869.9,155.5z"/>
	</g>
</g>
</svg>
