<?xml version="1.0" encoding="UTF-8"?>
<svg id="Layer_2" data-name="Layer 2" xmlns="http://www.w3.org/2000/svg" viewBox="0 0 1931.26 283.33">
  <defs>
    <style>
      .cls-1 {
        fill: none;
      }

      .cls-1, .cls-2 {
        stroke-width: 0px;
      }

      .cls-2 {
        fill: #f5df4d;
      }
    </style>
  </defs>
  <g id="Opening_doors" data-name="Opening doors">
    <g>
      <g>
        <path class="cls-2" d="m194.74,130.45h-73.06v146.12h-48.62v-146.12H0v-48.62h194.74v48.62Z"/>
        <path class="cls-2" d="m392.85,276.57h-59.28l-50.96-73.06h-21.32v73.06h-48.62V81.84h118.04c33.54,0,60.84,27.56,60.84,61.1,0,29.38-21.32,54.86-50.18,59.8l51.48,73.84Zm-49.92-133.64c0-6.76-5.46-12.22-12.22-12.22h-69.42v24.18h69.42c6.5,0,12.22-5.46,12.22-11.96Z"/>
        <path class="cls-2" d="m558.73,250.31h-87.88l-10.92,26.26h-52.78l81.12-194.74h53.04l81.12,194.74h-52.52l-11.18-26.26Zm-20.02-48.1l-23.92-56.94-23.92,56.94h47.84Z"/>
        <path class="cls-2" d="m821.07,82.1v194.47h-49.66l-81.12-118.56v118.56h-49.92V82.1h49.92l81.12,124.02v-124.02h49.66Z"/>
        <path class="cls-2" d="m938.85,179.33h102.44v42.9c-16.9,37.18-54.08,61.1-94.9,61.1-57.46,0-104-46.54-104-104s46.54-104,104-104c41.6,0,79.56,25.22,95.94,63.44l-43.42,18.46c-9.1-21.06-29.64-34.84-52.52-34.84-31.2,0-56.94,25.74-56.94,56.94s25.74,56.94,56.94,56.94c21.84,0,41.86-13,51.22-32.5h-58.76v-24.44Z"/>
        <path class="cls-2" d="m1256.3,221.71c-16.9,36.92-54.08,61.1-94.64,61.1-57.46,0-104-46.54-104-104s46.54-104,104-104c41.34,0,79.56,25.22,95.68,63.44l-43.42,18.46c-8.84-20.8-29.64-34.84-52.26-34.84-31.2,0-56.94,25.74-56.94,56.94s25.74,56.94,56.94,56.94c22.1,0,42.38-13.52,51.74-33.54l42.9,19.5Z"/>
        <path class="cls-2" d="m1456.76,82.1v194.47h-48.36v-58.5h-83.2v58.5h-48.62V82.1h48.62v87.36h83.2v-87.36h48.36Z"/>
        <path class="cls-2" d="m1603.14,81.58v115.96c0,20.01-16.38,36.65-36.4,36.65s-36.66-16.38-36.66-36.65v-115.96h-48.61v115.96c0,47.05,38.21,85.27,85.27,85.27s85.02-38.22,85.02-85.27v-115.96h-48.62ZM1690.22,0h-13.61c-5.15,26.12-18.87,54.36-18.87,80.54,0,17.94,5.98,35.88,14.82,51.22l11.7-6.5c-7.54-13.52-13-29.38-13-44.98,0-26.96,13.87-53.58,18.96-80.28Z"/>
      </g>
      <rect class="cls-1" y="0" width="1931.26" height="283.33"/>
    </g>
  </g>
</svg>