<?xml version="1.0" encoding="UTF-8"?>
<svg id="Layer_2" data-name="Layer 2" xmlns="http://www.w3.org/2000/svg" viewBox="0 0 1931.26 208.25">
  <defs>
    <style>
      .cls-1 {
        fill: none;
      }

      .cls-1, .cls-2 {
        stroke-width: 0px;
      }

      .cls-2 {
        fill: #f5df4d;
      }
    </style>
  </defs>
  <g id="Opening_doors" data-name="Opening doors">
    <g>
      <g>
        <path class="cls-2" d="m180.18,6.76v194.48h-48.36v-58.5H48.62v58.5H0V6.76h48.62v87.36h83.2V6.76h48.36Z"/>
        <path class="cls-2" d="m409.75,104c0,57.2-46.8,104.26-104,104.26s-104.26-46.8-104.26-104.26S248.56,0,305.75,0s104,46.8,104,104Zm-47.32,0c0-31.2-25.48-56.68-56.68-56.68s-56.94,25.48-56.94,56.68,25.74,56.94,56.94,56.94,56.68-25.74,56.68-56.94Z"/>
        <path class="cls-2" d="m645.83,6.5v194.74h-48.62v-108.68l-44.98,48.62h-28.6l-18.72-20.28h-.26l-24.7-27.04v107.38h-48.88V6.5h34.32c23.92,26.26,48.36,52.26,72.54,78.52L610.47,6.5h35.36Z"/>
        <path class="cls-2" d="m721.49,55.12v24.44h94.38v48.62h-94.38v24.18h121.68v48.88h-170.3V6.5h170.3v48.62h-121.68Z"/>
      </g>
      <rect class="cls-1" x="0" width="1931.26" height="208.25"/>
    </g>
  </g>
</svg>