<?xml version="1.0" encoding="UTF-8"?>
<svg id="Layer_2" data-name="Layer 2" xmlns="http://www.w3.org/2000/svg" viewBox="0 0 1931.26 274.47">
  <defs>
    <style>
      .cls-1 {
        fill: none;
      }

      .cls-1, .cls-2 {
        stroke-width: 0px;
      }

      .cls-2 {
        fill: #f5df4d;
      }
    </style>
  </defs>
  <g id="Opening_doors" data-name="Opening doors">
    <g>
      <rect class="cls-1" width="1931.26" height="274.47"/>
      <g>
        <path class="cls-2" d="m37.4,232.67H0V82.87h37.4v149.8Z"/>
        <path class="cls-2" d="m197.6,83.07v149.6h-38.2l-62.4-91.2v91.2h-38.4V83.07h38.4l62.4,95.4v-95.4h38.2Z"/>
        <path class="cls-2" d="m213.79,158.07c0-44.2,35.8-80,80-80s80,35.8,80,80-35.6,78.8-79.6,78.8-80.4-34.4-80.4-78.8Zm5.2,77l149.8,20.6v18.8l-149.8-20.4v-19Zm31.2-77c0,24,19.6,43.6,43.6,43.6s43.8-19.6,43.8-43.6-19.8-43.8-43.8-43.8-43.6,19.8-43.6,43.8Z"/>
        <path class="cls-2" d="m519.79,82.67v89.2c0,36.2-29.2,65.6-65.4,65.6s-65.6-29.4-65.6-65.6v-89.2h37.4v89.2c0,15.6,12.6,28.2,28.2,28.2s28-12.8,28-28.2v-89.2h37.4Z"/>
        <path class="cls-2" d="m575.99,232.67h-37.4V82.87h37.4v149.8Z"/>
        <path class="cls-2" d="m735.79,232.67h-45.6l-39.2-56.2h-16.4v56.2h-37.4V82.87h90.8c25.8,0,46.8,21.2,46.8,47,0,22.6-16.4,42.2-38.6,46l39.6,56.8Zm-38.4-102.8c0-5.2-4.2-9.4-9.4-9.4h-53.4v18.6h53.4c5,0,9.4-4.2,9.4-9.2Z"/>
        <path class="cls-2" d="m851.79,183.87v48.8h-37.6v-48.8l-68.4-101.2h45.2l42,62.4,41.8-62.4h45.2l-68.2,101.2Z"/>
      </g>
      <g>
        <path class="cls-2" d="m49.9,55.73h-16.42l-14.11-20.23h-5.9v20.23H0V1.8h32.69c9.29,0,16.85,7.63,16.85,16.92,0,8.14-5.9,15.19-13.9,16.56l14.26,20.45Zm-13.83-37.01c0-1.87-1.51-3.38-3.38-3.38H13.47v6.7h19.23c1.8,0,3.38-1.51,3.38-3.31Z"/>
        <path class="cls-2" d="m69.77,15.26v6.77h26.14v13.47h-26.14v6.7h33.7v13.54h-47.16V1.8h47.16v13.46h-33.7Z"/>
        <path class="cls-2" d="m122.62,55.73h-13.47V1.8h13.47v53.93Z"/>
        <path class="cls-2" d="m189.72,1.8v53.93h-13.47v-30.1l-12.46,13.46h-7.92l-5.18-5.62h-.07l-6.84-7.49v29.74h-13.54V1.8h9.5c6.62,7.27,13.39,14.47,20.09,21.75L179.93,1.8h9.79Z"/>
        <path class="cls-2" d="m236.74,48.46h-24.34l-3.02,7.27h-14.62L217.22,1.8h14.69l22.47,53.93h-14.55l-3.1-7.27Zm-5.54-13.32l-6.62-15.77-6.62,15.77h13.25Z"/>
        <path class="cls-2" d="m284.4,28.8h28.37v11.88c-4.68,10.3-14.98,16.92-26.28,16.92-15.91,0-28.8-12.89-28.8-28.8S270.58,0,286.49,0c11.52,0,22.03,6.98,26.57,17.57l-12.03,5.11c-2.52-5.83-8.21-9.65-14.54-9.65-8.64,0-15.77,7.13-15.77,15.77s7.13,15.77,15.77,15.77c6.05,0,11.59-3.6,14.19-9h-16.27v-6.77Z"/>
        <path class="cls-2" d="m332.28,55.73h-13.47V1.8h13.47v53.93Z"/>
        <path class="cls-2" d="m389.95,1.87v53.86h-13.75l-22.47-32.83v32.83h-13.83V1.87h13.83l22.47,34.35V1.87h13.75Z"/>
        <path class="cls-2" d="m410.9,15.26v6.77h26.14v13.47h-26.14v6.7h33.7v13.54h-47.16V1.8h47.16v13.46h-33.7Z"/>
        <path class="cls-2" d="m504.15,28.73c0,14.91-12.03,27-26.93,27h-26.93V1.8h26.93c14.83,0,26.93,12.1,26.93,26.93Zm-13.47,0c0-7.42-6.05-13.47-13.46-13.47h-13.46v27h13.46c7.42,0,13.46-6.12,13.46-13.54Z"/>
        <path class="cls-2" d="m597.1,28.8c0,15.84-12.96,28.88-28.8,28.88s-28.88-12.96-28.88-28.88,13.03-28.8,28.88-28.8,28.8,12.96,28.8,28.8Zm-13.1,0c0-8.64-7.06-15.7-15.7-15.7s-15.77,7.06-15.77,15.7,7.13,15.77,15.77,15.77,15.7-7.13,15.7-15.77Z"/>
        <path class="cls-2" d="m653.04,1.87v53.86h-13.75l-22.47-32.83v32.83h-13.83V1.87h13.83l22.47,34.35V1.87h13.75Z"/>
        <path class="cls-2" d="m673.99,15.26v6.77h26.14v13.47h-26.14v6.7h33.7v13.54h-47.16V1.8h47.16v13.46h-33.7Z"/>
        <path class="cls-2" d="m735.69,31.18h-27v-6.7h27v6.7Z"/>
        <path class="cls-2" d="m756.81,22.03h13.47c9.22,0,16.85,7.63,16.85,16.85s-7.63,16.85-16.85,16.85h-27.07v-13.46h27.07c1.87,0,3.31-1.58,3.31-3.38s-1.44-3.38-3.31-3.38h-13.47c-9.29,0-16.92-7.56-16.92-16.85s7.63-16.85,16.92-16.85h27.07v13.46h-27.07c-1.87,0-3.38,1.51-3.38,3.38s1.51,3.38,3.38,3.38Z"/>
        <path class="cls-2" d="m842.06,15.26h-20.23v40.47h-13.46V15.26h-20.23V1.8h53.93v13.46Z"/>
        <path class="cls-2" d="m898.73,28.8c0,15.84-12.96,28.88-28.8,28.88s-28.88-12.96-28.88-28.88,13.03-28.8,28.88-28.8,28.8,12.96,28.8,28.8Zm-13.1,0c0-8.64-7.06-15.7-15.7-15.7s-15.77,7.06-15.77,15.7,7.13,15.77,15.77,15.77,15.7-7.13,15.7-15.77Z"/>
        <path class="cls-2" d="m950.44,22.03c0,11.09-9.14,20.23-20.23,20.23h-13.46v13.46h-13.47V1.87h26.93c11.09,0,20.23,9.07,20.23,20.16Zm-13.46,0c0-3.67-3.1-6.7-6.77-6.7h-13.46v13.46h13.46c3.67,0,6.77-3.1,6.77-6.77Z"/>
        <path class="cls-2" d="m979.1,35.5h-13.47v-13.47h13.47v13.47Zm0,20.23h-13.47v-13.46h13.47v13.46Z"/>
      </g>
    </g>
  </g>
</svg>