<?xml version="1.0" encoding="UTF-8"?>
<svg id="Layer_2" data-name="Layer 2" xmlns="http://www.w3.org/2000/svg" viewBox="0 0 1931.26 419.32">
  <defs>
    <style>
      .cls-1 {
        fill: none;
      }

      .cls-1, .cls-2 {
        stroke-width: 0px;
      }

      .cls-2 {
        fill: #f5df4d;
      }
    </style>
  </defs>
  <g id="Opening_doors" data-name="Opening doors">
    <g>
      <rect class="cls-1" x="0" y="0" width="1931.26" height="418.72"/>
      <g>
        <path class="cls-2" d="m47,139.07h37.4c25.6,0,46.8,21.2,46.8,46.8s-21.2,46.8-46.8,46.8H9.2v-37.4h75.2c5.2,0,9.2-4.4,9.2-9.4s-4-9.4-9.2-9.4h-37.4C21.2,176.47,0,155.47,0,129.67s21.2-46.8,47-46.8h75.2v37.4H47c-5.2,0-9.4,4.2-9.4,9.4s4.2,9.4,9.4,9.4Z"/>
        <path class="cls-2" d="m282.19,120.27h-56.2v112.4h-37.4v-112.4h-56.2v-37.4h149.8v37.4Z"/>
        <path class="cls-2" d="m443.65,157.87c0,44-36,80.2-80,80.2s-80.2-36-80.2-80.2,36.2-80,80.2-80,80,36,80,80Zm-36.4,0c0-24-19.6-43.6-43.6-43.6s-43.8,19.6-43.8,43.6,19.8,43.8,43.8,43.8,43.6-19.8,43.6-43.8Z"/>
        <path class="cls-2" d="m608.32,190.47c-13,28.4-41.6,47-72.8,47-44.2,0-80-35.8-80-80s35.8-80,80-80c31.8,0,61.2,19.4,73.6,48.8l-33.4,14.2c-6.8-16-22.8-26.8-40.2-26.8-24,0-43.8,19.8-43.8,43.8s19.8,43.8,43.8,43.8c17,0,32.6-10.4,39.8-25.8l33,15Z"/>
        <path class="cls-2" d="m758.67,232.67h-41.2l-45-64.6-13.6,15v49.6h-37.4V83.08h37.4v50.4l49.4-51,43,.6-54.8,61.2,62.2,88.4Z"/>
        <path class="cls-2" d="m803.99,139.27h37.4c25.6,0,46.8,21.2,46.8,46.8s-21.2,46.8-46.8,46.8h-75.2v-37.4h75.2c5.2,0,9.2-4.4,9.2-9.4s-4-9.4-9.2-9.4h-37.4c-25.8,0-47-21-47-46.8s21.2-46.8,47-46.8h75.2v37.4h-75.2c-5.2,0-9.4,4.2-9.4,9.4s4.2,9.4,9.4,9.4Z"/>
        <path class="cls-2" d="m131,320.32c0,30.8-25.4,56.2-56.2,56.2h-37.4v37.4H0v-149.6h74.8c30.8,0,56.2,25.2,56.2,56Zm-37.4,0c0-10.2-8.6-18.6-18.8-18.6h-37.4v37.4h37.4c10.2,0,18.8-8.6,18.8-18.8Z"/>
        <path class="cls-2" d="m278.4,413.92h-45.6l-39.2-56.2h-16.4v56.2h-37.4v-149.8h90.8c25.8,0,46.8,21.2,46.8,47,0,22.6-16.4,42.2-38.6,46l39.6,56.8Zm-38.4-102.8c0-5.2-4.2-9.4-9.4-9.4h-53.4v18.6h53.4c5,0,9.4-4.2,9.4-9.2Z"/>
        <path class="cls-2" d="m328.25,301.52v18.8h72.6v37.4h-72.6v18.6h93.6v37.6h-131v-149.8h131v37.4h-93.6Z"/>
        <path class="cls-2" d="m587.62,338.92c0,41.4-33.4,75-74.8,75h-74.8v-149.8h74.8c41.2,0,74.8,33.6,74.8,74.8Zm-37.4,0c0-20.6-16.8-37.4-37.4-37.4h-37.4v75h37.4c20.6,0,37.4-17,37.4-37.6Z"/>
        <path class="cls-2" d="m635.19,413.92h-37.4v-149.8h37.4v149.8Z"/>
        <path class="cls-2" d="m799.98,371.72c-13,28.4-41.6,47-72.8,47-44.2,0-80-35.8-80-80s35.8-80,80-80c31.8,0,61.2,19.4,73.6,48.8l-33.4,14.2c-6.8-16-22.8-26.8-40.2-26.8-24,0-43.8,19.8-43.8,43.8s19.8,43.8,43.8,43.8c17,0,32.6-10.4,39.8-25.8l33,15Z"/>
        <path class="cls-2" d="m949.87,301.52h-56.2v112.4h-37.4v-112.4h-56.2v-37.4h149.8v37.4Z"/>
        <path class="cls-2" d="m997.78,413.92h-37.4v-149.8h37.4v149.8Z"/>
        <path class="cls-2" d="m1169.21,339.12c0,44-36,80.2-80,80.2s-80.2-36-80.2-80.2,36.2-80,80.2-80,80,36,80,80Zm-36.4,0c0-24-19.6-43.6-43.6-43.6s-43.8,19.6-43.8,43.6,19.8,43.8,43.8,43.8,43.6-19.8,43.6-43.8Z"/>
        <path class="cls-2" d="m1318.04,264.32v149.6h-38.2l-62.4-91.2v91.2h-38.4v-149.6h38.4l62.4,95.4v-95.4h38.2Z"/>
      </g>
      <g>
        <path class="cls-2" d="m53.86,28.73c0,14.91-12.03,27-26.93,27H0V1.8h26.93c14.83,0,26.93,12.1,26.93,26.93Zm-13.47,0c0-7.42-6.05-13.47-13.46-13.47h-13.46v27h13.46c7.42,0,13.46-6.12,13.46-13.54Z"/>
        <path class="cls-2" d="m73.15,15.26v6.77h26.14v13.47h-26.14v6.7h33.7v13.54h-47.16V1.8h47.16v13.46h-33.7Z"/>
        <path class="cls-2" d="m126,15.26v6.77h26.14v13.47h-26.14v6.7h33.7v13.54h-47.16V1.8h47.16v13.46h-33.7Z"/>
        <path class="cls-2" d="m212.62,22.03c0,11.09-9.14,20.23-20.23,20.23h-13.46v13.46h-13.47V1.87h26.93c11.09,0,20.23,9.07,20.23,20.16Zm-13.46,0c0-3.67-3.1-6.7-6.77-6.7h-13.46v13.46h13.46c3.67,0,6.77-3.1,6.77-6.77Z"/>
        <path class="cls-2" d="m293.47,42.27v13.46h-45.36V1.8h13.54v40.47h31.83Z"/>
        <path class="cls-2" d="m310.82,15.26v6.77h26.14v13.47h-26.14v6.7h33.7v13.54h-47.16V1.8h47.16v13.46h-33.7Z"/>
        <path class="cls-2" d="m389.74,48.46h-24.34l-3.02,7.27h-14.62L370.22,1.8h14.69l22.47,53.93h-14.55l-3.1-7.27Zm-5.54-13.32l-6.62-15.77-6.62,15.77h13.25Z"/>
        <path class="cls-2" d="m462.24,55.73h-16.42l-14.11-20.23h-5.9v20.23h-13.47V1.8h32.69c9.29,0,16.85,7.63,16.85,16.92,0,8.14-5.9,15.19-13.9,16.56l14.26,20.45Zm-13.83-37.01c0-1.87-1.51-3.38-3.38-3.38h-19.23v6.7h19.23c1.8,0,3.38-1.51,3.38-3.31Z"/>
        <path class="cls-2" d="m518.76,1.87v53.86h-13.75l-22.47-32.83v32.83h-13.83V1.87h13.83l22.47,34.35V1.87h13.75Z"/>
        <path class="cls-2" d="m539.71,55.73h-13.47V1.8h13.47v53.93Z"/>
        <path class="cls-2" d="m597.38,1.87v53.86h-13.75l-22.47-32.83v32.83h-13.83V1.87h13.83l22.47,34.35V1.87h13.75Z"/>
        <path class="cls-2" d="m630,28.8h28.37v11.88c-4.68,10.3-14.98,16.92-26.28,16.92-15.91,0-28.8-12.89-28.8-28.8s12.89-28.8,28.8-28.8c11.52,0,22.03,6.98,26.57,17.57l-12.03,5.11c-2.52-5.83-8.21-9.65-14.54-9.65-8.64,0-15.77,7.13-15.77,15.77s7.13,15.77,15.77,15.77c6.05,0,11.59-3.6,14.19-9h-16.27v-6.77Z"/>
        <path class="cls-2" d="m697.46,35.5h-13.47v-13.47h13.47v13.47Zm0,20.23h-13.47v-13.46h13.47v13.46Z"/>
      </g>
    </g>
  </g>
</svg>