<?xml version="1.0" encoding="UTF-8"?>
<svg id="Layer_2" data-name="Layer 2" xmlns="http://www.w3.org/2000/svg" viewBox="0 0 1931.26 240.47">
  <defs>
    <style>
      .cls-1 {
        fill: none;
      }

      .cls-1, .cls-2 {
        stroke-width: 0px;
      }

      .cls-2 {
        fill: #f5df4d;
      }
    </style>
  </defs>
  <g id="Opening_doors" data-name="Opening doors">
    <g>
      <rect class="cls-1" x="0" y="0" width="1931.26" height="240.47"/>
      <g>
        <path class="cls-2" d="m137.6,184.07c0,25.8-21,46.8-46.8,46.8H0V81.07h67.4c25.6,0,46.8,21.2,46.8,46.8,0,4.8-.8,9.8-2.2,14.4,15.6,8,25.6,24.4,25.6,41.8Zm-100.2-46.8h30c5.2,0,9.4-4.2,9.4-9.4s-4.2-9.4-9.4-9.4h-30v18.8Zm62.8,46.8c0-5.2-4.2-9.4-9.4-9.4h-53.4v18.8h53.4c5.2,0,9.4-4.2,9.4-9.4Z"/>
        <path class="cls-2" d="m280.4,80.87v89.2c0,36.2-29.2,65.6-65.4,65.6s-65.6-29.4-65.6-65.6v-89.2h37.4v89.2c0,15.6,12.6,28.2,28.2,28.2s28-12.8,28-28.2v-89.2h37.4Z"/>
        <path class="cls-2" d="m345,137.27h37.4c25.6,0,46.8,21.2,46.8,46.8s-21.2,46.8-46.8,46.8h-75.2v-37.4h75.2c5.2,0,9.2-4.4,9.2-9.4s-4-9.4-9.2-9.4h-37.4c-25.8,0-47-21-47-46.8s21.2-46.8,47-46.8h75.2v37.4h-75.2c-5.2,0-9.4,4.2-9.4,9.4s4.2,9.4,9.4,9.4Z"/>
        <path class="cls-2" d="m484.8,230.87h-37.4V81.07h37.4v149.8Z"/>
        <path class="cls-2" d="m647,81.27v149.6h-38.2l-62.4-91.2v91.2h-38.4V81.27h38.4l62.4,95.4v-95.4h38.2Z"/>
        <path class="cls-2" d="m709.19,118.47v18.8h93.6v37.4h-93.6v18.6h93.6v37.6h-131V81.07h131v37.4h-93.6Z"/>
        <path class="cls-2" d="m871.19,137.27h37.4c25.6,0,46.8,21.2,46.8,46.8s-21.2,46.8-46.8,46.8h-75.2v-37.4h75.2c5.2,0,9.2-4.4,9.2-9.4s-4-9.4-9.2-9.4h-37.4c-25.8,0-47-21-47-46.8s21.2-46.8,47-46.8h75.2v37.4h-75.2c-5.2,0-9.4,4.2-9.4,9.4s4.2,9.4,9.4,9.4Z"/>
        <path class="cls-2" d="m1014.39,137.27h37.4c25.6,0,46.8,21.2,46.8,46.8s-21.2,46.8-46.8,46.8h-75.2v-37.4h75.2c5.2,0,9.2-4.4,9.2-9.4s-4-9.4-9.2-9.4h-37.4c-25.8,0-47-21-47-46.8s21.2-46.8,47-46.8h75.2v37.4h-75.2c-5.2,0-9.4,4.2-9.4,9.4s4.2,9.4,9.4,9.4Z"/>
        <path class="cls-2" d="m1387.59,81.07l-75.6,159.4-34.4-74.6-34.2,74.6-75.6-159.4h41.6l34,74.6,13.4-32.4-20.6-42.2h41.6l34.2,74.6,34-74.6h41.6Z"/>
        <path class="cls-2" d="m1438.99,118.47v18.8h72.6v37.4h-72.6v18.6h93.6v37.6h-131V81.07h131v37.4h-93.6Z"/>
        <path class="cls-2" d="m1685.99,184.07c0,25.8-21,46.8-46.8,46.8h-90.8V81.07h67.4c25.6,0,46.8,21.2,46.8,46.8,0,4.8-.8,9.8-2.2,14.4,15.6,8,25.6,24.4,25.6,41.8Zm-100.2-46.8h30c5.2,0,9.4-4.2,9.4-9.4s-4.2-9.4-9.4-9.4h-30v18.8Zm62.8,46.8c0-5.2-4.2-9.4-9.4-9.4h-53.4v18.8h53.4c5.2,0,9.4-4.2,9.4-9.4Z"/>
      </g>
      <g>
        <path class="cls-2" d="m53.93,13.46h-20.23v40.47h-13.46V13.46H0V0h53.93v13.46Z"/>
        <path class="cls-2" d="m108.72.07v53.86h-13.39v-16.2h-23.04v16.2h-13.47V.07h13.47v24.19h23.04V.07h13.39Z"/>
        <path class="cls-2" d="m129.6,13.46v6.77h33.7v13.47h-33.7v6.7h33.7v13.54h-47.16V0h47.16v13.46h-33.7Z"/>
        <path class="cls-2" d="m250.35.07v53.86h-13.75l-22.47-32.83v32.83h-13.83V.07h13.83l22.47,34.35V.07h13.75Z"/>
        <path class="cls-2" d="m271.29,13.46v6.77h33.7v13.47h-33.7v6.7h33.7v13.54h-47.16V0h47.16v13.46h-33.7Z"/>
        <path class="cls-2" d="m346.39,27.22l19.15,26.71h-16.63l-10.87-15.12-10.87,15.12h-16.56l19.15-26.71L310.1,0h16.63l11.31,15.7,11.3-15.7h16.63l-19.59,27.22Z"/>
        <path class="cls-2" d="m423.94,13.46h-20.23v40.47h-13.46V13.46h-20.23V0h53.93v13.46Z"/>
        <path class="cls-2" d="m505.22,40.47v13.46h-45.36V0h13.54v40.47h31.83Z"/>
        <path class="cls-2" d="m548.64,46.66h-24.34l-3.02,7.27h-14.62L529.12,0h14.69l22.47,53.93h-14.55l-3.1-7.27Zm-5.54-13.32l-6.62-15.77-6.62,15.77h13.25Z"/>
        <path class="cls-2" d="m618.41,20.23c0,11.09-9.14,20.23-20.23,20.23h-13.46v13.46h-13.47V.07h26.93c11.09,0,20.23,9.07,20.23,20.16Zm-13.46,0c0-3.67-3.1-6.7-6.77-6.7h-13.46v13.46h13.46c3.67,0,6.77-3.1,6.77-6.77Z"/>
        <path class="cls-2" d="m655.92,33.7h-13.47v-13.47h13.47v13.47Zm0,20.23h-13.47v-13.46h13.47v13.46Z"/>
      </g>
    </g>
  </g>
</svg>