<?xml version="1.0" encoding="UTF-8"?>
<svg id="Layer_2" data-name="Layer 2" xmlns="http://www.w3.org/2000/svg" viewBox="0 0 1931.26 283.33">
  <defs>
    <style>
      .cls-1 {
        fill: none;
      }

      .cls-1, .cls-2 {
        stroke-width: 0px;
      }

      .cls-2 {
        fill: #f5df4d;
      }
    </style>
  </defs>
  <g id="Opening_doors" data-name="Opening doors">
    <g>
      <g>
        <path class="cls-2" d="m194.48,160.09c0,53.82-43.42,97.5-97.24,97.5H0V62.85h97.24c53.56,0,97.24,43.68,97.24,97.24Zm-48.62,0c0-26.78-21.84-48.62-48.62-48.62h-48.62v97.5h48.62c26.78,0,48.62-22.1,48.62-48.88Z"/>
        <path class="cls-2" d="m408.2,28.54v60.84h-24.18v89.44c0,47.06-37.96,85.28-85.02,85.28s-85.28-38.22-85.28-85.28V62.85h48.62v115.96c0,20.28,16.38,36.66,36.66,36.66s36.4-16.64,36.4-36.66V62.85h48.62V28.54h24.18Zm-73.06,242.57h-73.32v12.22h73.32v-12.22Z"/>
        <path class="cls-2" d="m573.82.97v116.48h12.22V.97h-12.22Zm-40.3,61.88h-53.04l-81.12,194.74h52.78l10.92-26.26h87.88l11.18,26.26h52.52l-81.12-194.74Zm-50.44,120.38l23.92-56.94,23.92,56.94h-47.84Z"/>
        <path class="cls-2" d="m813.27,63.12v194.47h-49.66l-81.12-118.56v118.56h-49.92V63.12h49.92l81.12,124.02V63.12h49.66Z"/>
      </g>
      <rect class="cls-1" width="1931.26" height="283.33"/>
    </g>
  </g>
</svg>