<?xml version="1.0" encoding="UTF-8"?>
<svg id="Layer_2" data-name="Layer 2" xmlns="http://www.w3.org/2000/svg" viewBox="0 0 1438.09 208.25">
  <defs>
    <style>
      .cls-1 {
        fill: none;
      }

      .cls-1, .cls-2 {
        stroke-width: 0px;
      }

      .cls-2 {
        fill: #f5df4d;
      }
    </style>
  </defs>
  <g id="Opening_doors" data-name="Opening doors">
    <g>
      <g>
        <path class="cls-2" d="M151.58,174.98H63.7l-10.92,26.26H0L81.12,6.5h53.04l81.12,194.74h-52.52l-11.18-26.26ZM131.56,126.88l-23.92-56.94-23.92,56.94h47.84Z"/>
        <path class="cls-2" d="M411.84,140.4c0,33.54-27.3,60.84-60.84,60.84h-118.04V6.5h87.62c33.28,0,60.84,27.56,60.84,60.84,0,6.24-1.04,12.74-2.86,18.72,20.28,10.4,33.28,31.72,33.28,54.34ZM281.58,79.56h39c6.76,0,12.22-5.46,12.22-12.22s-5.46-12.22-12.22-12.22h-39v24.44ZM363.22,140.4c0-6.76-5.46-12.22-12.22-12.22h-69.42v24.44h69.42c6.76,0,12.22-5.46,12.22-12.22Z"/>
        <path class="cls-2" d="M634.66,104c0,57.2-46.8,104.26-104,104.26s-104.26-46.8-104.26-104.26S473.46,0,530.66,0s104,46.8,104,104ZM587.34,104c0-31.2-25.48-56.68-56.68-56.68s-56.94,25.48-56.94,56.68,25.74,56.94,56.94,56.94,56.68-25.74,56.68-56.94Z"/>
        <path class="cls-2" d="M823.93,6.24v115.96c0,47.06-37.96,85.28-85.02,85.28s-85.28-38.22-85.28-85.28V6.24h48.62v115.96c0,20.28,16.38,36.66,36.66,36.66s36.4-16.64,36.4-36.66V6.24h48.62Z"/>
        <path class="cls-2" d="M1034.27,55.12h-73.06v146.12h-48.62V55.12h-73.06V6.5h194.74v48.62Z"/>
      </g>
      <rect class="cls-1" y="0" width="1438.09" height="208.25"/>
    </g>
  </g>
</svg>