<?xml version="1.0" encoding="UTF-8"?>
<svg id="Layer_2" data-name="Layer 2" xmlns="http://www.w3.org/2000/svg" viewBox="0 0 1931.26 283.33">
  <defs>
    <style>
      .cls-1 {
        fill: none;
      }

      .cls-1, .cls-2 {
        stroke-width: 0px;
      }

      .cls-2 {
        fill: #f5df4d;
      }
    </style>
  </defs>
  <g id="Opening_doors" data-name="Opening doors">
    <g>
      <g>
        <path class="cls-2" d="m96.46,160.35h102.44v42.9c-16.9,37.18-54.08,61.1-94.9,61.1C46.54,264.35,0,217.81,0,160.35S46.54,56.36,104,56.36c41.6,0,79.56,25.22,95.94,63.44l-43.42,18.46c-9.1-21.06-29.64-34.84-52.52-34.84-31.2,0-56.94,25.74-56.94,56.94s25.74,56.94,56.94,56.94c21.84,0,41.86-13,51.22-32.5h-58.76v-24.44Z"/>
        <path class="cls-2" d="m269.36,257.59h-48.62V62.85h48.62v194.74Z"/>
        <path class="cls-2" d="m389.22,0v47.77h12.22V0h-12.22Zm111.79,29.57h-24.18v64.48c-19.75-23.4-49.13-37.44-79.81-37.44-57.2,0-104.26,46.8-104.26,104s46.8,104.26,104.26,104.26,103.99-47.06,103.99-104.26c0-21.32-6.76-42.12-18.98-59.54h18.98V29.57Zm-103.99,187.98c-31.2,0-56.94-25.74-56.94-56.94s25.74-56.68,56.94-56.68,56.68,25.48,56.68,56.68-25.48,56.94-56.68,56.94Z"/>
        <path class="cls-2" d="m569.13,257.59h-48.62V62.85h48.62v194.74Z"/>
        <path class="cls-2" d="m783.97,111.47h-73.06v146.12h-48.62V111.47h-73.06v-48.62h194.74v48.62Z"/>
        <path class="cls-2" d="m981.83,63.12v194.48h-48.36v-58.5h-83.2v58.5h-48.62V63.12h48.62v87.36h83.2V63.12h48.36Z"/>
        <path class="cls-2" d="m1057.23,257.59h-48.62V62.85h48.62v194.74Z"/>
        <path class="cls-2" d="m1282.64,41.79l-2.86,11.96-112.58-25.74-112.84,25.74-2.6-11.96,115.44-26.26,115.44,26.26Zm-149.5,69.68v24.44h121.68v48.62h-121.68v24.18h121.68v48.88h-170.3V62.85h170.3v48.62h-121.68Zm70.72,159.64h-73.32v12.22h73.32v-12.22Z"/>
        <path class="cls-2" d="m1444.62,62.59v115.96c0,47.06-37.96,85.28-85.02,85.28s-85.28-38.22-85.28-85.28V62.59h48.62v115.96c0,20.28,16.38,36.66,36.66,36.66s36.4-16.64,36.4-36.66V62.59h48.62Z"/>
      </g>
      <rect class="cls-1" width="1931.26" height="283.33"/>
    </g>
  </g>
</svg>