<?xml version="1.0" encoding="UTF-8"?>
<svg id="Layer_2" data-name="Layer 2" xmlns="http://www.w3.org/2000/svg" viewBox="0 0 1931.26 418.72">
  <defs>
    <style>
      .cls-1 {
        fill: none;
      }

      .cls-1, .cls-2 {
        stroke-width: 0px;
      }

      .cls-2 {
        fill: #f5df4d;
      }
    </style>
  </defs>
  <g id="Opening_doors" data-name="Opening doors">
    <g>
      <rect class="cls-1" x="0" width="1931.26" height="418.72"/>
      <g>
        <path class="cls-2" d="m116.6,212.47H49l-8.4,20.2H0L62.4,82.88h40.8l62.4,149.8h-40.4l-8.6-20.2Zm-15.4-37l-18.4-43.8-18.4,43.8h36.8Z"/>
        <path class="cls-2" d="m225.45,164.47h-75v-18.6h75v18.6Z"/>
        <path class="cls-2" d="m402.49,82.88v149.8h-37.4v-83.6l-34.6,37.4h-22l-14.4-15.6h-.2l-19-20.8v82.6h-37.6V82.88h26.4c18.4,20.2,37.2,40.2,55.8,60.4l55.8-60.4h27.2Z"/>
        <path class="cls-2" d="m524.96,212.47h-67.6l-8.4,20.2h-40.6l62.4-149.8h40.8l62.4,149.8h-40.4l-8.6-20.2Zm-15.4-37l-18.4-43.8-18.4,43.8h36.8Z"/>
        <path class="cls-2" d="m716.36,195.07v37.6h-139.4l75.4-112.4h-74v-37.4h144.2l-75.4,112.2h69.2Z"/>
        <path class="cls-2" d="m765.96,120.27v18.8h72.6v37.4h-72.6v18.6h93.6v37.6h-131V82.88h131v37.4h-93.6Z"/>
        <path class="cls-2" d="m927.56,164.47h-75v-18.6h75v18.6Z"/>
        <path class="cls-2" d="m976.59,232.67h-37.4V82.88h37.4v149.8Z"/>
        <path class="cls-2" d="m1132.35,83.08v149.6h-38.2l-62.4-91.2v91.2h-38.4V83.08h38.4l62.4,95.4v-95.4h38.2Z"/>
        <path class="cls-2" d="m1220.95,157.87h78.8v33c-13,28.6-41.6,47-73,47-44.2,0-80-35.8-80-80s35.8-80,80-80c32,0,61.2,19.4,73.8,48.8l-33.4,14.2c-7-16.2-22.8-26.8-40.4-26.8-24,0-43.8,19.8-43.8,43.8s19.8,43.8,43.8,43.8c16.8,0,32.2-10,39.4-25h-45.2v-18.8Z"/>
        <path class="cls-2" d="m76.6,338.72h78.8v33c-13,28.6-41.6,47-73,47-44.2,0-80-35.8-80-80s35.8-80,80-80c32,0,61.2,19.4,73.8,48.8l-33.4,14.2c-7-16.2-22.8-26.8-40.4-26.8-24,0-43.8,19.8-43.8,43.8s19.8,43.8,43.8,43.8c16.8,0,32.2-10,39.4-25h-45.2v-18.8Z"/>
        <path class="cls-2" d="m271.09,393.42h-67.6l-8.4,20.2h-40.6l62.4-149.8h40.8l62.4,149.8h-40.4l-8.6-20.2Zm-15.4-37l-18.4-43.8-18.4,43.8h36.8Z"/>
        <path class="cls-2" d="m490.96,263.82v149.8h-37.4v-83.6l-34.6,37.4h-22l-14.4-15.6h-.2l-19-20.8v82.6h-37.6v-149.8h26.4c18.4,20.2,37.2,40.2,55.8,60.4l55.8-60.4h27.2Z"/>
        <path class="cls-2" d="m541.61,301.12v18.8h72.6v37.4h-72.6v18.6h93.6v37.6h-131v-149.8h131v37.4h-93.6Z"/>
      </g>
      <g>
        <path class="cls-2" d="m47.16,22.03c0,11.09-9.14,20.23-20.23,20.23h-13.46v13.46H0V1.87h26.93c11.09,0,20.23,9.07,20.23,20.16Zm-13.46,0c0-3.67-3.1-6.7-6.77-6.7h-13.46v13.46h13.46c3.67,0,6.77-3.1,6.77-6.77Z"/>
        <path class="cls-2" d="m86.98,38.16v17.57h-13.54v-17.57L48.82,1.73h16.27l15.12,22.47L95.26,1.73h16.27l-24.55,36.44Z"/>
        <path class="cls-2" d="m141.19,28.8h28.37v11.88c-4.68,10.3-14.98,16.92-26.28,16.92-15.91,0-28.8-12.89-28.8-28.8S127.37,0,143.28,0C154.8,0,165.31,6.98,169.85,17.57l-12.03,5.11c-2.52-5.83-8.21-9.65-14.54-9.65-8.64,0-15.77,7.13-15.77,15.77s7.13,15.77,15.77,15.77c6.05,0,11.59-3.6,14.19-9h-16.27v-6.77Z"/>
        <path class="cls-2" d="m215.14,48.46h-24.34l-3.02,7.27h-14.62L195.62,1.8h14.69l22.47,53.93h-14.55l-3.1-7.27Zm-5.54-13.32l-6.62-15.77-6.62,15.77h13.25Z"/>
        <path class="cls-2" d="m297.22,1.8v53.93h-13.47v-30.1l-12.46,13.46h-7.92l-5.18-5.62h-.07l-6.84-7.49v29.74h-13.54V1.8h9.5c6.62,7.27,13.39,14.47,20.09,21.75l20.09-21.75h9.79Z"/>
        <path class="cls-2" d="m318.17,15.26v6.77h33.7v13.47h-33.7v6.7h33.7v13.54h-47.16V1.8h47.16v13.46h-33.7Z"/>
        <path class="cls-2" d="m390.89,35.5h-13.47v-13.47h13.47v13.47Zm0,20.23h-13.47v-13.46h13.47v13.46Z"/>
      </g>
    </g>
  </g>
</svg>