<?xml version="1.0" encoding="UTF-8"?>
<svg id="Layer_2" data-name="Layer 2" xmlns="http://www.w3.org/2000/svg" viewBox="0 0 1931.26 418.47">
  <defs>
    <style>
      .cls-1 {
        fill: none;
      }

      .cls-1, .cls-2 {
        stroke-width: 0px;
      }

      .cls-2 {
        fill: #f5df4d;
      }
    </style>
  </defs>
  <g id="Opening_doors" data-name="Opening doors">
    <g>
      <rect class="cls-1" x="0" y="0" width="1931.26" height="418.47"/>
      <g>
        <path class="cls-2" d="m155.2,190.62c-13,28.4-41.6,47-72.8,47-44.2,0-80-35.8-80-80s35.8-80,80-80c31.8,0,61.2,19.4,73.6,48.8l-33.4,14.2c-6.8-16-22.8-26.8-40.2-26.8-24,0-43.8,19.8-43.8,43.8s19.8,43.8,43.8,43.8c17,0,32.6-10.4,39.8-25.8l33,15Z"/>
        <path class="cls-2" d="m319.79,158.02c0,44-36,80.2-80,80.2s-80.2-36-80.2-80.2,36.2-80,80.2-80,80,36,80,80Zm-36.4,0c0-24-19.6-43.6-43.6-43.6s-43.8,19.6-43.8,43.6,19.8,43.8,43.8,43.8,43.6-19.8,43.6-43.8Z"/>
        <path class="cls-2" d="m468.19,83.22v149.6h-38.2l-62.4-91.2v91.2h-38.4V83.22h38.4l62.4,95.4v-95.4h38.2Z"/>
        <path class="cls-2" d="m634.39,190.62c-13,28.4-41.6,47-72.8,47-44.2,0-80-35.8-80-80s35.8-80,80-80c31.8,0,61.2,19.4,73.6,48.8l-33.4,14.2c-6.8-16-22.8-26.8-40.2-26.8-24,0-43.8,19.8-43.8,43.8s19.8,43.8,43.8,43.8c17,0,32.6-10.4,39.8-25.8l33,15Z"/>
        <path class="cls-2" d="m682.39,120.42v18.8h72.6v37.4h-72.6v18.6h93.6v37.6h-131V83.02h131v37.4h-93.6Z"/>
        <path class="cls-2" d="m927.59,232.82h-45.6l-39.2-56.2h-16.4v56.2h-37.4V83.02h90.8c25.8,0,46.8,21.2,46.8,47,0,22.6-16.4,42.2-38.6,46l39.6,56.8Zm-38.4-102.8c0-5.2-4.2-9.4-9.4-9.4h-53.4v18.6h53.4c5,0,9.4-4.2,9.4-9.2Z"/>
        <path class="cls-2" d="m1083.39,120.42h-56.2v112.4h-37.4v-112.4h-56.2v-37.4h149.8v37.4Z"/>
        <path class="cls-2" d="m149.8,301.27h-56.2v112.4h-37.4v-112.4H0v-37.4h149.8v37.4Z"/>
        <path class="cls-2" d="m194.8,413.67h-37.4v-149.8h37.4v149.8Z"/>
        <path class="cls-2" d="m356.19,371.47c-13,28.4-41.6,47-72.8,47-44.2,0-80-35.8-80-80s35.8-80,80-80c31.8,0,61.2,19.4,73.6,48.8l-33.4,14.2c-6.8-16-22.8-26.8-40.2-26.8-24,0-43.8,19.8-43.8,43.8s19.8,43.8,43.8,43.8c17,0,32.6-10.4,39.8-25.8l33,15Z"/>
        <path class="cls-2" d="m503.19,413.67h-41.2l-45-64.6-13.6,15v49.6h-37.4v-149.6h37.4v50.4l49.4-51,43,.6-54.8,61.2,62.2,88.4Z"/>
        <path class="cls-2" d="m548.19,301.27v18.8h72.6v37.4h-72.6v18.6h93.6v37.6h-131v-149.8h131v37.4h-93.6Z"/>
        <path class="cls-2" d="m800.59,301.27h-56.2v112.4h-37.4v-112.4h-56.2v-37.4h149.8v37.4Z"/>
        <path class="cls-2" d="m923.19,320.07h37.4c25.6,0,46.8,21.2,46.8,46.8s-21.2,46.8-46.8,46.8h-75.2v-37.4h75.2c5.2,0,9.2-4.4,9.2-9.4s-4-9.4-9.2-9.4h-37.4c-25.8,0-47-21-47-46.8s21.2-46.8,47-46.8h75.2v37.4h-75.2c-5.2,0-9.4,4.2-9.4,9.4s4.2,9.4,9.4,9.4Z"/>
        <path class="cls-2" d="m1109.39,364.87v48.8h-37.6v-48.8l-68.4-101.2h45.2l42,62.4,41.8-62.4h45.2l-68.2,101.2Z"/>
        <path class="cls-2" d="m1217.59,319.77h37.4c25.6,0,46.8,21.2,46.8,46.8s-21.2,46.8-46.8,46.8h-75.2v-37.4h75.2c5.2,0,9.2-4.4,9.2-9.4s-4-9.4-9.2-9.4h-37.4c-25.8,0-47-21-47-46.8s21.2-46.8,47-46.8h75.2v37.4h-75.2c-5.2,0-9.4,4.2-9.4,9.4s4.2,9.4,9.4,9.4Z"/>
        <path class="cls-2" d="m1452.58,301.27h-56.2v112.4h-37.4v-112.4h-56.2v-37.4h149.8v37.4Z"/>
        <path class="cls-2" d="m1501.58,301.27v18.8h72.6v37.4h-72.6v18.6h93.6v37.6h-131v-149.8h131v37.4h-93.6Z"/>
        <path class="cls-2" d="m1775.38,263.87v149.8h-37.4v-83.6l-34.6,37.4h-22l-14.4-15.6h-.2l-19-20.8v82.6h-37.6v-149.8h26.4c18.4,20.2,37.2,40.2,55.8,60.4l55.8-60.4h27.2Z"/>
      </g>
      <g>
        <path class="cls-2" d="m55.01,40.68c-4.68,10.22-14.98,16.92-26.21,16.92C12.89,57.61,0,44.72,0,28.8S12.89,0,28.8,0c11.45,0,22.03,6.98,26.5,17.57l-12.02,5.11c-2.45-5.76-8.21-9.65-14.47-9.65-8.64,0-15.77,7.13-15.77,15.77s7.13,15.77,15.77,15.77c6.12,0,11.74-3.74,14.33-9.29l11.88,5.4Z"/>
        <path class="cls-2" d="m110.52,2.02v53.86h-13.39v-16.2h-23.04v16.2h-13.47V2.02h13.47v24.19h23.04V2.02h13.39Z"/>
        <path class="cls-2" d="m131.4,15.41v6.77h26.14v13.47h-26.14v6.7h33.7v13.54h-47.16V1.94h47.16v13.46h-33.7Z"/>
        <path class="cls-2" d="m210.31,48.6h-24.34l-3.02,7.27h-14.62L190.8,1.94h14.69l22.47,53.93h-14.55l-3.1-7.27Zm-5.54-13.32l-6.62-15.77-6.62,15.77h13.25Z"/>
        <path class="cls-2" d="m280.08,22.18c0,11.09-9.14,20.23-20.23,20.23h-13.46v13.46h-13.47V2.02h26.93c11.09,0,20.23,9.07,20.23,20.16Zm-13.46,0c0-3.67-3.1-6.7-6.77-6.7h-13.46v13.46h13.46c3.67,0,6.77-3.1,6.77-6.77Z"/>
        <path class="cls-2" d="m366.99,15.41h-20.23v40.47h-13.46V15.41h-20.23V1.94h53.93v13.46Z"/>
        <path class="cls-2" d="m421.78,2.02v53.86h-13.39v-16.2h-23.04v16.2h-13.47V2.02h13.47v24.19h23.04V2.02h13.39Z"/>
        <path class="cls-2" d="m479.16,55.88h-16.42l-14.11-20.23h-5.9v20.23h-13.47V1.94h32.69c9.29,0,16.85,7.63,16.85,16.92,0,8.14-5.9,15.19-13.9,16.56l14.26,20.45Zm-13.83-37.01c0-1.87-1.51-3.38-3.38-3.38h-19.23v6.7h19.23c1.8,0,3.38-1.51,3.38-3.31Z"/>
        <path class="cls-2" d="m499.03,55.88h-13.47V1.94h13.47v53.93Z"/>
        <path class="cls-2" d="m547.13,42.41v13.46h-40.47V1.94h13.54v40.47h26.93Z"/>
        <path class="cls-2" d="m591.62,42.41v13.46h-40.47V1.94h13.54v40.47h26.93Z"/>
        <path class="cls-2" d="m614.73,22.18h13.46c9.22,0,16.85,7.63,16.85,16.85s-7.63,16.85-16.85,16.85h-27.07v-13.46h27.07c1.87,0,3.31-1.58,3.31-3.38s-1.44-3.38-3.31-3.38h-13.46c-9.29,0-16.92-7.56-16.92-16.85s7.63-16.85,16.92-16.85h27.07v13.46h-27.07c-1.87,0-3.38,1.51-3.38,3.38s1.51,3.38,3.38,3.38Z"/>
        <path class="cls-2" d="m688.89,35.64h-13.47v-13.47h13.47v13.47Zm0,20.23h-13.47v-13.46h13.47v13.46Z"/>
      </g>
    </g>
  </g>
</svg>