<?xml version="1.0" encoding="UTF-8"?>
<svg id="Layer_2" data-name="Layer 2" xmlns="http://www.w3.org/2000/svg" viewBox="0 0 1931.78 419.07">
  <defs>
    <style>
      .cls-1 {
        fill: none;
      }

      .cls-1, .cls-2 {
        stroke-width: 0px;
      }

      .cls-2 {
        fill: #f5df4d;
      }
    </style>
  </defs>
  <g id="Opening_doors" data-name="Opening doors">
    <g>
      <rect class="cls-1" x=".52" width="1931.26" height="418.47"/>
      <g>
        <path class="cls-2" d="m153.32,190.62c-13,28.4-41.6,47-72.8,47C36.32,237.62.52,201.82.52,157.62s35.8-80,80-80c31.8,0,61.2,19.4,73.6,48.8l-33.4,14.2c-6.8-16-22.8-26.8-40.2-26.8-24,0-43.8,19.8-43.8,43.8s19.8,43.8,43.8,43.8c17,0,32.6-10.4,39.8-25.8l33,15Z"/>
        <path class="cls-2" d="m317.39,158.02c0,44-36,80.2-80,80.2s-80.2-36-80.2-80.2,36.2-80,80.2-80,80,36,80,80Zm-36.4,0c0-24-19.6-43.6-43.6-43.6s-43.8,19.6-43.8,43.6,19.8,43.8,43.8,43.8,43.6-19.8,43.6-43.8Z"/>
        <path class="cls-2" d="m456.22,82.62l-75.6,159.4-75.8-159.4h41.6l34.2,74.6,34-74.6h41.6Z"/>
        <path class="cls-2" d="m501.62,232.82h-37.4V83.02h37.4v149.8Z"/>
        <path class="cls-2" d="m670.21,157.82c0,41.4-33.4,75-74.8,75h-74.8V83.02h74.8c41.2,0,74.8,33.6,74.8,74.8Zm-37.4,0c0-20.6-16.8-37.4-37.4-37.4h-37.4v75h37.4c20.6,0,37.4-17,37.4-37.6Z"/>
        <path class="cls-2" d="m47,320.07h37.4c25.6,0,46.8,21.2,46.8,46.8s-21.2,46.8-46.8,46.8H9.2v-37.4h75.2c5.2,0,9.2-4.4,9.2-9.4s-4-9.4-9.2-9.4h-37.4c-25.8,0-47-21-47-46.8s21.2-46.8,47-46.8h75.2v37.4H47c-5.2,0-9.4,4.2-9.4,9.4s4.2,9.4,9.4,9.4Z"/>
        <path class="cls-2" d="m180.1,413.67h-37.4v-149.8h37.4v149.8Z"/>
        <path class="cls-2" d="m360.4,263.87v149.8h-37.4v-83.6l-34.6,37.4h-22l-14.4-15.6h-.2l-19-20.8v82.6h-37.6v-149.8h26.4c18.4,20.2,37.2,40.2,55.8,60.4l55.8-60.4h27.2Z"/>
        <path class="cls-2" d="m504.1,263.67v89.2c0,36.2-29.2,65.6-65.4,65.6s-65.6-29.4-65.6-65.6v-89.2h37.4v89.2c0,15.6,12.6,28.2,28.2,28.2s28-12.8,28-28.2v-89.2h37.4Z"/>
        <path class="cls-2" d="m628.52,376.27v37.4h-112.4v-149.8h37.6v112.4h74.8Z"/>
        <path class="cls-2" d="m749.64,393.47h-67.6l-8.4,20.2h-40.6l62.4-149.8h40.8l62.4,149.8h-40.4l-8.6-20.2Zm-15.4-37l-18.4-43.8-18.4,43.8h36.8Z"/>
        <path class="cls-2" d="m918.3,301.27h-56.2v112.4h-37.4v-112.4h-56.2v-37.4h149.8v37.4Z"/>
        <path class="cls-2" d="m963.29,413.67h-37.4v-149.8h37.4v149.8Z"/>
        <path class="cls-2" d="m1131.56,338.87c0,44-36,80.2-80,80.2s-80.2-36-80.2-80.2,36.2-80,80.2-80,80,36,80,80Zm-36.4,0c0-24-19.6-43.6-43.6-43.6s-43.8,19.6-43.8,43.6,19.8,43.8,43.8,43.8,43.6-19.8,43.6-43.8Z"/>
        <path class="cls-2" d="m1278.49,263.97v149.6h-38.2l-62.4-91.2v91.2h-38.4v-149.6h38.4l62.4,95.4v-95.4h38.2Z"/>
      </g>
      <g>
        <path class="cls-2" d="m54.38,28.88c0,14.91-12.03,27-26.93,27H.52V1.94h26.93c14.83,0,26.93,12.1,26.93,26.93Zm-13.47,0c0-7.42-6.05-13.47-13.46-13.47h-13.46v27h13.46c7.42,0,13.46-6.12,13.46-13.54Z"/>
        <path class="cls-2" d="m73.67,55.88h-13.47V1.94h13.47v53.93Z"/>
        <path class="cls-2" d="m100.39,22.18h13.46c9.22,0,16.85,7.63,16.85,16.85s-7.63,16.85-16.85,16.85h-27.07v-13.46h27.07c1.87,0,3.31-1.58,3.31-3.38s-1.44-3.38-3.31-3.38h-13.46c-9.29,0-16.92-7.56-16.92-16.85S91.1,1.94,100.39,1.94h27.07v13.46h-27.07c-1.87,0-3.38,1.51-3.38,3.38s1.51,3.38,3.38,3.38Z"/>
        <path class="cls-2" d="m194.92,40.68c-4.68,10.22-14.98,16.92-26.21,16.92-15.91,0-28.8-12.89-28.8-28.8S152.8,0,168.72,0c11.45,0,22.03,6.98,26.5,17.57l-12.02,5.11c-2.45-5.76-8.21-9.65-14.47-9.65-8.64,0-15.77,7.13-15.77,15.77s7.13,15.77,15.77,15.77c6.12,0,11.74-3.74,14.33-9.29l11.88,5.4Z"/>
        <path class="cls-2" d="m250.51,55.88h-16.42l-14.11-20.23h-5.9v20.23h-13.47V1.94h32.69c9.29,0,16.85,7.63,16.85,16.92,0,8.14-5.9,15.19-13.9,16.56l14.26,20.45Zm-13.83-37.01c0-1.87-1.51-3.38-3.38-3.38h-19.23v6.7h19.23c1.8,0,3.38-1.51,3.38-3.31Z"/>
        <path class="cls-2" d="m270.38,15.41v6.77h26.14v13.47h-26.14v6.7h33.7v13.54h-47.16V1.94h47.16v13.46h-33.7Z"/>
        <path class="cls-2" d="m361.24,15.41h-20.23v40.47h-13.46V15.41h-20.23V1.94h53.93v13.46Z"/>
        <path class="cls-2" d="m379.6,15.41v6.77h26.14v13.47h-26.14v6.7h33.7v13.54h-47.16V1.94h47.16v13.46h-33.7Z"/>
        <path class="cls-2" d="m509.49,1.94v53.93h-13.47v-30.1l-12.46,13.46h-7.92l-5.18-5.62h-.07l-6.84-7.49v29.74h-13.54V1.94h9.5c6.62,7.27,13.39,14.47,20.09,21.75l20.09-21.75h9.79Z"/>
        <path class="cls-2" d="m556.51,48.6h-24.34l-3.02,7.27h-14.62l22.47-53.93h14.69l22.47,53.93h-14.55l-3.1-7.27Zm-5.54-13.32l-6.62-15.77-6.62,15.77h13.25Z"/>
        <path class="cls-2" d="m630.52,15.41h-20.23v40.47h-13.46V15.41h-20.23V1.94h53.93v13.46Z"/>
        <path class="cls-2" d="m685.31,2.02v53.86h-13.39v-16.2h-23.04v16.2h-13.47V2.02h13.47v24.19h23.04V2.02h13.39Z"/>
        <path class="cls-2" d="m711.88,22.18h13.46c9.22,0,16.85,7.63,16.85,16.85s-7.63,16.85-16.85,16.85h-27.07v-13.46h27.07c1.87,0,3.31-1.58,3.31-3.38s-1.44-3.38-3.31-3.38h-13.46c-9.29,0-16.92-7.56-16.92-16.85s7.63-16.85,16.92-16.85h27.07v13.46h-27.07c-1.87,0-3.38,1.51-3.38,3.38s1.51,3.38,3.38,3.38Z"/>
        <path class="cls-2" d="m786.04,35.64h-13.47v-13.47h13.47v13.47Zm0,20.23h-13.47v-13.46h13.47v13.46Z"/>
      </g>
    </g>
  </g>
</svg>