<?xml version="1.0" encoding="UTF-8"?>
<svg id="Layer_2" data-name="Layer 2" xmlns="http://www.w3.org/2000/svg" viewBox="0 0 1438.09 955.45">
  <defs>
    <style>
      .cls-1 {
        fill: none;
      }

      .cls-1, .cls-2 {
        stroke-width: 0px;
      }

      .cls-2 {
        fill: #f5df4d;
      }
    </style>
  </defs>
  <g id="Opening_doors" data-name="Opening doors">
    <g>
      <g>
        <path class="cls-2" d="M280.67,496.11c0,66.16-54.27,120.11-120.43,120.11H40.14v-102.44H0v-30.19h40.14v-107.9h120.11c66.47,0,120.43,53.95,120.43,120.43ZM220.62,496.11c0-33.4-26.98-60.37-60.37-60.37h-60.05v47.85h68.72v30.19h-68.72v42.39h60.05c33.08,0,60.37-26.98,60.37-60.05Z"/>
        <path class="cls-2" d="M480.92,0c21.76,7.02,43.44,14.83,66.3,14.83,20.28,0,40.07-5.84,57.98-14.83h-124.28ZM371.56,5.52c3.51-1.95,7.15-3.82,10.88-5.52h-14.01l3.13,5.52ZM556.56,179.26c-6.34-64.83-61.41-115.93-127.84-115.93-70.65,0-128.78,57.81-128.78,128.46s57.81,128.77,128.78,128.77c64.67,0,118.58-48.7,127.23-111.12.8-5.77,1.22-11.67,1.22-17.65,0-4.22-.21-8.4-.62-12.52ZM428.72,262.1c-38.54,0-70.33-31.79-70.33-70.32s31.79-70.01,70.33-70.01,70.01,31.47,70.01,70.01-31.47,70.32-70.01,70.32ZM428.72,12.91l-142.59,32.44,3.21,14.77,139.38-31.79,139.06,31.79,3.53-14.77L428.72,12.91Z"/>
        <path class="cls-2" d="M280.67,190.63c0,66.16-54.27,120.11-120.43,120.11H40.14v-102.44H0v-30.19h40.14v-107.9h120.11c66.47,0,120.43,53.95,120.43,120.43ZM220.62,190.63c0-33.4-26.98-60.37-60.37-60.37h-60.05v47.85h68.72v30.19h-68.72v42.39h60.05c33.08,0,60.37-26.98,60.37-60.05Z"/>
        <g>
          <path class="cls-2" d="M511.59,333.29v42.39h-60.05v143.23c0,24.72-20.23,45.27-44.96,45.27s-45.28-20.23-45.28-45.27v-143.23h-60.04c3.3,89.93-29.72,244.24,105.33,248.55,122.94-5.55,105.52-128.35,105.01-215.79h29.87v-75.15h-29.87Z"/>
          <path class="cls-2" d="M413.64,331.41v100.29h-15.1v-103.13c4.77,1.71,9.78,2.73,15.1,2.84Z"/>
        </g>
        <path class="cls-2" d="M779.74,548.45c-20.87,45.6-66.8,75.47-116.89,75.47-70.97,0-128.45-57.48-128.45-128.45s57.48-128.45,128.45-128.45c51.06,0,98.27,31.15,118.18,78.36l-53.63,22.8c-10.92-25.69-36.61-43.03-64.55-43.03-38.54,0-70.33,31.79-70.33,70.33s31.79,70.33,70.33,70.33c27.3,0,52.35-16.7,63.91-41.43l52.99,24.09Z"/>
        <path class="cls-2" d="M158.98,669.14c-70.97,0-128.46,57.48-128.46,128.46s58.77,126.52,129.1,126.52,127.82-55.56,127.82-126.52-57.48-128.46-128.46-128.46ZM158.98,867.59c-38.54,0-70.01-31.46-70.01-70s31.47-70.33,70.01-70.33,70.33,31.79,70.33,70.33-31.79,70-70.33,70ZM38.87,921.23v30.51l27.3,3.72h213.24v-1.15l-240.54-33.08Z"/>
        <path class="cls-2" d="M521.87,676.52v143.23c0,58.13-46.89,105.33-105.01,105.33s-105.33-47.21-105.33-105.33v-143.23h60.05v143.23c0,25.05,20.23,45.28,45.28,45.28s44.96-20.55,44.96-45.28v-143.23h60.05Z"/>
        <path class="cls-2" d="M706.85,676.85h-65.51l-100.2,240.52h65.19l13.49-32.44h108.55l13.81,32.44h64.86l-100.18-240.52ZM644.55,825.53l29.55-70.33,29.55,70.33h-59.09ZM773.17,660.97l39.97,9.14,2.19-9.14h-42.16ZM534.72,670.11l40.07-9.14h-42.06l1.99,9.14ZM816.67,655.33l-1.35,5.63h-42.16l-99.07-22.65-99.31,22.65h-42.06l-1.22-5.63,113.54-25.83h58.1l113.52,25.83Z"/>
        <path class="cls-2" d="M1052.39,677.17v240.21h-61.34l-100.19-146.44v146.44h-61.66v-240.21h61.66l100.19,153.18v-153.18h61.34Z"/>
      </g>
      <polygon class="cls-1" points="1438.09 0 1438.09 955.45 491.53 955.45 321.16 955.45 0 955.45 0 0 1438.09 0"/>
    </g>
  </g>
</svg>