<?xml version="1.0" encoding="UTF-8"?>
<svg id="Layer_2" data-name="Layer 2" xmlns="http://www.w3.org/2000/svg" viewBox="0 0 1931.26 236.35">
  <defs>
    <style>
      .cls-1 {
        fill: none;
      }

      .cls-1, .cls-2 {
        stroke-width: 0px;
      }

      .cls-2 {
        fill: #f5df4d;
      }
    </style>
  </defs>
  <g id="Opening_doors" data-name="Opening doors">
    <g>
      <rect class="cls-1" x="0" width="1931.26" height="236.15"/>
      <g>
        <path class="cls-2" d="m37.4,118.55v25h56.2v37.4h-56.2v50H0V81.15h131v37.4H37.4Z"/>
        <path class="cls-2" d="m293.5,156.15c0,44-36,80.2-80,80.2s-80.2-36-80.2-80.2,36.2-80,80.2-80,80,36,80,80Zm-36.4,0c0-24-19.6-43.6-43.6-43.6s-43.8,19.6-43.8,43.6,19.8,43.8,43.8,43.8,43.6-19.8,43.6-43.8Zm33.6-49V.14h9.4v107h-9.4Z"/>
        <path class="cls-2" d="m454.2,81.35v149.6h-38.2l-62.4-91.2v91.2h-38.4V81.35h38.4l62.4,95.4v-95.4h38.2Z"/>
        <path class="cls-2" d="m547.79,156.15h78.8v33c-13,28.6-41.6,47-73,47-44.2,0-80-35.8-80-80s35.8-80,80-80c32,0,61.2,19.4,73.8,48.8l-33.4,14.2c-7-16.2-22.8-26.8-40.4-26.8-24,0-43.8,19.8-43.8,43.8s19.8,43.8,43.8,43.8c16.8,0,32.2-10,39.4-25h-45.2v-18.8Z"/>
      </g>
      <g>
        <path class="cls-2" d="m38.16,36.44v17.57h-13.54v-17.57L0,0h16.27l15.12,22.47L46.44,0h16.27l-24.55,36.44Z"/>
        <path class="cls-2" d="m80.71,13.54v6.77h26.14v13.47h-26.14v6.7h33.7v13.54h-47.16V.07h47.16v13.46h-33.7Z"/>
        <path class="cls-2" d="m159.63,46.73h-24.34l-3.02,7.27h-14.62L140.11.07h14.69l22.47,53.93h-14.55l-3.1-7.27Zm-5.54-13.32l-6.62-15.77-6.62,15.77h13.25Z"/>
        <path class="cls-2" d="m232.13,54h-16.42l-14.11-20.23h-5.9v20.23h-13.47V.07h32.69c9.29,0,16.85,7.63,16.85,16.92,0,8.14-5.9,15.19-13.9,16.56l14.26,20.45Zm-13.83-37.01c0-1.87-1.51-3.38-3.38-3.38h-19.23v6.7h19.23c1.8,0,3.38-1.51,3.38-3.31Z"/>
        <path class="cls-2" d="m299.1,29.45h-61.25v-6.7h61.25v6.7Z"/>
        <path class="cls-2" d="m327.66,13.54v6.77h26.14v13.47h-26.14v6.7h33.7v13.54h-47.16V.07h47.16v13.46h-33.7Z"/>
        <path class="cls-2" d="m417.16.14v53.86h-13.75l-22.47-32.83v32.83h-13.83V.14h13.83l22.47,34.35V.14h13.75Z"/>
        <path class="cls-2" d="m478.51,27c0,14.91-12.03,27-26.93,27h-26.93V.07h26.93c14.83,0,26.93,12.1,26.93,26.93Zm-13.47,0c0-7.42-6.05-13.47-13.46-13.47h-13.46v27h13.46c7.42,0,13.46-6.12,13.46-13.54Z"/>
        <path class="cls-2" d="m563.78,20.31c0,11.09-9.14,20.23-20.23,20.23h-13.46v13.46h-13.47V.14h26.93c11.09,0,20.23,9.07,20.23,20.16Zm-13.46,0c0-3.67-3.1-6.7-6.77-6.7h-13.46v13.46h13.46c3.67,0,6.77-3.1,6.77-6.77Z"/>
        <path class="cls-2" d="m600.76,46.73h-24.34l-3.02,7.27h-14.62L581.25.07h14.69l22.47,53.93h-14.55l-3.1-7.27Zm-5.54-13.32l-6.62-15.77-6.62,15.77h13.25Z"/>
        <path class="cls-2" d="m672.31,54h-16.42l-14.11-20.23h-5.9v20.23h-13.47V.07h32.69c9.29,0,16.85,7.63,16.85,16.92,0,8.14-5.9,15.19-13.9,16.56l14.26,20.45Zm-13.83-37.01c0-1.87-1.51-3.38-3.38-3.38h-19.23v6.7h19.23c1.8,0,3.38-1.51,3.38-3.31Z"/>
        <path class="cls-2" d="m730.19,13.54h-20.23v40.47h-13.46V13.54h-20.23V.07h53.93v13.46Z"/>
        <path class="cls-2" d="m770.44,36.44v17.57h-13.54v-17.57L732.28,0h16.27l15.12,22.47,15.05-22.47h16.27l-24.55,36.44Z"/>
        <path class="cls-2" d="m834.98,33.77h-13.47v-13.47h13.47v13.47Zm0,20.23h-13.47v-13.46h13.47v13.46Z"/>
      </g>
    </g>
  </g>
</svg>