<?xml version="1.0" encoding="UTF-8"?>
<svg id="Layer_2" data-name="Layer 2" xmlns="http://www.w3.org/2000/svg" viewBox="0 0 1931.26 238.07">
  <defs>
    <style>
      .cls-1 {
        fill: none;
      }

      .cls-1, .cls-2 {
        stroke-width: 0px;
      }

      .cls-2 {
        fill: #f5df4d;
      }
    </style>
  </defs>
  <g id="Opening_doors" data-name="Opening doors">
    <g>
      <rect class="cls-1" x="0" width="1931.26" height="238.07"/>
      <g>
        <path class="cls-2" d="m37.4,120.27v25h56.2v37.4h-56.2v50H0V82.88h131v37.4H37.4Z"/>
        <path class="cls-2" d="m291.8,157.87c0,44-36,80.2-80,80.2s-80.2-36-80.2-80.2,36.2-80,80.2-80,80,36,80,80Zm-36.4,0c0-24-19.6-43.6-43.6-43.6s-43.8,19.6-43.8,43.6,19.8,43.8,43.8,43.8,43.6-19.8,43.6-43.8Z"/>
        <path class="cls-2" d="m447.8,232.67h-45.6l-39.2-56.2h-16.4v56.2h-37.4V82.88h90.8c25.8,0,46.8,21.2,46.8,47,0,22.6-16.4,42.2-38.6,46l39.6,56.8Zm-38.4-102.8c0-5.2-4.2-9.4-9.4-9.4h-53.4v18.6h53.4c5,0,9.4-4.2,9.4-9.2Z"/>
        <path class="cls-2" d="m588.99,82.67v89.2c0,36.2-29.2,65.6-65.4,65.6s-65.6-29.4-65.6-65.6v-89.2h37.4v89.2c0,15.6,12.6,28.2,28.2,28.2s28-12.8,28-28.2v-89.2h37.4Z"/>
        <path class="cls-2" d="m772.19,82.88v149.8h-37.4v-83.6l-34.6,37.4h-22l-14.4-15.6h-.2l-19-20.8v82.6h-37.6V82.88h26.4c18.4,20.2,37.2,40.2,55.8,60.4l55.8-60.4h27.2Z"/>
      </g>
      <g>
        <path class="cls-2" d="m13.47,15.26v9h20.23v13.46H13.47v18H0V1.8h47.16v13.46H13.47Z"/>
        <path class="cls-2" d="m97.64,1.73v32.12c0,13.03-10.51,23.62-23.55,23.62s-23.62-10.58-23.62-23.62V1.73h13.46v32.12c0,5.62,4.54,10.15,10.15,10.15s10.08-4.61,10.08-10.15V1.73h13.47Z"/>
        <path class="cls-2" d="m144.94,42.27v13.46h-40.47V1.8h13.54v40.47h26.93Z"/>
        <path class="cls-2" d="m198.44,38.88c0,9.29-7.56,16.85-16.85,16.85h-32.69V1.8h24.27c9.22,0,16.85,7.63,16.85,16.85,0,1.73-.29,3.53-.79,5.18,5.62,2.88,9.22,8.78,9.22,15.05Zm-36.08-16.85h10.8c1.87,0,3.38-1.51,3.38-3.38s-1.51-3.38-3.38-3.38h-10.8v6.77Zm22.61,16.85c0-1.87-1.51-3.38-3.38-3.38h-19.23v6.77h19.23c1.87,0,3.38-1.51,3.38-3.38Z"/>
        <path class="cls-2" d="m253.95,55.73h-16.42l-14.11-20.23h-5.9v20.23h-13.47V1.8h32.69c9.29,0,16.85,7.63,16.85,16.92,0,8.14-5.9,15.19-13.9,16.56l14.26,20.45Zm-13.83-37.01c0-1.87-1.51-3.38-3.38-3.38h-19.23v6.7h19.23c1.8,0,3.38-1.51,3.38-3.31Z"/>
        <path class="cls-2" d="m273.82,55.73h-13.47V1.8h13.47v53.93Z"/>
        <path class="cls-2" d="m306.5,28.8h28.37v11.88c-4.68,10.3-14.98,16.92-26.28,16.92-15.91,0-28.8-12.89-28.8-28.8S292.68,0,308.59,0c11.52,0,22.03,6.98,26.57,17.57l-12.03,5.11c-2.52-5.83-8.21-9.65-14.54-9.65-8.64,0-15.77,7.13-15.77,15.77s7.13,15.77,15.77,15.77c6.05,0,11.59-3.6,14.19-9h-16.27v-6.77Z"/>
        <path class="cls-2" d="m390.82,1.87v53.86h-13.39v-16.2h-23.04v16.2h-13.47V1.87h13.47v24.19h23.04V1.87h13.39Z"/>
        <path class="cls-2" d="m449.71,15.26h-20.23v40.47h-13.46V15.26h-20.23V1.8h53.93v13.46Z"/>
        <path class="cls-2" d="m487.66,35.5h-13.47v-13.47h13.47v13.47Zm0,20.23h-13.47v-13.46h13.47v13.46Z"/>
      </g>
    </g>
  </g>
</svg>