<?xml version="1.0" encoding="UTF-8"?>
<svg id="Layer_2" data-name="Layer 2" xmlns="http://www.w3.org/2000/svg" viewBox="0 0 1931.26 241.87">
  <defs>
    <style>
      .cls-1 {
        fill: none;
      }

      .cls-1, .cls-2 {
        stroke-width: 0px;
      }

      .cls-2 {
        fill: #f5df4d;
      }
    </style>
  </defs>
  <g id="Opening_doors" data-name="Opening doors">
    <g>
      <rect class="cls-1" x="0" width="1931.26" height="238.07"/>
      <g>
        <path class="cls-2" d="m37.4,120.27v18.8h93.6v37.4H37.4v18.6h93.6v37.6H0V82.87h131v37.4H37.4Z"/>
        <path class="cls-2" d="m285.47,82.47l-75.6,159.4-75.8-159.4h41.6l34.2,74.6,34-74.6h41.6Z"/>
        <path class="cls-2" d="m327.07,120.27v18.8h72.6v37.4h-72.6v18.6h93.6v37.6h-131V82.87h131v37.4h-93.6Z"/>
        <path class="cls-2" d="m575.67,83.07v149.6h-38.2l-62.4-91.2v91.2h-38.4V83.07h38.4l62.4,95.4v-95.4h38.2Z"/>
        <path class="cls-2" d="m739.46,120.27h-56.2v112.4h-37.4v-112.4h-56.2v-37.4h149.8v37.4Z"/>
        <path class="cls-2" d="m946.67,139.07c0,30.8-25.4,56.2-56.2,56.2h-37.4v37.4h-37.4V83.07h74.8c30.8,0,56.2,25.2,56.2,56Zm-37.4,0c0-10.2-8.6-18.6-18.8-18.6h-37.4v37.4h37.4c10.2,0,18.8-8.6,18.8-18.8Z"/>
        <path class="cls-2" d="m1115.06,157.87c0,44-36,80.2-80,80.2s-80.2-36-80.2-80.2,36.2-80,80.2-80,80,36,80,80Zm-36.4,0c0-24-19.6-43.6-43.6-43.6s-43.8,19.6-43.8,43.6,19.8,43.8,43.8,43.8,43.6-19.8,43.6-43.8Z"/>
        <path class="cls-2" d="m1168.6,139.07h37.4c25.6,0,46.8,21.2,46.8,46.8s-21.2,46.8-46.8,46.8h-75.2v-37.4h75.2c5.2,0,9.2-4.4,9.2-9.4s-4-9.4-9.2-9.4h-37.4c-25.8,0-47-21-47-46.8s21.2-46.8,47-46.8h75.2v37.4h-75.2c-5.2,0-9.4,4.2-9.4,9.4s4.2,9.4,9.4,9.4Z"/>
        <path class="cls-2" d="m1402.6,120.27h-56.2v112.4h-37.4v-112.4h-56.2v-37.4h149.8v37.4Z"/>
        <path class="cls-2" d="m1453.6,120.27v18.8h72.6v37.4h-72.6v18.6h93.6v37.6h-131V82.87h131v37.4h-93.6Z"/>
        <path class="cls-2" d="m1701.79,232.67h-45.6l-39.2-56.2h-16.4v56.2h-37.4V82.87h90.8c25.8,0,46.8,21.2,46.8,47,0,22.6-16.4,42.2-38.6,46l39.6,56.8Zm-38.4-102.8c0-5.2-4.2-9.4-9.4-9.4h-53.4v18.6h53.4c5,0,9.4-4.2,9.4-9.2Z"/>
        <path class="cls-2" d="m1757.79,139.07h37.4c25.6,0,46.8,21.2,46.8,46.8s-21.2,46.8-46.8,46.8h-75.2v-37.4h75.2c5.2,0,9.2-4.4,9.2-9.4s-4-9.4-9.2-9.4h-37.4c-25.8,0-47-21-47-46.8s21.2-46.8,47-46.8h75.2v37.4h-75.2c-5.2,0-9.4,4.2-9.4,9.4s4.2,9.4,9.4,9.4Z"/>
      </g>
      <g>
        <path class="cls-2" d="m13.47,15.26v9h20.23v13.46H13.47v18H0V1.8h47.16v13.46H13.47Z"/>
        <path class="cls-2" d="m97.64,1.73v32.12c0,13.03-10.51,23.62-23.55,23.62s-23.62-10.59-23.62-23.62V1.73h13.46v32.12c0,5.62,4.54,10.15,10.15,10.15s10.08-4.61,10.08-10.15V1.73h13.47Z"/>
        <path class="cls-2" d="m144.94,42.27v13.46h-40.47V1.8h13.54v40.47h26.93Z"/>
        <path class="cls-2" d="m198.44,38.88c0,9.29-7.56,16.85-16.85,16.85h-32.69V1.8h24.27c9.22,0,16.85,7.63,16.85,16.85,0,1.73-.29,3.53-.79,5.19,5.62,2.88,9.22,8.78,9.22,15.05Zm-36.08-16.85h10.8c1.87,0,3.38-1.51,3.38-3.38s-1.51-3.38-3.38-3.38h-10.8v6.77Zm22.61,16.85c0-1.87-1.51-3.38-3.38-3.38h-19.23v6.77h19.23c1.87,0,3.38-1.51,3.38-3.38Z"/>
        <path class="cls-2" d="m253.95,55.73h-16.42l-14.11-20.23h-5.9v20.23h-13.47V1.8h32.69c9.29,0,16.85,7.63,16.85,16.92,0,8.14-5.9,15.19-13.9,16.56l14.26,20.45Zm-13.83-37.01c0-1.87-1.51-3.38-3.38-3.38h-19.23v6.7h19.23c1.8,0,3.38-1.51,3.38-3.31Z"/>
        <path class="cls-2" d="m273.82,55.73h-13.47V1.8h13.47v53.93Z"/>
        <path class="cls-2" d="m306.5,28.8h28.37v11.88c-4.68,10.3-14.98,16.92-26.28,16.92-15.91,0-28.8-12.89-28.8-28.8S292.68,0,308.59,0c11.52,0,22.03,6.98,26.57,17.57l-12.03,5.11c-2.52-5.83-8.21-9.65-14.54-9.65-8.64,0-15.77,7.13-15.77,15.77s7.13,15.77,15.77,15.77c6.05,0,11.59-3.6,14.19-9h-16.27v-6.77Z"/>
        <path class="cls-2" d="m390.82,1.87v53.86h-13.39v-16.2h-23.04v16.2h-13.47V1.87h13.47v24.19h23.04V1.87h13.39Z"/>
        <path class="cls-2" d="m449.71,15.26h-20.23v40.47h-13.46V15.26h-20.23V1.8h53.93v13.46Z"/>
        <path class="cls-2" d="m487.66,35.5h-13.47v-13.46h13.47v13.46Zm0,20.23h-13.47v-13.46h13.47v13.46Z"/>
      </g>
    </g>
  </g>
</svg>