<?xml version="1.0" encoding="UTF-8"?>
<svg id="Layer_2" data-name="Layer 2" xmlns="http://www.w3.org/2000/svg" viewBox="0 0 1205.06 272.79">
  <defs>
    <style>
      .cls-1 {
        fill: none;
      }

      .cls-1, .cls-2, .cls-3 {
        stroke-width: 0px;
      }

      .cls-3 {
        fill: #f5df4d;
      }
    </style>
  </defs>
  <g id="Opening_doors" data-name="Opening doors">
    <g>
      <g>
        <path class="cls-3" d="M174.8,137.04c0,41.2-33.8,74.8-75,74.8H25v-63.8H0v-18.8h25V62.05h74.8c41.4,0,75,33.6,75,75ZM137.4,137.04c0-20.8-16.8-37.6-37.6-37.6h-37.4v29.8h42.8v18.8h-42.8v26.4h37.4c20.6,0,37.6-16.8,37.6-37.4Z"/>
        <path class="cls-3" d="M352.8,45.85l-2.2,9.2-86.6-19.8-86.8,19.8-2-9.2,88.8-20.2,88.8,20.2ZM344,137.04c0,44-36,80.2-80,80.2s-80.2-36-80.2-80.2,36.2-80,80.2-80,80,36,80,80ZM307.6,137.04c0-24-19.6-43.6-43.6-43.6s-43.8,19.6-43.8,43.6,19.8,43.8,43.8,43.8,43.6-19.8,43.6-43.8ZM263,10.85c-12,0-24.2,4.4-34.6,10.2l-5.2-9.2c11.8-6.6,25.6-11.4,39.4-11.4,26.2,0,49.6,16,75.8,16,12,0,24-4.2,34.4-10l5.2,9c-12.2,6.8-26,11.4-40.2,11.4-25.8,0-49.2-16-74.8-16Z"/>
        <path class="cls-3" d="M527.6,137.19c0,41.2-33.8,74.8-75,74.8h-74.8v-63.8h-25v-18.8h25V62.2h74.8c41.4,0,75,33.6,75,75ZM490.2,137.19c0-20.8-16.8-37.6-37.6-37.6h-37.4v29.8h42.8v18.8h-42.8v26.4h37.4c20.6,0,37.6-16.8,37.6-37.4Z"/>
        <path class="cls-3" d="M874.66,61.84v89.2c0,36.2-29.2,65.6-65.4,65.6s-65.6-29.4-65.6-65.6V61.84h37.4v89.2c0,15.6,12.6,28.2,28.2,28.2s28-12.8,28-28.2V61.84h37.4Z"/>
        <path class="cls-3" d="M1058.26,49.45l-2.2,9.2-86.6-19.8-86.8,19.8-2-9.2,88.8-20.2,88.8,20.2ZM1003.26,191.64h-67.6l-8.4,20.2h-40.6l62.4-149.8h40.8l62.4,149.8h-40.4l-8.6-20.2ZM987.86,154.64l-18.4-43.8-18.4,43.8h36.8Z"/>
        <path class="cls-3" d="M1205.06,62.24v149.6h-38.2l-62.4-91.2v91.2h-38.4V62.24h38.4l62.4,95.4V62.24h38.2Z"/>
        <g>
          <path class="cls-3" d="M659.91,86.24c-.11-.61-.25-1.38-.41-2.3-.15-.91-.28-1.75-.4-2.52-.38.74-.78,1.49-1.19,2.24s-.81,1.48-1.21,2.18l-2.68,4.55,6.94,1.17-1.05-5.32ZM659.91,86.24c-.11-.61-.25-1.38-.41-2.3-.15-.91-.28-1.75-.4-2.52-.38.74-.78,1.49-1.19,2.24s-.81,1.48-1.21,2.18l-2.68,4.55,6.94,1.17-1.05-5.32ZM618.23,102.65c.23-1.06.21-2.16-.07-3.29-.28-1.12-.81-2.2-1.6-3.22-.91-1.18-1.97-2.05-3.19-2.59-1.21-.55-2.45-.75-3.73-.62-1.27.13-2.46.62-3.57,1.48-1.11.86-1.89,1.89-2.34,3.08-.45,1.2-.57,2.45-.34,3.76.23,1.3.8,2.55,1.71,3.73.92,1.2,1.99,2.07,3.19,2.63,1.21.55,2.45.75,3.71.61,1.27-.14,2.46-.63,3.57-1.49.78-.6,1.4-1.29,1.89-2.09l-4.96-1.35.68-2.02,5.05,1.38ZM659.91,86.24c-.11-.61-.25-1.38-.41-2.3-.15-.91-.28-1.75-.4-2.52-.38.74-.78,1.49-1.19,2.24s-.81,1.48-1.21,2.18l-2.68,4.55,6.94,1.17-1.05-5.32ZM618.23,102.65c.23-1.06.21-2.16-.07-3.29-.28-1.12-.81-2.2-1.6-3.22-.91-1.18-1.97-2.05-3.19-2.59-1.21-.55-2.45-.75-3.73-.62-1.27.13-2.46.62-3.57,1.48-1.11.86-1.89,1.89-2.34,3.08-.45,1.2-.57,2.45-.34,3.76.23,1.3.8,2.55,1.71,3.73.92,1.2,1.99,2.07,3.19,2.63,1.21.55,2.45.75,3.71.61,1.27-.14,2.46-.63,3.57-1.49.78-.6,1.4-1.29,1.89-2.09l-4.96-1.35.68-2.02,5.05,1.38ZM659.91,86.24c-.11-.61-.25-1.38-.41-2.3-.15-.91-.28-1.75-.4-2.52-.38.74-.78,1.49-1.19,2.24s-.81,1.48-1.21,2.18l-2.68,4.55,6.94,1.17-1.05-5.32ZM726.6,123.54c-7.09-43.59-48.16-73.17-91.75-66.08-43.58,7.09-73.17,48.16-66.08,91.75,7.09,43.58,48.17,73.17,91.75,66.08,43.58-7.09,73.17-48.17,66.08-91.75ZM679.66,85.39l1.66,1.1,1.31,20.11c.27-.48.61-1.05,1-1.71.39-.66.8-1.34,1.25-2.05.44-.7.87-1.39,1.3-2.07.44-.67.83-1.28,1.19-1.82l3.9-5.92,1.82,1.2-10.65,16.19-1.69-1.11-1.41-20.02c-.54.97-1.07,1.88-1.58,2.74-.51.85-.95,1.59-1.33,2.19-.37.6-.63,1-.76,1.21l-4.84,7.35-1.83-1.21,10.66-16.18ZM658.35,79.05l2.43.41,4.04,20.33-2.35-.4-1.08-5.6-8.51-1.43-2.89,4.93-2.2-.37,10.56-17.87ZM647.69,112.46c.33.16.47.56.31.89l-9.58,19.8,8.47,6.05c.3.21.37.63.15.94-.13.18-.34.28-.55.28-.13,0-.27-.04-.38-.13l-8.93-6.38c-.27-.19-.36-.54-.22-.83l9.83-20.31c.16-.33.57-.47.9-.31ZM626.78,81.21l2.61,11.42c.24,1.08.7,1.98,1.36,2.71.65.73,1.44,1.25,2.34,1.56.9.3,1.85.34,2.84.11,1.02-.23,1.89-.68,2.6-1.36.71-.67,1.2-1.48,1.49-2.42.28-.95.3-1.96.05-3.04l-2.6-11.42,2.05-.46,2.66,11.66c.33,1.43.3,2.79-.09,4.05-.4,1.26-1.08,2.34-2.06,3.24-.98.89-2.19,1.5-3.63,1.83-1.42.32-2.76.3-4.02-.09-1.26-.38-2.34-1.06-3.24-2.03-.89-.97-1.5-2.17-1.83-3.61l-2.66-11.66,2.13-.49ZM601.09,99.11c.13-1.23.5-2.4,1.11-3.5.62-1.1,1.47-2.08,2.55-2.91,1.08-.83,2.23-1.41,3.46-1.72,1.22-.32,2.45-.38,3.68-.2,1.22.18,2.39.61,3.5,1.28s2.1,1.57,2.97,2.69c1.02,1.32,1.69,2.71,2.02,4.18.33,1.47.33,2.9-.01,4.27l4.04,1.08-.6,2.07-4.2-1.13c-.64,1.24-1.55,2.31-2.72,3.22-1.08.83-2.23,1.41-3.45,1.73-1.22.33-2.44.39-3.66.2-1.22-.19-2.38-.62-3.49-1.29-1.11-.67-2.11-1.57-2.99-2.71-.87-1.13-1.48-2.31-1.85-3.56-.37-1.24-.48-2.48-.36-3.7ZM707.2,147.91c0,1.23-.05,2.48-.13,3.71l-.03.4c-.01.14-.02.28-.04.45-.01.12-.02.25-.03.37v.1c-.04.32-.07.64-.11.97-.02.24-.05.49-.08.73v.07c-.03.26-.07.53-.11.8-.03.24-.06.48-.1.73-.02.16-.05.32-.08.51-.02.14-.04.27-.07.42-.12.75-.27,1.54-.43,2.33-.06.3-.13.6-.2.9-.11.51-.22.98-.34,1.43l-.14.54c-.25.94-.52,1.85-.8,2.72-.06.18-.12.37-.18.56-.16.45-.33.94-.57,1.59-.06.16-.12.32-.18.48l-.04.11c-.08.19-.16.39-.24.59-.16.4-.33.79-.51,1.2-.05.13-.1.26-.17.4-.04.1-.09.19-.13.29l-.05.11c-.12.26-.24.53-.37.8-.24.49-.5,1.01-.8,1.59-.13.26-.27.52-.42.78-.12.23-.25.45-.38.68-.05.1-.11.2-.17.3-.14.24-.28.48-.42.71-.15.24-.3.48-.45.73-.08.13-.16.25-.24.38l-.27.4c-.17.27-.34.53-.52.78-.18.26-.37.53-.56.79-.22.31-.44.61-.67.92l-.36.46c-.11.15-.23.29-.35.44-.11.14-.21.27-.32.4l-.05.06c-.07.09-.15.18-.23.27l-.14.17c-.13.16-.25.3-.38.45-.51.59-1.05,1.19-1.61,1.77-.29.3-.57.6-.86.87-.14.14-.28.28-.44.43-.3.3-.61.58-.92.87l-.28.25c-.22.21-.46.41-.69.61-.02,0-.03.02-.04.04-.04.03-.07.06-.1.09l-.05.03c-.24.21-.49.42-.74.63-.15.12-.31.25-.47.38l-.04.03c-.16.13-.33.26-.51.4-.17.14-.34.27-.53.41-.06.04-.12.09-.17.13l-.1.07s-.05.05-.08.07c-.02.01-.04.02-.05.03-.12.09-.25.19-.4.29-.11.09-.24.18-.37.27-.14.1-.29.21-.44.31-.23.16-.45.32-.7.48-.14.1-.28.19-.42.28-.01,0-.02.02-.04.02-.08.07-.17.12-.27.19l-.26.16c-.14.09-.29.19-.45.29l-.16.1c-.44.28-.9.55-1.35.81-.15.09-.31.18-.47.27,0,0-.02.02-.03.02l-.03.02c-.17.09-.35.19-.53.3-.11.06-.21.11-.34.18-.13.07-.26.15-.39.21-.02.01-.05.03-.06.04-.02.01-.04.02-.08.04-.32.17-.65.34-.98.51-.23.12-.46.23-.71.35-.16.08-.32.16-.5.24-.52.26-1,.48-1.5.7-.09.04-.18.08-.28.12-.57.26-1.1.49-1.64.7-.2.09-.41.17-.63.26-.19.07-.38.15-.58.23-.27.1-.54.21-.82.31-.03.01-.06.02-.09.04-.21.07-.41.14-.65.23-.44.16-.88.31-1.34.47l-.41.13c-.58.19-1.17.38-1.77.56-.17.06-.34.11-.53.17-.28.07-.56.16-.83.24l-.28.08c-.91.25-1.67.45-2.41.63-.61.15-1.27.31-2,.47-.22.05-.43.1-.66.15-.52.11-1.05.22-1.59.32-.26.05-.52.1-.79.15h-.04s-.03.02-.04.02c-.02,0-.05,0-.07,0-.31.06-.61.11-.92.17-.44.08-.89.15-1.34.23-.91.14-1.74.27-2.54.38-.36.05-.72.1-1.09.14-.36.04-.72.09-1.08.13l-.61.06c-.27.03-.55.06-.83.09-.11,0-.22,0-.33.03h-.03c-.65.06-1.34.12-2.11.17-.38.02-.76.05-1.13.07-.38.01-.76.03-1.15.04-.38.02-.75.03-1.12.04-.71.02-1.43.02-2.21.02-.65-.01-1.36-.02-2.15-.05-.81-.04-1.48-.07-2.08-.11-.69-.05-1.37-.11-2.03-.18-.32-.03-.66-.07-.98-.11-.52-.06-1.08-.13-1.72-.22-.23-.04-.45-.07-.69-.11-.32-.05-.65-.11-.98-.17-.25-.04-.51-.09-.77-.14-.25-.05-.49-.1-.75-.16-.21-.03-.41-.08-.64-.13l-.32-.07c-1.1-.25-2.22-.54-3.32-.87-.24-.07-.48-.14-.72-.22-.26-.08-.51-.16-.78-.25-.28-.1-.56-.19-.84-.29-.43-.16-.85-.31-1.26-.47-.05-.02-.08-.03-.13-.05-.28-.11-.56-.22-.85-.34-.32-.13-.64-.27-.96-.41-.3-.13-.6-.26-.89-.41-.31-.14-.61-.28-.91-.43-.13-.06-.26-.12-.39-.19-.97-.49-1.94-1.03-2.88-1.59-.22-.13-.42-.26-.63-.39-.21-.13-.41-.25-.62-.39-.01-.01-.03-.02-.05-.03-.01,0-.03-.02-.05-.03-.08-.05-.16-.1-.25-.17-.29-.18-.56-.37-.84-.57-.23-.16-.46-.32-.69-.48-.34-.25-.67-.49-1-.75-.14-.1-.27-.21-.42-.33-.56-.43-1.11-.89-1.69-1.4-.16-.13-.31-.27-.48-.42-.2-.18-.4-.36-.6-.54-.14-.13-.27-.26-.4-.39-.33-.31-.66-.63-.97-.95-.21-.21-.42-.43-.63-.65-.21-.22-.42-.45-.63-.67,0-.01-.02-.03-.02-.03-.07-.07-.13-.14-.2-.22-.05-.05-.1-.11-.15-.16l-.07-.08c-.14-.15-.27-.31-.41-.47-.28-.32-.55-.64-.8-.96l-.25-.3c-.15-.18-.29-.36-.44-.56-.15-.19-.3-.38-.44-.57-.15-.19-.29-.38-.43-.58-.13-.17-.26-.35-.38-.52-.28-.38-.55-.78-.84-1.22-.12-.16-.23-.33-.34-.51-.37-.56-.75-1.16-1.12-1.79-.12-.19-.23-.38-.34-.57-.26-.44-.52-.92-.81-1.45-.1-.18-.19-.36-.29-.55-.1-.17-.19-.35-.28-.53-.34-.66-.66-1.32-.95-1.95l-.06-.13c-.08-.17-.16-.34-.23-.51-.12-.27-.24-.54-.35-.8-.13-.29-.25-.58-.37-.88l-.15-.36-.04-.11c-.22-.55-.41-1.04-.58-1.51l-.15-.4c-.11-.3-.21-.59-.31-.89-.08-.22-.15-.44-.22-.65l-.09-.28c-.07-.22-.14-.43-.21-.64-.01-.05-.02-.09-.04-.14l-.05-.17c-.05-.16-.09-.31-.14-.46-.03-.12-.07-.25-.1-.36l-.03-.1c-.04-.12-.07-.24-.1-.37-.12-.39-.22-.78-.31-1.17-.03-.09-.06-.19-.08-.29l-.04-.15c-.06-.26-.12-.5-.17-.75-.05-.23-.1-.45-.15-.66,0-.02,0-.04,0-.05v-.04l-.04-.14c-.01-.07-.02-.14-.04-.19l-.03-.18s-.01-.06-.02-.09v-.07c-.05-.19-.08-.35-.1-.5l113.41-18.45c.02.17.05.37.07.59.03.3.06.66.09,1.06.01.14.02.3.04.45v.2c.01.09.02.19.03.29.01.25.02.52.04.8.03.69.04,1.45.04,2.29.01.09.01.18,0,.29ZM659.91,86.24c-.11-.61-.25-1.38-.41-2.3-.15-.91-.28-1.75-.4-2.52-.38.74-.78,1.49-1.19,2.24s-.81,1.48-1.21,2.18l-2.68,4.55,6.94,1.17-1.05-5.32ZM605.1,104.98c.92,1.2,1.99,2.07,3.19,2.63,1.21.55,2.45.75,3.71.61,1.27-.14,2.46-.63,3.57-1.49.78-.6,1.4-1.29,1.89-2.09l-4.96-1.35.68-2.02,5.05,1.38c.23-1.06.21-2.16-.07-3.29-.28-1.12-.81-2.2-1.6-3.22-.91-1.18-1.97-2.05-3.19-2.59-1.21-.55-2.45-.75-3.73-.62-1.27.13-2.46.62-3.57,1.48-1.11.86-1.89,1.89-2.34,3.08-.45,1.2-.57,2.45-.34,3.76.23,1.3.8,2.55,1.71,3.73ZM659.91,86.24c-.11-.61-.25-1.38-.41-2.3-.15-.91-.28-1.75-.4-2.52-.38.74-.78,1.49-1.19,2.24s-.81,1.48-1.21,2.18l-2.68,4.55,6.94,1.17-1.05-5.32ZM659.91,86.24c-.11-.61-.25-1.38-.41-2.3-.15-.91-.28-1.75-.4-2.52-.38.74-.78,1.49-1.19,2.24s-.81,1.48-1.21,2.18l-2.68,4.55,6.94,1.17-1.05-5.32Z"/>
          <path class="cls-2" d="M620.37,103.2c.34-1.37.34-2.8.01-4.27-.33-1.47-1-2.86-2.02-4.18-.87-1.12-1.86-2.02-2.97-2.69s-2.28-1.1-3.5-1.28c-1.23-.18-2.46-.12-3.68.2-1.23.31-2.38.89-3.46,1.72-1.08.83-1.93,1.81-2.55,2.91-.61,1.1-.98,2.27-1.11,3.5-.12,1.22-.01,2.46.36,3.7.37,1.25.98,2.43,1.85,3.56.88,1.14,1.88,2.04,2.99,2.71,1.11.67,2.27,1.1,3.49,1.29,1.22.19,2.44.13,3.66-.2,1.22-.32,2.37-.9,3.45-1.73,1.17-.91,2.08-1.98,2.72-3.22l4.2,1.13.6-2.07-4.04-1.08ZM618.23,102.65l-5.05-1.38-.68,2.02,4.96,1.35c-.49.8-1.11,1.49-1.89,2.09-1.11.86-2.3,1.35-3.57,1.49-1.26.14-2.5-.06-3.71-.61-1.2-.56-2.27-1.43-3.19-2.63-.91-1.18-1.48-2.43-1.71-3.73-.23-1.31-.11-2.56.34-3.76.45-1.19,1.23-2.22,2.34-3.08,1.11-.86,2.3-1.35,3.57-1.48,1.28-.13,2.52.07,3.73.62,1.22.54,2.28,1.41,3.19,2.59.79,1.02,1.32,2.1,1.6,3.22.28,1.13.3,2.23.07,3.29Z"/>
          <path class="cls-2" d="M642.09,94.02c-.4,1.26-1.08,2.34-2.06,3.24-.98.89-2.19,1.5-3.63,1.83-1.42.32-2.76.3-4.02-.09-1.26-.38-2.34-1.06-3.24-2.03-.89-.97-1.5-2.17-1.83-3.61l-2.66-11.66,2.13-.49,2.61,11.42c.24,1.08.7,1.98,1.36,2.71.65.73,1.44,1.25,2.34,1.56.9.3,1.85.34,2.84.11,1.02-.23,1.89-.68,2.6-1.36.71-.67,1.2-1.48,1.49-2.42.28-.95.3-1.96.05-3.04l-2.6-11.42,2.05-.46,2.66,11.66c.33,1.43.3,2.79-.09,4.05Z"/>
          <path class="cls-2" d="M660.78,79.46l-2.43-.41-10.56,17.87,2.2.37,2.89-4.93,8.51,1.43,1.08,5.6,2.35.4-4.04-20.33ZM654.02,90.39l2.68-4.55c.4-.7.8-1.43,1.21-2.18s.81-1.5,1.19-2.24c.12.77.25,1.61.4,2.52.16.92.3,1.69.41,2.3l1.05,5.32-6.94-1.17Z"/>
          <path class="cls-2" d="M693.09,94.23l-10.65,16.19-1.69-1.11-1.41-20.02c-.54.97-1.07,1.88-1.58,2.74-.51.85-.95,1.59-1.33,2.19-.37.6-.63,1-.76,1.21l-4.84,7.35-1.83-1.21,10.66-16.18,1.66,1.1,1.31,20.11c.27-.48.61-1.05,1-1.71.39-.66.8-1.34,1.25-2.05.44-.7.87-1.39,1.3-2.07.44-.67.83-1.28,1.19-1.82l3.9-5.92,1.82,1.2Z"/>
          <path class="cls-2" d="M648,113.35l-9.58,19.8,8.47,6.05c.3.21.37.63.15.94-.13.18-.34.28-.55.28-.13,0-.27-.04-.38-.13l-8.93-6.38c-.27-.19-.36-.54-.22-.83l9.83-20.31c.16-.33.57-.47.9-.31s.47.56.31.89Z"/>
        </g>
        <polygon class="cls-3" points="722.73 234.07 722.73 252.87 531.66 226.64 531.66 174.49 558.3 174.49 558.3 211.32 722.73 234.07"/>
      </g>
      <rect class="cls-1" width="1205.06" height="272.79"/>
    </g>
  </g>
</svg>