<?xml version="1.0" encoding="UTF-8"?>
<svg id="Layer_2" data-name="Layer 2" xmlns="http://www.w3.org/2000/svg" viewBox="0 0 1931.26 419.47">
  <defs>
    <style>
      .cls-1 {
        fill: none;
      }

      .cls-1, .cls-2 {
        stroke-width: 0px;
      }

      .cls-2 {
        fill: #f5df4d;
      }
    </style>
  </defs>
  <g id="Opening_doors" data-name="Opening doors">
    <g>
      <rect class="cls-1" x="0" width="1931.26" height="419.47"/>
      <g>
        <path class="cls-2" d="m116.6,212.62H49l-8.4,20.2H0L62.4,83.02h40.8l62.4,149.8h-40.4l-8.6-20.2Zm-15.4-37l-18.4-43.8-18.4,43.8h36.8Z"/>
        <path class="cls-2" d="m318,232.82h-45.6l-39.2-56.2h-16.4v56.2h-37.4V83.02h90.8c25.8,0,46.8,21.2,46.8,47,0,22.6-16.4,42.2-38.6,46l39.6,56.8Zm-38.4-102.8c0-5.2-4.2-9.4-9.4-9.4h-53.4v18.6h53.4c5,0,9.4-4.2,9.4-9.2Z"/>
        <path class="cls-2" d="m478.79,120.42h-56.2v112.4h-37.4v-112.4h-56.2v-37.4h149.8v37.4Z"/>
        <path class="cls-2" d="m705.79,83.02l-75.6,159.4-34.4-74.6-34.2,74.6-75.6-159.4h41.6l34,74.6,13.4-32.4-20.6-42.2h41.6l34.2,74.6,34-74.6h41.6Z"/>
        <path class="cls-2" d="m875.79,158.02c0,44-36,80.2-80,80.2s-80.2-36-80.2-80.2,36.2-80,80.2-80,80,36,80,80Zm-36.4,0c0-24-19.6-43.6-43.6-43.6s-43.8,19.6-43.8,43.6,19.8,43.8,43.8,43.8,43.6-19.8,43.6-43.8Z"/>
        <path class="cls-2" d="m1030.79,232.82h-45.6l-39.2-56.2h-16.4v56.2h-37.4V83.02h90.8c25.8,0,46.8,21.2,46.8,47,0,22.6-16.4,42.2-38.6,46l39.6,56.8Zm-38.4-102.8c0-5.2-4.2-9.4-9.4-9.4h-53.4v18.6h53.4c5,0,9.4-4.2,9.4-9.2Z"/>
        <path class="cls-2" d="m1185.99,232.82h-41.2l-45-64.6-13.6,15v49.6h-37.4V83.22h37.4v50.4l49.4-51,43,.6-54.8,61.2,62.2,88.4Z"/>
        <path class="cls-2" d="m1238.89,139.22h37.4c25.6,0,46.8,21.2,46.8,46.8s-21.2,46.8-46.8,46.8h-75.2v-37.4h75.2c5.2,0,9.2-4.4,9.2-9.4s-4-9.4-9.2-9.4h-37.4c-25.8,0-47-21-47-46.8s21.2-46.8,47-46.8h75.2v37.4h-75.2c-5.2,0-9.4,4.2-9.4,9.4s4.2,9.4,9.4,9.4Z"/>
        <path class="cls-2" d="m155.2,371.87c-13,28.4-41.6,47-72.8,47-44.2,0-80-35.8-80-80s35.8-80,80-80c31.8,0,61.2,19.4,73.6,48.8l-33.4,14.2c-6.8-16-22.8-26.8-40.2-26.8-24,0-43.8,19.8-43.8,43.8s19.8,43.8,43.8,43.8c17,0,32.6-10.4,39.8-25.8l33,15Z"/>
        <path class="cls-2" d="m326.79,339.27c0,44-36,80.2-80,80.2s-80.2-36-80.2-80.2,36.2-80,80.2-80,80,36,80,80Zm-36.4,0c0-24-19.6-43.6-43.6-43.6s-43.8,19.6-43.8,43.6,19.8,43.8,43.8,43.8,43.6-19.8,43.6-43.8Z"/>
        <path class="cls-2" d="m455.59,376.67v37.4h-112.4v-149.8h37.6v112.4h74.8Z"/>
        <path class="cls-2" d="m579.19,376.67v37.4h-112.4v-149.8h37.6v112.4h74.8Z"/>
        <path class="cls-2" d="m627.59,301.67v18.8h72.6v37.4h-72.6v18.6h93.6v37.6h-131v-149.8h131v37.4h-93.6Z"/>
        <path class="cls-2" d="m885.39,371.87c-13,28.4-41.6,47-72.8,47-44.2,0-80-35.8-80-80s35.8-80,80-80c31.8,0,61.2,19.4,73.6,48.8l-33.4,14.2c-6.8-16-22.8-26.8-40.2-26.8-24,0-43.8,19.8-43.8,43.8s19.8,43.8,43.8,43.8c17,0,32.6-10.4,39.8-25.8l33,15Z"/>
        <path class="cls-2" d="m1043.99,301.67h-56.2v112.4h-37.4v-112.4h-56.2v-37.4h149.8v37.4Z"/>
        <path class="cls-2" d="m1094.99,414.07h-37.4v-149.8h37.4v149.8Z"/>
        <path class="cls-2" d="m1271.99,339.27c0,44-36,80.2-80,80.2s-80.2-36-80.2-80.2,36.2-80,80.2-80,80,36,80,80Zm-36.4,0c0-24-19.6-43.6-43.6-43.6s-43.8,19.6-43.8,43.6,19.8,43.8,43.8,43.8,43.6-19.8,43.6-43.8Z"/>
        <path class="cls-2" d="m1427.38,264.47v149.6h-38.2l-62.4-91.2v91.2h-38.4v-149.6h38.4l62.4,95.4v-95.4h38.2Z"/>
      </g>
      <g>
        <path class="cls-2" d="m49.9,2.02v53.86h-13.39v-16.2H13.47v16.2H0V2.02h13.47v24.19h23.04V2.02h13.39Z"/>
        <path class="cls-2" d="m70.78,55.88h-13.47V1.94h13.47v53.93Z"/>
        <path class="cls-2" d="m103.47,28.95h28.37v11.88c-4.68,10.3-14.98,16.92-26.28,16.92-15.91,0-28.8-12.89-28.8-28.8S89.64.14,105.55.14c11.52,0,22.03,6.98,26.57,17.57l-12.03,5.11c-2.52-5.83-8.21-9.65-14.54-9.65-8.64,0-15.77,7.13-15.77,15.77s7.13,15.77,15.77,15.77c6.05,0,11.59-3.6,14.19-9h-16.27v-6.77Z"/>
        <path class="cls-2" d="m187.78,2.02v53.86h-13.39v-16.2h-23.04v16.2h-13.47V2.02h13.47v24.19h23.04V2.02h13.39Z"/>
        <path class="cls-2" d="m245.16,22.18h13.47c9.22,0,16.85,7.63,16.85,16.85s-7.63,16.85-16.85,16.85h-27.07v-13.46h27.07c1.87,0,3.31-1.58,3.31-3.38s-1.44-3.38-3.31-3.38h-13.47c-9.29,0-16.92-7.56-16.92-16.85s7.63-16.85,16.92-16.85h27.07v13.46h-27.07c-1.87,0-3.38,1.51-3.38,3.38s1.51,3.38,3.38,3.38Z"/>
        <path class="cls-2" d="m335.77,40.68c-4.68,10.22-14.98,16.92-26.21,16.92-15.91,0-28.8-12.89-28.8-28.8S293.65,0,309.56,0c11.45,0,22.03,6.98,26.5,17.57l-12.02,5.11c-2.45-5.76-8.21-9.65-14.47-9.65-8.64,0-15.77,7.13-15.77,15.77s7.13,15.77,15.77,15.77c6.12,0,11.74-3.74,14.33-9.29l11.88,5.4Z"/>
        <path class="cls-2" d="m391.28,2.02v53.86h-13.39v-16.2h-23.04v16.2h-13.47V2.02h13.47v24.19h23.04V2.02h13.39Z"/>
        <path class="cls-2" d="m454.86,28.95c0,15.84-12.96,28.88-28.8,28.88s-28.88-12.96-28.88-28.88S410.21.14,426.05.14s28.8,12.96,28.8,28.8Zm-13.1,0c0-8.64-7.06-15.7-15.7-15.7s-15.77,7.06-15.77,15.7,7.13,15.77,15.77,15.77,15.7-7.13,15.7-15.77Z"/>
        <path class="cls-2" d="m516.85,28.95c0,15.84-12.96,28.88-28.8,28.88s-28.88-12.96-28.88-28.88S472.21.14,488.05.14s28.8,12.96,28.8,28.8Zm-13.1,0c0-8.64-7.06-15.7-15.7-15.7s-15.77,7.06-15.77,15.7,7.13,15.77,15.77,15.77,15.7-7.13,15.7-15.77Z"/>
        <path class="cls-2" d="m563.21,42.41v13.46h-40.47V1.94h13.54v40.47h26.93Z"/>
        <path class="cls-2" d="m600.22,35.64h-13.47v-13.47h13.47v13.47Zm0,20.23h-13.47v-13.46h13.47v13.46Z"/>
      </g>
    </g>
  </g>
</svg>