<?xml version="1.0" encoding="UTF-8"?>
<svg id="Layer_2" data-name="Layer 2" xmlns="http://www.w3.org/2000/svg" viewBox="0 0 1438.09 419.47">
  <defs>
    <style>
      .cls-1 {
        fill: none;
      }

      .cls-1, .cls-2 {
        stroke-width: 0px;
      }

      .cls-2 {
        fill: #f5df4d;
      }
    </style>
  </defs>
  <g id="Opening_doors" data-name="Opening doors">
    <g>
      <rect class="cls-1" width="1438.09" height="419.47"/>
      <g>
        <path class="cls-2" d="M126.2,195.42v37.4H.2V83.02h37.6v112.4h88.4Z"/>
        <path class="cls-2" d="M246.8,212.62h-67.6l-8.4,20.2h-40.6l62.4-149.8h40.8l62.4,149.8h-40.4l-8.6-20.2ZM231.4,175.62l-18.4-43.8-18.4,43.8h36.8Z"/>
        <path class="cls-2" d="M438.98,83.12v149.6h-38.2l-62.4-91.2v91.2h-38.4V83.12h38.4l62.4,95.4v-95.4h38.2Z"/>
        <path class="cls-2" d="M489.69,120.42v18.8h72.6v37.4h-72.6v18.6h93.6v37.6h-131V83.02h131v37.4h-93.6Z"/>
        <path class="cls-2" d="M149.6,339.07c0,41.4-33.4,75-74.8,75H0v-149.8h74.8c41.2,0,74.8,33.6,74.8,74.8ZM112.2,339.07c0-20.6-16.8-37.4-37.4-37.4h-37.4v75h37.4c20.6,0,37.4-17,37.4-37.6Z"/>
        <path class="cls-2" d="M194.95,301.67v18.8h72.6v37.4h-72.6v18.6h93.6v37.6h-131v-149.8h131v37.4h-93.6Z"/>
        <path class="cls-2" d="M447.38,301.67h-56.2v112.4h-37.4v-112.4h-56.2v-37.4h149.8v37.4Z"/>
        <path class="cls-2" d="M494.69,301.67v18.8h72.6v37.4h-72.6v18.6h93.6v37.6h-131v-149.8h131v37.4h-93.6Z"/>
        <path class="cls-2" d="M744.09,371.87c-13,28.4-41.6,47-72.8,47-44.2,0-80-35.8-80-80s35.8-80,80-80c31.8,0,61.2,19.4,73.6,48.8l-33.4,14.2c-6.8-16-22.8-26.8-40.2-26.8-24,0-43.8,19.8-43.8,43.8s19.8,43.8,43.8,43.8c17,0,32.6-10.4,39.8-25.8l33,15Z"/>
        <path class="cls-2" d="M899.05,301.67h-56.2v112.4h-37.4v-112.4h-56.2v-37.4h149.8v37.4Z"/>
        <path class="cls-2" d="M948.56,414.07h-37.4v-149.8h37.4v149.8Z"/>
        <path class="cls-2" d="M1119.23,339.27c0,44-36,80.2-80,80.2s-80.2-36-80.2-80.2,36.2-80,80.2-80,80,36,80,80ZM1082.83,339.27c0-24-19.6-43.6-43.6-43.6s-43.8,19.6-43.8,43.6,19.8,43.8,43.8,43.8,43.6-19.8,43.6-43.8Z"/>
        <path class="cls-2" d="M1266.86,264.47v149.6h-38.2l-62.4-91.2v91.2h-38.4v-149.6h38.4l62.4,95.4v-95.4h38.2Z"/>
      </g>
      <g>
        <path class="cls-2" d="M55.01,40.68c-4.68,10.22-14.98,16.92-26.21,16.92C12.89,57.61,0,44.72,0,28.8S12.89,0,28.8,0c11.45,0,22.03,6.98,26.5,17.57l-12.02,5.11c-2.45-5.76-8.21-9.65-14.47-9.65-8.64,0-15.77,7.13-15.77,15.77s7.13,15.77,15.77,15.77c6.12,0,11.74-3.74,14.33-9.29l11.88,5.4Z"/>
        <path class="cls-2" d="M116.79,28.95c0,15.84-12.96,28.88-28.8,28.88s-28.88-12.96-28.88-28.88S72.14.14,87.99.14s28.8,12.96,28.8,28.8ZM103.68,28.95c0-8.64-7.06-15.7-15.7-15.7s-15.77,7.06-15.77,15.7,7.13,15.77,15.77,15.77,15.7-7.13,15.7-15.77Z"/>
        <path class="cls-2" d="M182.17,1.94v53.93h-13.47v-30.1l-12.46,13.46h-7.92l-5.18-5.62h-.07l-6.84-7.49v29.74h-13.54V1.94h9.5c6.62,7.27,13.39,14.47,20.09,21.75L172.37,1.94h9.79Z"/>
        <path class="cls-2" d="M236.88,22.18c0,11.09-9.14,20.23-20.23,20.23h-13.46v13.46h-13.47V2.02h26.93c11.09,0,20.23,9.07,20.23,20.16ZM223.42,22.18c0-3.67-3.1-6.7-6.77-6.7h-13.46v13.46h13.46c3.67,0,6.77-3.1,6.77-6.77Z"/>
        <path class="cls-2" d="M287.93,1.87v32.12c0,13.03-10.51,23.62-23.55,23.62s-23.62-10.58-23.62-23.62V1.87h13.46v32.12c0,5.62,4.54,10.15,10.15,10.15s10.08-4.61,10.08-10.15V1.87h13.47Z"/>
        <path class="cls-2" d="M346.18,15.41h-20.23v40.47h-13.46V15.41h-20.23V1.94h53.93v13.46Z"/>
        <path class="cls-2" d="M364.54,15.41v6.77h33.7v13.47h-33.7v6.7h33.7v13.54h-47.16V1.94h47.16v13.46h-33.7Z"/>
        <path class="cls-2" d="M454.18,55.88h-16.42l-14.11-20.23h-5.9v20.23h-13.47V1.94h32.69c9.29,0,16.85,7.63,16.85,16.92,0,8.14-5.9,15.19-13.9,16.56l14.26,20.45ZM440.35,18.87c0-1.87-1.51-3.38-3.38-3.38h-19.23v6.7h19.23c1.8,0,3.38-1.51,3.38-3.31Z"/>
        <path class="cls-2" d="M543.02,1.8l-27.22,57.39L488.52,1.8h14.98l12.31,26.86,12.24-26.86h14.98Z"/>
        <path class="cls-2" d="M560.8,55.88h-13.47V1.94h13.47v53.93Z"/>
        <path class="cls-2" d="M587.37,22.18h13.47c9.22,0,16.85,7.63,16.85,16.85s-7.63,16.85-16.85,16.85h-27.07v-13.46h27.07c1.87,0,3.31-1.58,3.31-3.38s-1.44-3.38-3.31-3.38h-13.47c-9.29,0-16.92-7.56-16.92-16.85s7.63-16.85,16.92-16.85h27.07v13.46h-27.07c-1.87,0-3.38,1.51-3.38,3.38s1.51,3.38,3.38,3.38Z"/>
        <path class="cls-2" d="M642.02,55.88h-13.47V1.94h13.47v53.93Z"/>
        <path class="cls-2" d="M705.74,28.95c0,15.84-12.96,28.88-28.8,28.88s-28.88-12.96-28.88-28.88S661.1.14,676.94.14s28.8,12.96,28.8,28.8ZM692.64,28.95c0-8.64-7.06-15.7-15.7-15.7s-15.77,7.06-15.77,15.7,7.13,15.77,15.77,15.77,15.7-7.13,15.7-15.77Z"/>
        <path class="cls-2" d="M761.69,2.02v53.86h-13.75l-22.47-32.83v32.83h-13.83V2.02h13.83l22.47,34.35V2.02h13.75Z"/>
        <path class="cls-2" d="M802.22,35.64h-13.47v-13.47h13.47v13.47ZM802.22,55.88h-13.47v-13.46h13.47v13.46Z"/>
      </g>
    </g>
  </g>
</svg>