<?xml version="1.0" encoding="UTF-8"?>
<svg id="Layer_2" data-name="Layer 2" xmlns="http://www.w3.org/2000/svg" viewBox="0 0 368.65 368.43">
  <defs>
    <style>
      .cls-1 {
        fill: #f5df4d;
        stroke-width: 0px;
      }
    </style>
  </defs>
  <g id="Layer_15" data-name="Layer 15">
    <g>
      <path class="cls-1" d="M16.85,224.84c-7.3,0-13.71-5.34-14.82-12.79-1.35-9.03-2.03-18.28-2.03-27.48C0,82.8,82.8,0,184.58,0c8.28,0,15,6.72,15,15s-6.72,15-15,15C99.34,30,30,99.34,30,184.58c0,7.72.57,15.48,1.7,23.05,1.22,8.19-4.43,15.83-12.62,17.05-.75.11-1.5.17-2.23.17Z"/>
      <path class="cls-1" d="M190.34,368.43c-8.02,0-14.68-6.35-14.98-14.44-.31-8.28,6.15-15.24,14.43-15.55,30.6-1.15,59.95-11.27,84.88-29.27,25.5-18.41,44.55-43.88,55.09-73.65,12.94-36.54,11.73-76.3-3.41-111.96-3.24-7.63.32-16.43,7.95-19.67,7.63-3.24,16.43.32,19.67,7.95,18.08,42.58,19.52,90.06,4.07,133.69-12.58,35.54-35.34,65.96-65.8,87.96-29.75,21.48-64.78,33.56-101.31,34.93-.19,0-.38.01-.57.01Z"/>
    </g>
  </g>
</svg>