<?xml version="1.0" encoding="UTF-8"?>
<svg id="Layer_2" data-name="Layer 2" xmlns="http://www.w3.org/2000/svg" viewBox="0 0 476.19 476.19">
  <defs>
    <style>
      .cls-1 {
        fill: #f5f5f5;
      }

      .cls-2 {
        fill: #f5df4d;
      }
    </style>
  </defs>
  <g id="Layer_6" data-name="Layer 6">
    <g>
      <circle class="cls-2" cx="238.09" cy="238.09" r="238.09"/>
      <path class="cls-1" d="m411.8,280.49s0,.72-.04,2.05c0,.04,0,.08,0,.12-.02.56-.05,1.23-.1,1.99-.05.94-.12,2.02-.23,3.23-.04.44-.08.9-.12,1.38-.05.47-.09.96-.15,1.47-.08.76-.17,1.56-.27,2.4-.24,2.06-.56,4.32-.96,6.77-.04.31-.09.61-.15.92-.56,3.38-1.28,7.08-2.21,11.04-.09.36-.17.72-.26,1.08-.1.45-.21.91-.33,1.36-.11.46-.23.92-.35,1.39-.24.94-.49,1.89-.76,2.85-.21.77-.43,1.54-.65,2.31-.22.78-.45,1.57-.7,2.36-.21.69-.43,1.39-.65,2.09-.15.5-.31,1-.49,1.5-.13.41-.26.81-.4,1.22-.74,2.22-1.55,4.47-2.43,6.75-.33.85-.67,1.71-1.01,2.57-.55,1.37-1.12,2.74-1.73,4.13-.23.51-.45,1.02-.68,1.53-1.15,2.55-2.38,5.13-3.7,7.72-.27.52-.54,1.04-.82,1.56-.78,1.48-1.6,2.96-2.44,4.45-.31.56-.64,1.11-.97,1.67-.32.55-.65,1.1-.99,1.66-.68,1.11-1.37,2.22-2.08,3.33-.23.37-.47.74-.72,1.11-.24.37-.49.74-.73,1.1-.49.74-.99,1.48-1.5,2.21-1.02,1.47-2.08,2.93-3.17,4.39-.53.7-1.07,1.41-1.62,2.11-.47.61-.96,1.22-1.45,1.83-.22.28-.44.55-.67.83-.53.65-1.07,1.29-1.62,1.93-.55.64-1.11,1.28-1.67,1.92-.31.36-.62.71-.94,1.06-.32.35-.64.7-.96,1.05-.64.71-1.3,1.41-1.97,2.1-.67.69-1.34,1.38-2.03,2.07-.81.82-1.63,1.62-2.47,2.41-.41.39-.84.79-1.26,1.19-.42.4-.85.79-1.29,1.18-.43.39-.87.78-1.31,1.17-.44.39-.89.77-1.34,1.16-.45.39-.9.77-1.35,1.15-1.83,1.53-3.72,3.03-5.67,4.5-.97.74-1.96,1.47-2.97,2.18-.5.36-1.01.72-1.52,1.07-1.05.74-2.12,1.45-3.2,2.16-.31.2-.62.4-.93.6-.79.52-1.6,1.02-2.41,1.51-.2.14-.41.26-.61.38-.83.51-1.67,1.01-2.52,1.5-.56.33-1.13.65-1.7.97-.57.33-1.14.65-1.72.96-.58.33-1.17.64-1.76.95-.29.16-.59.31-.88.46-.16.09-.32.18-.48.25-.43.23-.87.46-1.32.68-.42.22-.85.43-1.28.63-.48.24-.96.48-1.45.71-.76.37-1.52.73-2.29,1.08-.49.23-.98.46-1.48.67-.33.16-.65.3-.98.44-.25.11-.51.22-.78.34-.5.23-1.01.44-1.52.65-.18.08-.36.15-.55.23-1.45.61-2.92,1.2-4.41,1.77-.52.2-1.05.4-1.58.6-.05.02-.1.04-.15.06-.57.21-1.15.42-1.73.63-.35.13-.69.25-1.05.37-.45.17-.91.33-1.38.48-.12.05-.25.09-.38.13-1.05.36-2.11.71-3.18,1.05-.74.24-1.49.47-2.25.7-.53.17-1.07.33-1.61.48-1.57.47-3.16.92-4.78,1.34-.31.09-.62.17-.94.25-1.7.45-3.43.88-5.19,1.28-.66.16-1.33.31-2,.45-.61.14-1.23.28-1.85.41-.89.19-1.79.37-2.7.55-.03,0-.07.01-.1.02-.7.14-1.41.27-2.12.4-1.39.26-2.79.51-4.21.74-.42.07-.85.14-1.28.21-1.81.29-3.64.56-5.5.81-.55.08-1.11.15-1.67.22-.87.11-1.74.22-2.63.32-.29.03-.57.07-.85.1-2.43.27-4.91.52-7.43.72-2.03.17-4.09.31-6.17.43-.67.04-1.34.08-2.01.11-1.61.09-3.23.15-4.87.2-.8.03-1.61.05-2.42.07-.14.01-.29.02-.44.01-.94.03-1.88.05-2.83.06-1.35.02-2.7.03-4.07.03-2.61,0-5.18-.03-7.71-.1-1.11-.03-2.21-.06-3.3-.11-1.09-.04-2.17-.09-3.25-.14-.61-.03-1.23-.07-1.83-.1-.84-.04-1.68-.09-2.51-.15-.37-.02-.73-.05-1.1-.08-2.14-.14-4.26-.32-6.34-.52-1.14-.11-2.27-.22-3.39-.34-1.15-.13-2.29-.26-3.42-.41-1.13-.14-2.26-.28-3.37-.44-2.22-.31-4.41-.65-6.57-1.01-2.15-.37-4.27-.77-6.35-1.18-2.08-.43-4.13-.87-6.14-1.34-2.01-.48-3.99-.98-5.93-1.5-.97-.26-1.94-.53-2.89-.8-1.69-.48-3.35-.99-4.98-1.51-.68-.21-1.35-.43-2.02-.66-.94-.31-1.88-.63-2.81-.96-.76-.26-1.51-.53-2.26-.81-.71-.26-1.42-.53-2.12-.8-.63-.23-1.25-.47-1.87-.73-.31-.12-.62-.25-.92-.37-3.26-1.31-6.41-2.71-9.44-4.18-.7-.34-1.4-.68-2.09-1.03-.74-.37-1.47-.74-2.2-1.13-.8-.42-1.59-.84-2.37-1.27-1.22-.67-2.41-1.35-3.59-2.03-.11-.07-.21-.13-.31-.19-.8-.47-1.59-.95-2.37-1.43-.91-.55-1.8-1.12-2.68-1.69-.84-.54-1.67-1.09-2.48-1.65-.84-.57-1.67-1.14-2.48-1.72-.36-.25-.72-.51-1.07-.77-2.75-1.99-5.37-4.05-7.87-6.17-.57-.48-1.13-.97-1.69-1.46s-1.12-.98-1.67-1.49c-.06-.04-.12-.09-.18-.16-.25-.21-.5-.44-.74-.67-.76-.69-1.5-1.39-2.23-2.11-.62-.59-1.23-1.19-1.83-1.8-.89-.89-1.76-1.79-2.62-2.7-.37-.39-.74-.79-1.11-1.2-1.52-1.64-2.97-3.31-4.37-5-.41-.49-.81-.98-1.2-1.47-.53-.64-1.04-1.29-1.55-1.95-.35-.45-.69-.89-1.03-1.34-.83-1.1-1.65-2.21-2.44-3.33-.52-.74-1.04-1.48-1.54-2.22-.54-.78-1.06-1.56-1.57-2.35-.18-.27-.36-.54-.53-.81-.18-.27-.35-.55-.52-.82-.35-.54-.69-1.08-1.02-1.63-.67-1.09-1.32-2.18-1.95-3.27-.18-.32-.37-.64-.55-.96-.37-.63-.72-1.27-1.07-1.92-.36-.65-.7-1.29-1.04-1.93-.34-.64-.67-1.28-1-1.92-.3-.59-.59-1.17-.88-1.75-.67-1.34-1.3-2.67-1.91-4.01-.27-.57-.53-1.14-.78-1.71-.88-1.97-1.7-3.94-2.47-5.89-.25-.63-.49-1.25-.73-1.88-.61-1.58-1.18-3.16-1.72-4.72-.2-.58-.4-1.17-.59-1.75-.2-.58-.39-1.15-.57-1.73-.69-2.13-1.32-4.22-1.89-6.28-.19-.69-.38-1.37-.56-2.05-.23-.85-.45-1.7-.66-2.54-.24-.94-.46-1.87-.67-2.79-.12-.5-.23-1-.34-1.49-.37-1.64-.71-3.24-1.01-4.8-.07-.37-.14-.73-.21-1.09-.18-1-.36-1.99-.52-2.95-.15-.86-.28-1.71-.41-2.54-.13-.84-.26-1.66-.37-2.46-.01-.12-.03-.23-.05-.34-.09-.69-.18-1.35-.26-2.01-.06-.44-.11-.88-.16-1.3-.05-.43-.1-.85-.14-1.26-.15-1.27-.27-2.48-.36-3.61-.04-.38-.07-.75-.1-1.11-.07-.93-.14-1.8-.18-2.63-.05-.74-.09-1.43-.12-2.08,0-.08-.01-.15-.01-.22-.02-.36-.03-.71-.05-1.04,0-.21,0-.42-.02-.62,0-.15,0-.3,0-.44-.07-2.49-.03-3.87-.03-3.87h346.81Z"/>
      <path d="m236.25,435.56c-2.79,0-5.33-.03-7.77-.1-1.12-.03-2.24-.06-3.34-.11-1.08-.04-2.16-.09-3.25-.14l-1.84-.1c-.85-.04-1.71-.09-2.56-.15-.32-.02-.68-.05-1.04-.07-2.02-.13-4.12-.31-6.45-.53-1.15-.11-2.29-.22-3.42-.34-1.18-.13-2.33-.26-3.48-.42-1.14-.14-2.28-.28-3.4-.44-2.11-.29-4.28-.63-6.62-1.02-1.96-.34-4.05-.73-6.42-1.19-2.45-.5-4.42-.93-6.22-1.36-2.06-.49-4.07-1-6-1.52-.98-.26-1.96-.54-2.92-.81-1.53-.44-3.18-.94-5.05-1.53-.68-.21-1.38-.44-2.07-.68-.93-.31-1.88-.63-2.83-.97-.76-.26-1.53-.54-2.3-.82-.71-.26-1.43-.53-2.14-.81-.62-.23-1.28-.48-1.93-.76-.15-.06-.36-.14-.56-.23l-.32-.13c-3.24-1.3-6.46-2.73-9.59-4.25-.76-.37-1.45-.7-2.13-1.05-.75-.37-1.5-.75-2.24-1.15-.8-.42-1.6-.85-2.4-1.28-1.23-.67-2.43-1.36-3.63-2.05-.03-.02-.06-.03-.09-.05l-.25-.16c-.8-.47-1.6-.96-2.4-1.45-.92-.55-1.83-1.14-2.72-1.72-.86-.55-1.71-1.11-2.54-1.69-.84-.57-1.69-1.15-2.51-1.74-.35-.24-.73-.52-1.1-.79-2.72-1.97-5.41-4.08-7.99-6.26-.58-.48-1.15-.98-1.72-1.48-.54-.48-1.09-.95-1.62-1.45-.1-.08-.2-.17-.29-.26-.25-.22-.51-.45-.75-.68-.74-.67-1.5-1.39-2.25-2.13-.61-.58-1.24-1.2-1.85-1.82-.89-.89-1.78-1.81-2.65-2.73-.38-.4-.76-.81-1.15-1.24-1.46-1.57-2.91-3.24-4.43-5.07-.41-.49-.83-1-1.23-1.5-.52-.62-1.04-1.3-1.57-1.98-.35-.45-.7-.9-1.05-1.36-.97-1.29-1.76-2.37-2.48-3.39-.53-.75-1.06-1.51-1.57-2.26-.54-.78-1.07-1.58-1.6-2.39-.2-.3-.38-.57-.54-.83-.11-.17-.25-.38-.38-.6l-.14-.22c-.35-.54-.7-1.1-1.05-1.67-.67-1.09-1.33-2.19-1.97-3.3l-.56-.99c-.36-.61-.72-1.28-1.09-1.95-.35-.64-.7-1.29-1.05-1.94-.34-.65-.68-1.3-1.01-1.95-.31-.6-.6-1.19-.89-1.77-.65-1.3-1.29-2.63-1.95-4.09-.27-.56-.53-1.15-.79-1.74-.84-1.87-1.68-3.89-2.5-5.97-.25-.64-.5-1.27-.74-1.9-.56-1.46-1.13-3.02-1.74-4.79-.21-.59-.41-1.2-.6-1.79-.2-.57-.39-1.16-.58-1.76-.69-2.14-1.34-4.29-1.91-6.35l-.11-.41c-.15-.56-.31-1.11-.45-1.66-.23-.85-.45-1.72-.67-2.57-.24-.95-.47-1.9-.68-2.83-.09-.37-.18-.77-.27-1.16l-.08-.33c-.4-1.78-.74-3.37-1.02-4.87l-.25-1.29c-.17-.95-.34-1.89-.49-2.81-.12-.7-.23-1.41-.34-2.1l-.13-.85c-.11-.72-.22-1.42-.31-2.11,0-.04,0-.07-.01-.11,0-.04-.01-.08-.02-.13,0-.04-.01-.08-.02-.12l-.08-.59c-.06-.49-.13-.96-.19-1.44-.05-.36-.1-.76-.14-1.14l-.04-.32c-.04-.39-.09-.78-.13-1.15-.15-1.23-.27-2.48-.36-3.65-.03-.28-.06-.61-.09-.94l-.04-.51c-.06-.83-.12-1.61-.16-2.36-.05-.71-.09-1.42-.12-2.09,0-.03,0-.07,0-.1,0-.03,0-.08,0-.15l-.02-.45c0-.18-.02-.35-.03-.52l-.02-.65s0-.07,0-.11v-.44c-.08-2.46-.04-3.88-.04-3.94.04-1.24,1.05-2.22,2.29-2.22h346.81c1.26,0,2.29,1.02,2.29,2.29,0,0,0,.74-.04,2.12,0,.05,0,.14-.01.26-.02.55-.05,1.2-.1,1.93-.05.94-.12,2.05-.24,3.29-.04.43-.08.89-.12,1.36l-.06.6c-.03.31-.06.62-.1.94-.08.74-.17,1.56-.27,2.41-.25,2.1-.57,4.42-.97,6.87-.04.28-.09.63-.16.98-.61,3.67-1.36,7.44-2.23,11.13l-.27,1.11c-.09.42-.21.91-.34,1.4-.08.32-.17.7-.27,1.09l-.07.27c-.25.96-.5,1.92-.77,2.9-.19.7-.39,1.41-.6,2.13l-.05.19c-.22.8-.46,1.61-.72,2.42-.21.67-.43,1.38-.65,2.08-.15.51-.33,1.05-.52,1.59-.11.34-.24.76-.39,1.19-.74,2.21-1.57,4.52-2.46,6.83-.33.86-.68,1.72-1.02,2.59-.61,1.51-1.18,2.89-1.76,4.21l-.69,1.55c-1.22,2.7-2.48,5.33-3.75,7.82-.28.54-.56,1.08-.84,1.61-.67,1.28-1.44,2.67-2.46,4.49-.26.47-.54.94-.82,1.42l-.17.28c-.32.55-.66,1.11-1,1.69-.69,1.13-1.39,2.25-2.11,3.38-.23.37-.48.76-.75,1.16-.16.25-.35.53-.54.81l-.18.27c-.5.75-1.01,1.51-1.53,2.25-.96,1.38-2.01,2.84-3.21,4.45-.55.72-1.1,1.44-1.65,2.15-.47.6-.97,1.23-1.47,1.85-.21.27-.45.56-.69.85-.53.66-1.09,1.31-1.65,1.97-.55.64-1.12,1.29-1.68,1.94-.31.36-.64.73-.97,1.09l-.96,1.05c-.65.72-1.33,1.44-2.02,2.15-.68.7-1.35,1.39-2.05,2.09-.82.83-1.66,1.65-2.52,2.46l-1.25,1.18c-.44.42-.89.83-1.35,1.24-.36.33-.76.68-1.15,1.03l-.16.14c-.29.25-.58.5-.87.75l-.49.43c-.46.4-.92.78-1.38,1.17-1.86,1.56-3.8,3.09-5.77,4.58-1.03.78-2.05,1.54-3.03,2.23-.49.36-1.02.73-1.54,1.09-1.05.74-2.14,1.46-3.24,2.18l-.95.61c-.78.51-1.59,1.01-2.4,1.51-.19.13-.38.24-.57.36l-.11.06c-.83.51-1.69,1.02-2.56,1.52-.52.31-1.07.62-1.62.92l-.1.06c-.57.33-1.16.66-1.76.98-.55.31-1.16.64-1.77.96-.19.11-.43.23-.67.35l-.22.12c-.14.08-.33.18-.52.27-.43.23-.88.46-1.33.68-.39.21-.86.43-1.32.65-.44.22-.93.47-1.44.71-.75.36-1.53.73-2.32,1.09-.49.23-.98.46-1.48.67-.35.17-.68.31-1.03.46l-.75.32c-.5.23-1.04.45-1.58.67-.07.03-.2.09-.34.14l-.19.08c-1.48.62-2.99,1.23-4.48,1.8-.5.19-1.02.39-1.54.59l-.17.07c-.62.23-1.21.44-1.79.65-.36.13-.72.26-1.1.39-.38.15-.85.31-1.33.47-.16.06-.32.11-.48.16-.99.34-2.07.7-3.16,1.04-.74.24-1.5.47-2.28.71-.52.17-1.09.34-1.66.5-1.67.5-3.26.95-4.82,1.35-.27.08-.61.17-.96.26-1.8.48-3.53.9-5.23,1.29-.65.16-1.35.31-2.04.46-.58.13-1.21.28-1.85.41-.89.19-1.8.37-2.72.56-.01,0-.03,0-.04,0-.02,0-.04,0-.05.01-.68.14-1.38.26-2.07.39-1.49.28-2.91.53-4.34.76l-1.28.21c-1.84.29-3.71.57-5.56.82-.52.08-1.08.15-1.64.22-.95.12-1.82.23-2.71.33l-.86.1c-2.82.31-5.21.54-7.5.73-1.9.16-3.94.3-6.22.43-.68.04-1.36.08-2.04.11-1.6.09-3.24.15-4.9.2-.78.03-1.58.05-2.38.07-.18.01-.37.02-.56.01-.93.03-1.85.05-2.79.06-1.35.02-2.71.03-4.09.03Zm48.61-4.45h0,0Zm-148.2-23.5c1.15.66,2.31,1.33,3.51,1.98.77.43,1.55.84,2.33,1.25.73.39,1.44.75,2.16,1.11.67.34,1.33.66,2,.99,3.09,1.5,6.22,2.89,9.36,4.15l.89.36c.64.27,1.23.5,1.83.71.73.28,1.42.54,2.12.8.74.28,1.47.54,2.21.79.94.33,1.86.65,2.79.95.67.23,1.32.44,1.98.65,1.84.59,3.44,1.07,4.93,1.5.94.27,1.9.53,2.86.79,1.89.51,3.86,1.01,5.87,1.48,1.75.41,3.69.83,6.07,1.32,2.3.45,4.36.84,6.27,1.17,2.29.38,4.42.71,6.5,1,1.1.16,2.21.3,3.32.43,1.15.15,2.28.28,3.41.41,1.1.12,2.22.23,3.35.34,2.29.22,4.34.39,6.27.51.01,0,.1,0,.11,0,.32.03.64.05.96.07.85.06,1.67.11,2.5.15l1.83.1c1.07.05,2.14.1,3.22.14,1.1.05,2.18.08,3.28.11,2.4.07,4.91.1,7.65.1,1.36,0,2.7,0,4.04-.03.94-.01,1.87-.03,2.79-.06.07,0,.15,0,.22,0,.03,0,.08,0,.12,0,.04,0,.07,0,.11,0,.8-.02,1.6-.04,2.39-.07,1.64-.05,3.24-.11,4.83-.2.68-.03,1.34-.07,2-.11,2.24-.13,4.24-.27,6.12-.43,2.25-.18,4.59-.4,7.37-.71l.87-.1c.85-.1,1.7-.2,2.55-.31.61-.08,1.13-.14,1.65-.22,1.84-.25,3.67-.52,5.47-.8l1.26-.21c1.41-.23,2.8-.48,4.17-.73.73-.13,1.37-.25,2.01-.38.09-.02.19-.04.28-.06.87-.17,1.73-.34,2.57-.52.61-.13,1.22-.27,1.82-.4.69-.14,1.34-.29,1.97-.44,1.69-.38,3.36-.8,5.14-1.27.33-.08.61-.15.89-.24,1.57-.41,3.11-.84,4.76-1.33.56-.15,1.07-.31,1.57-.47.78-.24,1.52-.46,2.24-.7,1.07-.34,2.11-.68,3.14-1.04.13-.04.19-.06.25-.08.04-.02.13-.05.18-.06.43-.14.85-.28,1.27-.44.42-.14.74-.25,1.06-.38.59-.21,1.17-.42,1.73-.63l.09-.04s.08-.03.09-.04c.51-.19,1.02-.38,1.52-.58,1.45-.56,2.91-1.14,4.34-1.74l.5-.21c.54-.22,1.02-.42,1.5-.64l.82-.36c.32-.14.61-.26.9-.4.04-.02.08-.04.11-.05.46-.19.91-.41,1.37-.62.8-.37,1.54-.72,2.29-1.08.5-.24.97-.47,1.43-.7.46-.21.85-.41,1.24-.61.48-.24.9-.45,1.3-.67.05-.03.11-.05.16-.08.09-.04.19-.1.28-.15l.31-.16c.2-.1.39-.2.59-.31.61-.32,1.18-.62,1.73-.94.61-.33,1.16-.63,1.71-.95l.13-.07c.52-.29,1.04-.59,1.56-.89.85-.49,1.67-.98,2.48-1.48l.14-.09c.12-.07.23-.14.35-.22.04-.03.09-.06.13-.09.79-.48,1.57-.96,2.34-1.46l.95-.61c1.04-.68,2.09-1.38,3.12-2.11.52-.36,1.02-.71,1.5-1.06.95-.67,1.93-1.38,2.92-2.14,1.92-1.45,3.79-2.94,5.59-4.44.43-.37.88-.74,1.32-1.12l.51-.44c.27-.23.54-.47.81-.7l.16-.14c.38-.34.76-.68,1.13-1.01.44-.39.85-.76,1.25-1.14l1.26-1.19c.83-.78,1.63-1.56,2.42-2.36.69-.69,1.35-1.37,2.01-2.06.65-.67,1.29-1.35,1.91-2.04l.97-1.06c.3-.33.6-.66.89-1.01.57-.65,1.12-1.28,1.67-1.92.54-.63,1.07-1.25,1.58-1.88.23-.27.43-.53.64-.8.5-.62.98-1.22,1.44-1.81.55-.71,1.09-1.41,1.61-2.1,1.16-1.56,2.18-2.97,3.11-4.31.5-.72.99-1.45,1.47-2.17l.19-.29c.18-.26.35-.53.53-.8.26-.38.48-.73.7-1.07.72-1.12,1.4-2.22,2.07-3.31.33-.54.65-1.08.96-1.62l.18-.3c.26-.44.52-.88.77-1.33,1.01-1.79,1.75-3.15,2.42-4.41.29-.53.55-1.04.81-1.55,1.23-2.41,2.46-4.98,3.65-7.61l.68-1.53c.55-1.26,1.11-2.59,1.69-4.04.33-.84.67-1.7,1-2.55.87-2.24,1.67-4.48,2.39-6.64.14-.41.27-.79.39-1.19.19-.54.34-1.01.48-1.47.23-.72.44-1.41.65-2.1.25-.79.47-1.56.69-2.31l.06-.2c.2-.7.4-1.39.59-2.09.27-.96.51-1.89.75-2.81l.07-.28c.09-.36.18-.72.27-1.07.13-.48.23-.91.32-1.33l.27-1.14c.84-3.56,1.57-7.23,2.17-10.86.06-.32.1-.58.14-.84.4-2.46.72-4.7.96-6.74.1-.84.19-1.62.27-2.37.04-.32.06-.6.09-.88l.06-.59c.04-.44.08-.9.12-1.35.11-1.18.17-2.23.22-3.15.04-.67.07-1.25.09-1.75H67.28c0,.45.02.95.03,1.52v.2c0,.09,0,.18.01.27l.02.54c.01.16.02.37.03.57l.02.45s0,.08,0,.12c0,.02,0,.08,0,.15.03.62.07,1.29.12,1.99.04.76.09,1.5.15,2.28l.04.48c.02.29.05.59.08.9.09,1.17.21,2.36.36,3.58.04.4.08.75.12,1.12l.04.31c.04.36.08.73.14,1.09.06.49.12.95.18,1.43l.07.54c.03.14.05.28.06.43.09.65.19,1.31.3,1.99l.13.85c.1.67.21,1.35.33,2.04.15.91.32,1.83.49,2.76l.24,1.25c.28,1.45.6,2.99.99,4.72l.08.34c.08.37.17.74.26,1.12.21.93.43,1.84.66,2.76.21.84.43,1.67.65,2.51.14.55.29,1.08.44,1.62l.12.42c.55,1.99,1.18,4.08,1.86,6.18.18.59.36,1.13.56,1.69.2.6.39,1.18.59,1.75.59,1.71,1.14,3.23,1.69,4.64.24.63.48,1.24.72,1.86.8,2.02,1.62,3.97,2.43,5.8.25.56.5,1.11.76,1.66.65,1.43,1.26,2.72,1.89,3.97.29.57.58,1.15.87,1.73.32.62.65,1.25.98,1.88.33.63.67,1.26,1.02,1.9.35.65.68,1.26,1.04,1.87l.57,1c.61,1.05,1.25,2.12,1.91,3.19.33.55.65,1.07.99,1.58l.16.26c.11.18.22.36.34.54.18.28.33.51.49.74,0,0,.06.09.06.1.5.77,1,1.53,1.53,2.29.51.75,1.02,1.48,1.53,2.21.77,1.1,1.58,2.19,2.39,3.27.33.44.67.87,1.01,1.31.5.65.99,1.28,1.51,1.9.41.51.79.99,1.19,1.46,1.47,1.78,2.88,3.38,4.29,4.91.38.42.73.8,1.09,1.18.85.9,1.7,1.78,2.58,2.66.59.6,1.19,1.19,1.79,1.76.74.73,1.45,1.4,2.19,2.07.25.24.46.44.68.62.04.04.09.08.13.12.05.04.09.07.13.11.53.49,1.08.97,1.62,1.44.55.48,1.1.96,1.66,1.43,2.49,2.11,5.09,4.15,7.74,6.07.35.26.69.51,1.03.74.82.59,1.64,1.15,2.46,1.71.81.56,1.62,1.09,2.43,1.62.87.56,1.74,1.12,2.63,1.66.78.48,1.56.95,2.34,1.42.12.07.22.13.34.21Zm-22.26-16.28s0,0,0,0c0,0,0,0,0,0Zm-.28-.25s0,0,0,0c0,0,0,0,0,0Z"/>
      <path d="m156.75,139.32c1-4.1,1-8.34.02-12.72s-2.98-8.53-6.01-12.44c-2.58-3.35-5.53-6.03-8.84-8.02-3.3-1.99-6.78-3.27-10.43-3.82-3.66-.54-7.31-.35-10.95.59-3.65.94-7.09,2.65-10.31,5.14-3.22,2.48-5.74,5.37-7.58,8.66-1.83,3.29-2.94,6.76-3.31,10.41-.37,3.66-.02,7.34,1.07,11.04,1.09,3.71,2.93,7.24,5.51,10.59,2.62,3.39,5.59,6.09,8.89,8.08,3.31,1.99,6.78,3.27,10.41,3.84,3.63.57,7.26.37,10.89-.59,3.63-.96,7.06-2.69,10.28-5.17,3.48-2.69,6.18-5.88,8.11-9.59l12.5,3.37,1.79-6.17-12.04-3.2Zm-6.37-1.65l-15.05-4.11-2.01,6.03,14.76,4.02c-1.44,2.36-3.31,4.43-5.62,6.21-3.31,2.55-6.85,4.03-10.62,4.45-3.78.41-7.46-.2-11.05-1.84-3.59-1.64-6.76-4.24-9.51-7.81-2.72-3.53-4.42-7.23-5.09-11.12-.68-3.89-.34-7.61,1-11.18,1.34-3.57,3.67-6.63,6.97-9.18,3.31-2.55,6.86-4.03,10.65-4.42,3.79-.39,7.5.22,11.11,1.85,3.61,1.62,6.77,4.19,9.49,7.71,2.35,3.05,3.94,6.25,4.76,9.61.82,3.36.89,6.62.21,9.78Z"/>
      <path d="m221.42,111.97c-1.17,3.76-3.22,6.97-6.13,9.64-2.91,2.67-6.51,4.49-10.8,5.47-4.23.96-8.23.88-11.98-.27-3.76-1.14-6.97-3.16-9.63-6.05-2.66-2.88-4.48-6.47-5.46-10.76l-7.92-34.72,6.35-1.44,7.76,33.99c.73,3.22,2.08,5.91,4.04,8.08,1.96,2.18,4.29,3.72,6.97,4.63,2.69.9,5.51,1.02,8.46.35,3.05-.7,5.63-2.05,7.74-4.05s3.59-4.41,4.44-7.23c.85-2.81.91-5.83.17-9.04l-7.76-34,6.11-1.39,7.93,34.72c.97,4.28.88,8.31-.29,12.07Z"/>
      <path d="m277.09,68.61l-7.24-1.22-31.46,53.21,6.58,1.11,8.58-14.69,25.36,4.28,3.21,16.67,6.99,1.18-12.02-60.54Zm-20.12,32.55l7.97-13.54c1.18-2.08,2.38-4.25,3.6-6.49,1.22-2.25,2.4-4.48,3.55-6.68.34,2.29.74,4.79,1.2,7.52.46,2.72.87,5.01,1.22,6.85l3.1,15.82-20.64-3.48Z"/>
      <path d="m373.31,112.61l-31.73,48.2-5.02-3.31-4.19-59.61c-1.63,2.88-3.2,5.59-4.72,8.15-1.52,2.55-2.84,4.73-3.95,6.53-1.12,1.79-1.88,2.99-2.27,3.59l-14.41,21.89-5.44-3.58,31.73-48.2,4.95,3.27,3.9,59.9c.81-1.44,1.8-3.14,2.96-5.1,1.16-1.97,2.4-4,3.72-6.1,1.31-2.09,2.61-4.15,3.9-6.16,1.3-2.01,2.47-3.82,3.53-5.43l11.6-17.62,5.44,3.58Z"/>
      <path d="m234.55,250.14c-.4,0-.81-.12-1.16-.37l-26.59-18.99c-.79-.57-1.06-1.62-.64-2.5l29.27-60.47c.48-1,1.68-1.41,2.67-.93.99.48,1.41,1.68.93,2.67l-28.54,58.95,25.22,18.01c.9.64,1.11,1.89.47,2.79-.39.55-1.01.84-1.63.84Z"/>
    </g>
  </g>
</svg>