<?xml version="1.0" encoding="UTF-8"?>
<svg id="Layer_2" data-name="Layer 2" xmlns="http://www.w3.org/2000/svg" viewBox="0 0 476.18 476.18">
  <defs>
    <style>
      .cls-1 {
        fill: #f5df4d;
      }
    </style>
  </defs>
  <g id="Layer_6" data-name="Layer 6">
    <g>
      <path class="cls-1" d="m238.09,0C106.6,0,0,106.59,0,238.09s106.6,238.09,238.09,238.09,238.09-106.6,238.09-238.09S369.59,0,238.09,0Zm171.28,284.52c-.05.91-.12,1.97-.23,3.15-.04.44-.08.91-.11,1.34l-.06.6c-.03.27-.06.56-.09.87-.08.75-.17,1.54-.27,2.38-.24,2.04-.56,4.28-.96,6.74-.03.26-.07.52-.14.84-.6,3.63-1.33,7.29-2.17,10.86l-.27,1.14c-.1.42-.2.84-.32,1.32-.09.36-.18.72-.27,1.08l-.08.28c-.23.92-.48,1.85-.75,2.81-.19.7-.39,1.4-.58,2.09l-.06.2c-.21.76-.44,1.53-.69,2.32-.21.68-.42,1.37-.65,2.09-.14.47-.29.93-.48,1.47-.12.39-.25.78-.39,1.19-.72,2.16-1.53,4.4-2.39,6.64-.33.85-.67,1.71-1,2.55-.59,1.46-1.14,2.79-1.7,4.04l-.67,1.53c-1.19,2.63-2.42,5.2-3.65,7.61-.26.51-.53,1.02-.81,1.55-.67,1.26-1.41,2.61-2.42,4.4-.25.45-.51.89-.77,1.33l-.17.3c-.32.54-.64,1.08-.97,1.62-.67,1.1-1.35,2.19-2.07,3.31-.22.35-.44.7-.7,1.08-.17.26-.35.53-.52.79l-.2.29c-.48.72-.97,1.45-1.47,2.17-.93,1.34-1.95,2.75-3.11,4.31-.52.69-1.06,1.39-1.61,2.1-.46.59-.94,1.19-1.44,1.81-.21.27-.42.52-.64.8-.52.63-1.05,1.26-1.58,1.88-.55.64-1.1,1.27-1.67,1.92-.3.34-.59.68-.9,1.01l-.97,1.06c-.62.69-1.26,1.37-1.91,2.04-.66.68-1.33,1.36-2.02,2.05-.79.8-1.59,1.58-2.42,2.37l-1.26,1.19c-.4.38-.81.75-1.25,1.14-.37.34-.75.67-1.13,1.01l-.16.14c-.26.24-.53.47-.81.7l-.51.44c-.44.39-.88.76-1.32,1.13-1.79,1.5-3.67,2.99-5.59,4.43-.99.76-1.96,1.48-2.92,2.15-.48.35-.98.7-1.5,1.05-1.03.73-2.08,1.42-3.12,2.11l-.95.61c-.76.51-1.55.99-2.33,1.47-.05.02-.09.05-.14.08-.11.08-.23.15-.34.22l-.15.08c-.81.5-1.63.99-2.48,1.48-.51.3-1.04.6-1.56.89l-.12.07c-.55.32-1.1.63-1.71.95-.56.32-1.12.62-1.73.94-.2.11-.4.21-.59.31l-.31.16c-.09.05-.18.11-.28.15-.05.02-.11.05-.16.08-.4.21-.82.43-1.3.67-.39.2-.79.39-1.24.61-.46.23-.93.46-1.43.7-.74.36-1.48.71-2.29,1.07-.45.22-.9.43-1.36.62-.04.02-.08.04-.12.05-.29.15-.58.27-.9.41l-.82.35c-.47.22-.95.42-1.49.64l-.51.21c-1.43.61-2.89,1.19-4.34,1.75-.5.19-1.01.38-1.52.57,0,.01-.08.03-.09.04l-.09.04c-.57.2-1.14.41-1.73.63-.33.12-.65.23-1.07.37-.41.16-.83.31-1.26.44-.05.02-.14.05-.18.07-.06.02-.12.04-.25.08-1.03.35-2.08.7-3.14,1.04-.73.23-1.47.46-2.25.69-.5.16-1.01.32-1.57.47-1.65.5-3.19.93-4.76,1.34-.28.08-.56.15-.88.23-1.79.47-3.46.89-5.15,1.27-.63.15-1.28.3-1.97.44-.6.14-1.2.28-1.82.41-.85.18-1.7.35-2.57.52-.09,0-.19.03-.28.06-.63.12-1.28.24-2.01.37-1.37.26-2.75.51-4.17.74l-1.26.2c-1.8.29-3.63.56-5.47.81-.52.07-1.04.14-1.65.22-.85.1-1.7.21-2.56.31l-.86.1c-2.78.31-5.12.53-7.37.71-1.88.16-3.87.3-6.12.43-.65.04-1.31.08-2,.11-1.59.09-3.19.15-4.82.2-.79.03-1.59.05-2.4.07h-.11s-.09.01-.12.01c-.07,0-.15-.01-.22,0-.93.03-1.85.04-2.79.06-1.34.02-2.68.02-4.04.02-2.74,0-5.24-.03-7.65-.09-1.09-.03-2.18-.06-3.27-.11-1.09-.04-2.16-.09-3.23-.14l-1.83-.1c-.82-.04-1.64-.09-2.49-.15-.33-.02-.64-.05-.97-.07-.01,0-.1,0-.11,0-1.93-.13-3.98-.29-6.27-.51-1.13-.11-2.25-.22-3.35-.34-1.14-.13-2.26-.26-3.41-.41-1.11-.14-2.22-.28-3.32-.43-2.08-.29-4.21-.62-6.5-1-1.91-.33-3.97-.71-6.28-1.17-2.38-.49-4.31-.91-6.07-1.32-2-.48-3.98-.98-5.87-1.49-.95-.25-1.91-.52-2.85-.79-1.49-.42-3.1-.91-4.93-1.49-.66-.21-1.31-.42-1.98-.65-.93-.3-1.85-.62-2.79-.95-.74-.26-1.47-.52-2.21-.8-.7-.25-1.4-.52-2.12-.8-.6-.21-1.19-.44-1.83-.71l-.9-.36c-3.13-1.26-6.26-2.65-9.35-4.15-.67-.32-1.34-.64-2-.98-.73-.36-1.44-.72-2.17-1.11-.78-.42-1.56-.83-2.33-1.25-1.19-.66-2.35-1.32-3.5-1.99-.12-.07-.22-.13-.34-.2-.79-.46-1.56-.93-2.35-1.42-.88-.53-1.76-1.09-2.62-1.65-.82-.53-1.63-1.06-2.43-1.62-.83-.56-1.64-1.12-2.46-1.71-.35-.23-.69-.48-1.04-.74-2.64-1.91-5.24-3.95-7.73-6.07-.56-.47-1.11-.95-1.66-1.43-.55-.48-1.09-.95-1.62-1.44-.04-.04-.09-.08-.14-.12-.04-.04-.08-.08-.13-.12-.21-.18-.42-.37-.67-.61-.74-.67-1.45-1.35-2.19-2.08-.6-.57-1.2-1.15-1.79-1.75-.88-.88-1.73-1.76-2.58-2.66-.36-.38-.71-.76-1.09-1.18-1.42-1.53-2.82-3.14-4.29-4.92-.4-.47-.79-.95-1.2-1.46-.51-.62-1-1.25-1.5-1.89-.35-.44-.68-.87-1.01-1.32-.82-1.08-1.62-2.17-2.4-3.26-.51-.73-1.02-1.46-1.53-2.21-.52-.76-1.03-1.52-1.53-2.29,0-.01-.05-.08-.06-.09-.15-.23-.31-.46-.48-.74-.12-.18-.23-.36-.35-.54l-.16-.26c-.34-.52-.66-1.04-.99-1.59-.66-1.07-1.3-2.14-1.9-3.19l-.58-1c-.35-.6-.69-1.22-1.04-1.86-.35-.64-.68-1.27-1.02-1.9-.33-.63-.66-1.26-.98-1.89-.3-.58-.59-1.16-.87-1.73-.63-1.25-1.24-2.54-1.89-3.97-.26-.55-.51-1.1-.76-1.66-.82-1.83-1.63-3.78-2.43-5.8-.25-.62-.48-1.23-.72-1.86-.55-1.41-1.1-2.93-1.7-4.64-.19-.57-.39-1.15-.59-1.75-.19-.56-.37-1.11-.55-1.69-.69-2.11-1.31-4.19-1.86-6.19l-.12-.41c-.15-.54-.3-1.08-.44-1.62-.23-.84-.44-1.68-.65-2.51-.24-.92-.45-1.83-.66-2.76-.09-.38-.18-.75-.26-1.12l-.08-.34c-.39-1.73-.71-3.28-.99-4.72l-.24-1.25c-.17-.93-.33-1.85-.49-2.76-.11-.69-.22-1.37-.33-2.04l-.13-.85c-.1-.67-.21-1.34-.3-1.98-.01-.15-.03-.29-.06-.43l-.07-.54c-.06-.47-.12-.93-.18-1.42-.05-.37-.09-.74-.14-1.1l-.03-.31c-.05-.36-.09-.72-.13-1.12-.14-1.22-.26-2.4-.35-3.58-.04-.3-.06-.6-.08-.89l-.04-.48c-.06-.79-.12-1.53-.16-2.28-.04-.71-.08-1.37-.11-2,0-.07,0-.13,0-.15v-.12l-.03-.45c0-.21,0-.41-.02-.57l-.02-.55c0-.09,0-.18,0-.27v-.2c-.02-.57-.03-1.07-.03-1.52h342.18c-.02.5-.05,1.08-.09,1.75Z"/>
      <path d="m156.75,139.31c1-4.1,1-8.34.02-12.72s-2.98-8.53-6.01-12.44c-2.58-3.35-5.53-6.03-8.84-8.02-3.3-1.99-6.78-3.27-10.43-3.82-3.66-.54-7.31-.35-10.95.59-3.65.94-7.09,2.65-10.31,5.14-3.22,2.48-5.74,5.37-7.58,8.66-1.83,3.29-2.94,6.76-3.31,10.41-.37,3.66-.02,7.34,1.07,11.04,1.09,3.71,2.93,7.24,5.51,10.59,2.62,3.39,5.59,6.09,8.89,8.08,3.31,1.99,6.78,3.27,10.41,3.84,3.63.57,7.26.37,10.89-.59,3.63-.96,7.06-2.69,10.28-5.17,3.48-2.69,6.18-5.88,8.11-9.59l12.5,3.37,1.79-6.17-12.04-3.2Zm-6.37-1.65l-15.05-4.11-2.01,6.03,14.76,4.02c-1.44,2.36-3.31,4.43-5.62,6.21-3.31,2.55-6.85,4.03-10.62,4.45-3.78.41-7.46-.2-11.05-1.84-3.59-1.64-6.76-4.24-9.51-7.81-2.72-3.53-4.42-7.23-5.09-11.12-.68-3.89-.34-7.61,1-11.18,1.34-3.57,3.67-6.63,6.97-9.18,3.31-2.55,6.86-4.03,10.65-4.42,3.79-.39,7.5.22,11.11,1.85,3.61,1.62,6.77,4.19,9.49,7.71,2.35,3.05,3.94,6.25,4.76,9.61.82,3.36.89,6.62.21,9.78Z"/>
      <path d="m221.42,111.96c-1.17,3.76-3.22,6.97-6.13,9.64-2.91,2.67-6.51,4.49-10.8,5.47-4.23.96-8.23.88-11.98-.27-3.76-1.14-6.97-3.16-9.63-6.05-2.66-2.88-4.48-6.47-5.46-10.76l-7.92-34.72,6.35-1.44,7.76,33.99c.73,3.22,2.08,5.91,4.04,8.08,1.96,2.18,4.29,3.72,6.97,4.63,2.69.9,5.51,1.02,8.46.35,3.05-.7,5.63-2.05,7.74-4.05s3.59-4.41,4.44-7.23c.85-2.81.91-5.83.17-9.04l-7.76-34,6.11-1.39,7.93,34.72c.97,4.28.88,8.31-.29,12.07Z"/>
      <path d="m277.09,68.6l-7.24-1.22-31.46,53.21,6.58,1.11,8.58-14.69,25.36,4.28,3.21,16.67,6.99,1.18-12.02-60.54Zm-20.12,32.55l7.97-13.54c1.18-2.08,2.38-4.25,3.6-6.49,1.22-2.25,2.4-4.48,3.55-6.68.34,2.29.74,4.79,1.2,7.52.46,2.72.87,5.01,1.22,6.85l3.1,15.82-20.64-3.48Z"/>
      <path d="m373.31,112.6l-31.73,48.2-5.02-3.31-4.19-59.61c-1.63,2.88-3.2,5.59-4.72,8.15-1.52,2.55-2.84,4.73-3.95,6.53-1.12,1.79-1.88,2.99-2.27,3.59l-14.41,21.89-5.44-3.58,31.73-48.2,4.95,3.27,3.9,59.9c.81-1.44,1.8-3.14,2.96-5.1,1.16-1.97,2.4-4,3.72-6.1,1.31-2.09,2.61-4.15,3.9-6.16,1.3-2.01,2.47-3.82,3.53-5.43l11.6-17.62,5.44,3.58Z"/>
      <path d="m234.55,250.13c-.4,0-.81-.12-1.16-.37l-26.59-18.99c-.79-.57-1.06-1.62-.64-2.5l29.27-60.47c.48-1,1.68-1.41,2.67-.93.99.48,1.41,1.68.93,2.67l-28.54,58.95,25.22,18.01c.9.64,1.11,1.89.47,2.79-.39.55-1.01.84-1.63.84Z"/>
    </g>
  </g>
</svg>