<?xml version="1.0" encoding="UTF-8"?>
<svg id="Layer_2" data-name="Layer 2" xmlns="http://www.w3.org/2000/svg" viewBox="0 0 1438.09 418.92">
  <defs>
    <style>
      .cls-1 {
        fill: none;
      }

      .cls-1, .cls-2 {
        stroke-width: 0px;
      }

      .cls-2 {
        fill: #f5df4d;
      }
    </style>
  </defs>
  <g id="Opening_doors" data-name="Opening doors">
    <g>
      <rect class="cls-1" width="1438.09" height="418.92"/>
      <g>
        <path class="cls-2" d="M160.2,157.87c0,44-36,80.2-80,80.2S0,202.07,0,157.87s36.2-80,80.2-80,80,36,80,80ZM123.8,157.87c0-24-19.6-43.6-43.6-43.6s-43.8,19.6-43.8,43.6,19.8,43.8,43.8,43.8,43.6-19.8,43.6-43.8Z"/>
        <path class="cls-2" d="M237.2,194.47h33.6v38.2h-107.8v-16c10.4-10.4,20.6-21,31-31.6l37-37.8c3.4-3.4,5.4-8.2,5.4-13.2,0-10.4-8.6-18.6-18.8-18.6-8.8,0-16.2,6-18.2,14.4l-36.4-8.8c6-25.2,28.8-43,54.6-43,31.2,0,56.2,25.2,56.2,56.2,0,28.2-18,41.4-36.6,60.2Z"/>
        <path class="cls-2" d="M445.39,157.87c0,44-36,80.2-80,80.2s-80.2-36-80.2-80.2,36.2-80,80.2-80,80,36,80,80ZM409,157.87c0-24-19.6-43.6-43.6-43.6s-43.8,19.6-43.8,43.6,19.8,43.8,43.8,43.8,43.6-19.8,43.6-43.8Z"/>
        <path class="cls-2" d="M132.4,319.92c0,30.8-25.4,56.2-56.2,56.2h-37.4v37.4H1.4v-149.6h74.8c30.8,0,56.2,25.2,56.2,56ZM95,319.92c0-10.2-8.6-18.6-18.8-18.6h-37.4v37.4h37.4c10.2,0,18.8-8.6,18.8-18.8Z"/>
        <path class="cls-2" d="M279.6,413.52h-45.6l-39.2-56.2h-16.4v56.2h-37.4v-149.8h90.8c25.8,0,46.8,21.2,46.8,47,0,22.6-16.4,42.2-38.6,46l39.6,56.8ZM241.2,310.72c0-5.2-4.2-9.4-9.4-9.4h-53.4v18.6h53.4c5,0,9.4-4.2,9.4-9.2Z"/>
        <path class="cls-2" d="M445.39,338.72c0,44-36,80.2-80,80.2s-80.2-36-80.2-80.2,36.2-80,80.2-80,80,36,80,80ZM408.99,338.72c0-24-19.6-43.6-43.6-43.6s-43.8,19.6-43.8,43.6,19.8,43.8,43.8,43.8,43.6-19.8,43.6-43.8Z"/>
        <path class="cls-2" d="M587.79,319.92c0,30.8-25.4,56.2-56.2,56.2h-37.4v37.4h-37.4v-149.6h74.8c30.8,0,56.2,25.2,56.2,56ZM550.39,319.92c0-10.2-8.6-18.6-18.8-18.6h-37.4v37.4h37.4c10.2,0,18.8-8.6,18.8-18.8Z"/>
        <path class="cls-2" d="M755.19,338.72c0,44-36,80.2-80,80.2s-80.2-36-80.2-80.2,36.2-80,80.2-80,80,36,80,80ZM718.79,338.72c0-24-19.6-43.6-43.6-43.6s-43.8,19.6-43.8,43.6,19.8,43.8,43.8,43.8,43.6-19.8,43.6-43.8Z"/>
        <path class="cls-2" d="M809.59,319.92h37.4c25.6,0,46.8,21.2,46.8,46.8s-21.2,46.8-46.8,46.8h-75.2v-37.4h75.2c5.2,0,9.2-4.4,9.2-9.4s-4-9.4-9.2-9.4h-37.4c-25.8,0-47-21-47-46.8s21.2-46.8,47-46.8h75.2v37.4h-75.2c-5.2,0-9.4,4.2-9.4,9.4s4.2,9.4,9.4,9.4Z"/>
        <path class="cls-2" d="M1010.38,393.32h-67.6l-8.4,20.2h-40.6l62.4-149.8h40.8l62.4,149.8h-40.4l-8.6-20.2ZM994.99,356.32l-18.4-43.8-18.4,43.8h36.8Z"/>
        <path class="cls-2" d="M1185.58,376.12v37.4h-112.4v-149.8h37.6v112.4h74.8Z"/>
      </g>
      <g>
        <path class="cls-2" d="M59.48,1.8v53.93h-13.47v-30.1l-12.46,13.46h-7.92l-5.18-5.62h-.07l-6.84-7.49v29.74H0V1.8h9.5c6.62,7.27,13.39,14.47,20.09,21.75L49.68,1.8h9.79Z"/>
        <path class="cls-2" d="M123.12,28.8c0,15.84-12.96,28.88-28.8,28.88s-28.88-12.96-28.88-28.88S78.48,0,94.32,0s28.8,12.96,28.8,28.8ZM110.02,28.8c0-8.64-7.06-15.7-15.7-15.7s-15.77,7.06-15.77,15.7,7.13,15.77,15.77,15.77,15.7-7.13,15.7-15.77Z"/>
        <path class="cls-2" d="M188.5,1.8v53.93h-13.47v-30.1l-12.46,13.46h-7.92l-5.18-5.62h-.07l-6.84-7.49v29.74h-13.54V1.8h9.5c6.62,7.27,13.39,14.47,20.09,21.75L178.71,1.8h9.79Z"/>
        <path class="cls-2" d="M252.15,28.8c0,15.84-12.96,28.88-28.8,28.88s-28.88-12.96-28.88-28.88S207.5,0,223.35,0s28.8,12.96,28.8,28.8ZM239.04,28.8c0-8.64-7.06-15.7-15.7-15.7s-15.77,7.06-15.77,15.7,7.13,15.77,15.77,15.77,15.7-7.13,15.7-15.77Z"/>
        <path class="cls-2" d="M291.03,35.5h-13.47v-13.47h13.47v13.47ZM291.03,55.73h-13.47v-13.46h13.47v13.46Z"/>
      </g>
    </g>
  </g>
</svg>