<?xml version="1.0" encoding="UTF-8"?>
<svg id="Layer_2" data-name="Layer 2" xmlns="http://www.w3.org/2000/svg" viewBox="0 0 1931.26 419.07">
  <defs>
    <style>
      .cls-1 {
        fill: none;
      }

      .cls-1, .cls-2 {
        stroke-width: 0px;
      }

      .cls-2 {
        fill: #f5df4d;
      }
    </style>
  </defs>
  <g id="Opening_doors" data-name="Opening doors">
    <g>
      <rect class="cls-1" width="1931.26" height="419.07"/>
      <g>
        <path class="cls-2" d="m47.6,139.22h37.4c25.6,0,46.8,21.2,46.8,46.8s-21.2,46.8-46.8,46.8H9.8v-37.4h75.2c5.2,0,9.2-4.4,9.2-9.4s-4-9.4-9.2-9.4h-37.4c-25.8,0-47-21-47-46.8s21.2-46.8,47-46.8h75.2v37.4H47.6c-5.2,0-9.4,4.2-9.4,9.4s4.2,9.4,9.4,9.4Z"/>
        <path class="cls-2" d="m297.66,158.02c0,44-36,80.2-80,80.2s-80.2-36-80.2-80.2,36.2-80,80.2-80,80,36,80,80Zm-36.4,0c0-24-19.6-43.6-43.6-43.6s-43.8,19.6-43.8,43.6,19.8,43.8,43.8,43.8,43.6-19.8,43.6-43.8Z"/>
        <path class="cls-2" d="m458.35,190.62c-13,28.4-41.6,47-72.8,47-44.2,0-80-35.8-80-80s35.8-80,80-80c31.8,0,61.2,19.4,73.6,48.8l-33.4,14.2c-6.8-16-22.8-26.8-40.2-26.8-24,0-43.8,19.8-43.8,43.8s19.8,43.8,43.8,43.8c17,0,32.6-10.4,39.8-25.8l33,15Z"/>
        <path class="cls-2" d="m508.35,232.82h-37.4V83.02h37.4v149.8Z"/>
        <path class="cls-2" d="m639.15,212.62h-67.6l-8.4,20.2h-40.6l62.4-149.8h40.8l62.4,149.8h-40.4l-8.6-20.2Zm-15.4-37l-18.4-43.8-18.4,43.8h36.8Z"/>
        <path class="cls-2" d="m814.35,195.42v37.4h-112.4V83.02h37.6v112.4h74.8Z"/>
        <path class="cls-2" d="m1041.69,83.02v149.8h-37.4v-83.6l-34.6,37.4h-22l-14.4-15.6h-.2l-19-20.8v82.6h-37.6V83.02h26.4c18.4,20.2,37.2,40.2,55.8,60.4l55.8-60.4h27.2Z"/>
        <path class="cls-2" d="m1099.89,120.42v18.8h72.6v37.4h-72.6v18.6h93.6v37.6h-131V83.02h131v37.4h-93.6Z"/>
        <path class="cls-2" d="m1358.88,157.82c0,41.4-33.4,75-74.8,75h-74.8V83.02h74.8c41.2,0,74.8,33.6,74.8,74.8Zm-37.4,0c0-20.6-16.8-37.4-37.4-37.4h-37.4v75h37.4c20.6,0,37.4-17,37.4-37.6Z"/>
        <path class="cls-2" d="m1412.49,232.82h-37.4V83.02h37.4v149.8Z"/>
        <path class="cls-2" d="m1543.28,212.62h-67.6l-8.4,20.2h-40.6l62.4-149.8h40.8l62.4,149.8h-40.4l-8.6-20.2Zm-15.4-37l-18.4-43.8-18.4,43.8h36.8Z"/>
        <path class="cls-2" d="m131,320.07c0,30.8-25.4,56.2-56.2,56.2h-37.4v37.4H0v-149.6h74.8c30.8,0,56.2,25.2,56.2,56Zm-37.4,0c0-10.2-8.6-18.6-18.8-18.6h-37.4v37.4h37.4c10.2,0,18.8-8.6,18.8-18.8Z"/>
        <path class="cls-2" d="m299.4,338.87c0,44-36,80.2-80,80.2s-80.2-36-80.2-80.2,36.2-80,80.2-80,80,36,80,80Zm-36.4,0c0-24-19.6-43.6-43.6-43.6s-43.8,19.6-43.8,43.6,19.8,43.8,43.8,43.8,43.6-19.8,43.6-43.8Z"/>
        <path class="cls-2" d="m354.55,320.07h37.4c25.6,0,46.8,21.2,46.8,46.8s-21.2,46.8-46.8,46.8h-75.2v-37.4h75.2c5.2,0,9.2-4.4,9.2-9.4s-4-9.4-9.2-9.4h-37.4c-25.8,0-47-21-47-46.8s21.2-46.8,47-46.8h75.2v37.4h-75.2c-5.2,0-9.4,4.2-9.4,9.4s4.2,9.4,9.4,9.4Z"/>
        <path class="cls-2" d="m589.55,301.27h-56.2v112.4h-37.4v-112.4h-56.2v-37.4h149.8v37.4Z"/>
        <path class="cls-2" d="m644.88,320.07h37.4c25.6,0,46.8,21.2,46.8,46.8s-21.2,46.8-46.8,46.8h-75.2v-37.4h75.2c5.2,0,9.2-4.4,9.2-9.4s-4-9.4-9.2-9.4h-37.4c-25.8,0-47-21-47-46.8s21.2-46.8,47-46.8h75.2v37.4h-75.2c-5.2,0-9.4,4.2-9.4,9.4s4.2,9.4,9.4,9.4Z"/>
      </g>
      <g>
        <path class="cls-2" d="m16.92,22.18h13.46c9.22,0,16.85,7.63,16.85,16.85s-7.63,16.85-16.85,16.85H3.31v-13.46h27.07c1.87,0,3.31-1.58,3.31-3.38s-1.44-3.38-3.31-3.38h-13.46C7.63,35.64,0,28.08,0,18.79S7.63,1.94,16.92,1.94h27.07v13.46h-27.07c-1.87,0-3.38,1.51-3.38,3.38s1.51,3.38,3.38,3.38Z"/>
        <path class="cls-2" d="m107.46,40.68c-4.68,10.22-14.98,16.92-26.21,16.92-15.91,0-28.8-12.89-28.8-28.8S65.34,0,81.25,0c11.45,0,22.03,6.98,26.5,17.57l-12.02,5.11c-2.45-5.76-8.21-9.65-14.47-9.65-8.64,0-15.77,7.13-15.77,15.77s7.13,15.77,15.77,15.77c6.12,0,11.74-3.74,14.33-9.29l11.88,5.4Z"/>
        <path class="cls-2" d="m163.04,55.88h-16.42l-14.11-20.23h-5.9v20.23h-13.47V1.94h32.69c9.29,0,16.85,7.63,16.85,16.92,0,8.14-5.9,15.19-13.9,16.56l14.26,20.45Zm-13.83-37.01c0-1.87-1.51-3.38-3.38-3.38h-19.23v6.7h19.23c1.8,0,3.38-1.51,3.38-3.31Z"/>
        <path class="cls-2" d="m182.91,55.88h-13.47V1.94h13.47v53.93Z"/>
        <path class="cls-2" d="m240.01,39.03c0,9.29-7.56,16.85-16.85,16.85h-32.69V1.94h24.27c9.22,0,16.85,7.63,16.85,16.85,0,1.73-.29,3.53-.79,5.18,5.62,2.88,9.22,8.78,9.22,15.05Zm-36.08-16.85h10.8c1.87,0,3.38-1.51,3.38-3.38s-1.51-3.38-3.38-3.38h-10.8v6.77Zm22.61,16.85c0-1.87-1.51-3.38-3.38-3.38h-19.23v6.77h19.23c1.87,0,3.38-1.51,3.38-3.38Z"/>
        <path class="cls-2" d="m295.09,39.03c0,9.29-7.56,16.85-16.85,16.85h-32.69V1.94h24.27c9.22,0,16.85,7.63,16.85,16.85,0,1.73-.29,3.53-.79,5.18,5.62,2.88,9.22,8.78,9.22,15.05Zm-36.08-16.85h10.8c1.87,0,3.38-1.51,3.38-3.38s-1.51-3.38-3.38-3.38h-10.8v6.77Zm22.61,16.85c0-1.87-1.51-3.38-3.38-3.38h-19.23v6.77h19.23c1.87,0,3.38-1.51,3.38-3.38Z"/>
        <path class="cls-2" d="m341.17,42.41v13.46h-40.47V1.94h13.54v40.47h26.93Z"/>
        <path class="cls-2" d="m358.59,15.41v6.77h26.14v13.47h-26.14v6.7h33.7v13.54h-47.16V1.94h47.16v13.46h-33.7Z"/>
        <path class="cls-2" d="m417.13,22.18h13.46c9.22,0,16.85,7.63,16.85,16.85s-7.63,16.85-16.85,16.85h-27.07v-13.46h27.07c1.87,0,3.31-1.58,3.31-3.38s-1.44-3.38-3.31-3.38h-13.46c-9.29,0-16.92-7.56-16.92-16.85s7.63-16.85,16.92-16.85h27.07v13.46h-27.07c-1.87,0-3.38,1.51-3.38,3.38s1.51,3.38,3.38,3.38Z"/>
        <path class="cls-2" d="m491.29,35.64h-13.47v-13.47h13.47v13.47Zm0,20.23h-13.47v-13.46h13.47v13.46Z"/>
      </g>
    </g>
  </g>
</svg>