<?xml version="1.0" encoding="UTF-8"?>
<svg id="Layer_2" data-name="Layer 2" xmlns="http://www.w3.org/2000/svg" viewBox="0 0 1438.09 238.22">
  <defs>
    <style>
      .cls-1 {
        fill: none;
      }

      .cls-1, .cls-2 {
        stroke-width: 0px;
      }

      .cls-2 {
        fill: #f5df4d;
      }
    </style>
  </defs>
  <g id="Opening_doors" data-name="Opening doors">
    <g>
      <rect class="cls-1" width="1438.09" height="238.22"/>
      <g>
        <path class="cls-2" d="M165.2,83.02v149.8h-37.4v-83.6l-34.6,37.4h-22l-14.4-15.6h-.2l-19-20.8v82.6H0V83.02h26.4c18.4,20.2,37.2,40.2,55.8,60.4l55.8-60.4h27.2Z"/>
        <path class="cls-2" d="M338,158.02c0,44-36,80.2-80,80.2s-80.2-36-80.2-80.2,36.2-80,80.2-80,80,36,80,80ZM301.6,158.02c0-24-19.6-43.6-43.6-43.6s-43.8,19.6-43.8,43.6,19.8,43.8,43.8,43.8,43.6-19.8,43.6-43.8Z"/>
        <path class="cls-2" d="M488.8,186.02c0,25.8-21,46.8-46.8,46.8h-90.8V83.02h67.4c25.6,0,46.8,21.2,46.8,46.8,0,4.8-.8,9.8-2.2,14.4,15.6,8,25.6,24.4,25.6,41.8ZM388.6,139.22h30c5.2,0,9.4-4.2,9.4-9.4s-4.2-9.4-9.4-9.4h-30v18.8ZM451.4,186.02c0-5.2-4.2-9.4-9.4-9.4h-53.4v18.8h53.4c5.2,0,9.4-4.2,9.4-9.4Z"/>
        <path class="cls-2" d="M541.6,232.82h-37.4V83.02h37.4v149.8Z"/>
        <path class="cls-2" d="M688.79,195.42v37.4h-126V83.02h37.6v112.4h88.4Z"/>
        <path class="cls-2" d="M737,120.42v18.8h93.6v37.4h-93.6v18.6h93.6v37.6h-131V83.02h131v37.4h-93.6Z"/>
        <path class="cls-2" d="M1012.59,212.62h-67.6l-8.4,20.2h-40.6l62.4-149.8h40.8l62.4,149.8h-40.4l-8.6-20.2ZM997.19,175.62l-18.4-43.8-18.4,43.8h36.8Z"/>
        <path class="cls-2" d="M1201.39,139.22c0,30.8-25.4,56.2-56.2,56.2h-37.4v37.4h-37.4V83.22h74.8c30.8,0,56.2,25.2,56.2,56ZM1163.99,139.22c0-10.2-8.6-18.6-18.8-18.6h-37.4v37.4h37.4c10.2,0,18.8-8.6,18.8-18.8Z"/>
        <path class="cls-2" d="M1343.99,139.22c0,30.8-25.4,56.2-56.2,56.2h-37.4v37.4h-37.4V83.22h74.8c30.8,0,56.2,25.2,56.2,56ZM1306.59,139.22c0-10.2-8.6-18.6-18.8-18.6h-37.4v37.4h37.4c10.2,0,18.8-8.6,18.8-18.8Z"/>
      </g>
      <g>
        <path class="cls-2" d="M16.92,22.18h13.46c9.22,0,16.85,7.63,16.85,16.85s-7.63,16.85-16.85,16.85H3.31v-13.46h27.07c1.87,0,3.31-1.58,3.31-3.38s-1.44-3.38-3.31-3.38h-13.46C7.63,35.64,0,28.08,0,18.79S7.63,1.94,16.92,1.94h27.07v13.46h-27.07c-1.87,0-3.38,1.51-3.38,3.38s1.51,3.38,3.38,3.38Z"/>
        <path class="cls-2" d="M107.93,2.02v53.86h-13.39v-16.2h-23.04v16.2h-13.47V2.02h13.47v24.19h23.04V2.02h13.39Z"/>
        <path class="cls-2" d="M171.51,28.95c0,15.84-12.96,28.88-28.8,28.88s-28.88-12.96-28.88-28.88S126.86.14,142.71.14s28.8,12.96,28.8,28.8ZM158.4,28.95c0-8.64-7.06-15.7-15.7-15.7s-15.77,7.06-15.77,15.7,7.13,15.77,15.77,15.77,15.7-7.13,15.7-15.77Z"/>
        <path class="cls-2" d="M254.17,1.94l-27.22,57.39-12.38-26.86-12.31,26.86L175.03,1.94h14.98l12.24,26.86,4.82-11.67-7.42-15.19h14.98l12.31,26.86,12.24-26.86h14.98Z"/>
        <path class="cls-2" d="M312.63,40.68c-4.68,10.22-14.98,16.92-26.21,16.92-15.91,0-28.8-12.89-28.8-28.8S270.5,0,286.42,0c11.45,0,22.03,6.98,26.5,17.57l-12.02,5.11c-2.45-5.76-8.21-9.65-14.47-9.65-8.64,0-15.77,7.13-15.77,15.77s7.13,15.77,15.77,15.77c6.12,0,11.74-3.74,14.33-9.29l11.88,5.4Z"/>
        <path class="cls-2" d="M357.77,48.6h-24.34l-3.02,7.27h-14.62L338.25,1.94h14.69l22.47,53.93h-14.55l-3.1-7.27ZM352.22,35.28l-6.62-15.77-6.62,15.77h13.25Z"/>
        <path class="cls-2" d="M399.46,22.18h13.46c9.22,0,16.85,7.63,16.85,16.85s-7.63,16.85-16.85,16.85h-27.07v-13.46h27.07c1.87,0,3.31-1.58,3.31-3.38s-1.44-3.38-3.31-3.38h-13.46c-9.29,0-16.92-7.56-16.92-16.85s7.63-16.85,16.92-16.85h27.07v13.46h-27.07c-1.87,0-3.38,1.51-3.38,3.38s1.51,3.38,3.38,3.38Z"/>
        <path class="cls-2" d="M454.03,15.41v6.77h26.14v13.47h-26.14v6.7h33.7v13.54h-47.16V1.94h47.16v13.46h-33.7Z"/>
        <path class="cls-2" d="M526.46,35.64h-13.47v-13.47h13.47v13.47ZM526.46,55.88h-13.47v-13.46h13.47v13.46Z"/>
      </g>
    </g>
  </g>
</svg>