<?xml version="1.0" encoding="UTF-8"?>
<svg id="Layer_2" data-name="Layer 2" xmlns="http://www.w3.org/2000/svg" viewBox="0 0 1438.09 419.07">
  <defs>
    <style>
      .cls-1 {
        fill: none;
      }

      .cls-1, .cls-2 {
        stroke-width: 0px;
      }

      .cls-2 {
        fill: #f5df4d;
      }
    </style>
  </defs>
  <g id="Opening_doors" data-name="Opening doors">
    <g>
      <rect class="cls-1" y=".14" width="1438.09" height="418.92"/>
      <g>
        <path class="cls-2" d="M137.6,186.02c0,25.8-21,46.8-46.8,46.8H0V83.02h67.4c25.6,0,46.8,21.2,46.8,46.8,0,4.8-.8,9.8-2.2,14.4,15.6,8,25.6,24.4,25.6,41.8ZM37.4,139.22h30c5.2,0,9.4-4.2,9.4-9.4s-4.2-9.4-9.4-9.4h-30v18.8ZM100.2,186.02c0-5.2-4.2-9.4-9.4-9.4h-53.4v18.8h53.4c5.2,0,9.4-4.2,9.4-9.4Z"/>
        <path class="cls-2" d="M283.8,232.82h-45.6l-39.2-56.2h-16.4v56.2h-37.4V83.02h90.8c25.8,0,46.8,21.2,46.8,47,0,22.6-16.4,42.2-38.6,46l39.6,56.8ZM245.4,130.02c0-5.2-4.2-9.4-9.4-9.4h-53.4v18.6h53.4c5,0,9.4-4.2,9.4-9.2Z"/>
        <path class="cls-2" d="M404.4,212.62h-67.6l-8.4,20.2h-40.6l62.4-149.8h40.8l62.4,149.8h-40.4l-8.6-20.2ZM389,175.62l-18.4-43.8-18.4,43.8h36.8Z"/>
        <path class="cls-2" d="M598.2,83.22v149.6h-38.2l-62.4-91.2v91.2h-38.4V83.22h38.4l62.4,95.4v-95.4h38.2Z"/>
        <path class="cls-2" d="M762.59,157.82c0,41.4-33.4,75-74.8,75h-74.8V83.02h74.8c41.2,0,74.8,33.6,74.8,74.8ZM725.19,157.82c0-20.6-16.8-37.4-37.4-37.4h-37.4v75h37.4c20.6,0,37.4-17,37.4-37.6Z"/>
        <path class="cls-2" d="M810.19,232.82h-37.4V83.02h37.4v149.8Z"/>
        <path class="cls-2" d="M964.39,83.22v149.6h-38.2l-62.4-91.2v91.2h-38.4V83.22h38.4l62.4,95.4v-95.4h38.2Z"/>
        <path class="cls-2" d="M1048.99,158.02h78.8v33c-13,28.6-41.6,47-73,47-44.2,0-80-35.8-80-80s35.8-80,80-80c32,0,61.2,19.4,73.8,48.8l-33.4,14.2c-7-16.2-22.8-26.8-40.4-26.8-24,0-43.8,19.8-43.8,43.8s19.8,43.8,43.8,43.8c16.8,0,32.2-10,39.4-25h-45.2v-18.8Z"/>
        <path class="cls-2" d="M116.6,393.47H49l-8.4,20.2H0l62.4-149.8h40.8l62.4,149.8h-40.4l-8.6-20.2ZM101.2,356.47l-18.4-43.8-18.4,43.8h36.8Z"/>
        <path class="cls-2" d="M312.4,264.07v149.6h-38.2l-62.4-91.2v91.2h-38.4v-149.6h38.4l62.4,95.4v-95.4h38.2Z"/>
        <path class="cls-2" d="M478.79,338.67c0,41.4-33.4,75-74.8,75h-74.8v-149.8h74.8c41.2,0,74.8,33.6,74.8,74.8ZM441.4,338.67c0-20.6-16.8-37.4-37.4-37.4h-37.4v75h37.4c20.6,0,37.4-17,37.4-37.6Z"/>
        <path class="cls-2" d="M675.78,320.07c0,30.8-25.4,56.2-56.2,56.2h-37.4v37.4h-37.4v-149.6h74.8c30.8,0,56.2,25.2,56.2,56ZM638.38,320.07c0-10.2-8.6-18.6-18.8-18.6h-37.4v37.4h37.4c10.2,0,18.8-8.6,18.8-18.8Z"/>
        <path class="cls-2" d="M843.18,338.87c0,44-36,80.2-80,80.2s-80.2-36-80.2-80.2,36.2-80,80.2-80,80,36,80,80ZM806.78,338.87c0-24-19.6-43.6-43.6-43.6s-43.8,19.6-43.8,43.6,19.8,43.8,43.8,43.8,43.6-19.8,43.6-43.8Z"/>
        <path class="cls-2" d="M897.58,320.07h37.4c25.6,0,46.8,21.2,46.8,46.8s-21.2,46.8-46.8,46.8h-75.2v-37.4h75.2c5.2,0,9.2-4.4,9.2-9.4s-4-9.4-9.2-9.4h-37.4c-25.8,0-47-21-47-46.8s21.2-46.8,47-46.8h75.2v37.4h-75.2c-5.2,0-9.4,4.2-9.4,9.4s4.2,9.4,9.4,9.4Z"/>
        <path class="cls-2" d="M1133,301.27h-56.2v112.4h-37.4v-112.4h-56.2v-37.4h149.8v37.4Z"/>
        <path class="cls-2" d="M1183.9,320.07h37.4c25.6,0,46.8,21.2,46.8,46.8s-21.2,46.8-46.8,46.8h-75.2v-37.4h75.2c5.2,0,9.2-4.4,9.2-9.4s-4-9.4-9.2-9.4h-37.4c-25.8,0-47-21-47-46.8s21.2-46.8,47-46.8h75.2v37.4h-75.2c-5.2,0-9.4,4.2-9.4,9.4s4.2,9.4,9.4,9.4Z"/>
      </g>
      <g>
        <path class="cls-2" d="M13.47,15.41v9h20.23v13.46H13.47v18H0V1.94h47.16v13.46H13.47Z"/>
        <path class="cls-2" d="M97.64,1.87v32.12c0,13.03-10.51,23.62-23.55,23.62s-23.62-10.58-23.62-23.62V1.87h13.46v32.12c0,5.62,4.54,10.15,10.15,10.15s10.08-4.61,10.08-10.15V1.87h13.47Z"/>
        <path class="cls-2" d="M144.94,42.41v13.46h-40.47V1.94h13.54v40.47h26.93Z"/>
        <path class="cls-2" d="M198.44,39.03c0,9.29-7.56,16.85-16.85,16.85h-32.69V1.94h24.27c9.22,0,16.85,7.63,16.85,16.85,0,1.73-.29,3.53-.79,5.18,5.62,2.88,9.22,8.78,9.22,15.05ZM162.36,22.18h10.8c1.87,0,3.38-1.51,3.38-3.38s-1.51-3.38-3.38-3.38h-10.8v6.77ZM184.97,39.03c0-1.87-1.51-3.38-3.38-3.38h-19.23v6.77h19.23c1.87,0,3.38-1.51,3.38-3.38Z"/>
        <path class="cls-2" d="M253.95,55.88h-16.42l-14.11-20.23h-5.9v20.23h-13.47V1.94h32.69c9.29,0,16.85,7.63,16.85,16.92,0,8.14-5.9,15.19-13.9,16.56l14.26,20.45ZM240.12,18.87c0-1.87-1.51-3.38-3.38-3.38h-19.23v6.7h19.23c1.8,0,3.38-1.51,3.38-3.31Z"/>
        <path class="cls-2" d="M273.82,55.88h-13.47V1.94h13.47v53.93Z"/>
        <path class="cls-2" d="M306.5,28.95h28.37v11.88c-4.68,10.3-14.98,16.92-26.28,16.92-15.91,0-28.8-12.89-28.8-28.8S292.68.14,308.59.14c11.52,0,22.03,6.98,26.57,17.57l-12.03,5.11c-2.52-5.83-8.21-9.65-14.54-9.65-8.64,0-15.77,7.13-15.77,15.77s7.13,15.77,15.77,15.77c6.05,0,11.59-3.6,14.19-9h-16.27v-6.77Z"/>
        <path class="cls-2" d="M390.82,2.02v53.86h-13.39v-16.2h-23.04v16.2h-13.47V2.02h13.47v24.19h23.04V2.02h13.39Z"/>
        <path class="cls-2" d="M449.71,15.41h-20.23v40.47h-13.46V15.41h-20.23V1.94h53.93v13.46Z"/>
        <path class="cls-2" d="M504.57,22.18h13.47c9.22,0,16.85,7.63,16.85,16.85s-7.63,16.85-16.85,16.85h-27.07v-13.46h27.07c1.87,0,3.31-1.58,3.31-3.38s-1.44-3.38-3.31-3.38h-13.47c-9.29,0-16.92-7.56-16.92-16.85s7.63-16.85,16.92-16.85h27.07v13.46h-27.07c-1.87,0-3.38,1.51-3.38,3.38s1.51,3.38,3.38,3.38Z"/>
        <path class="cls-2" d="M597.24,15.41h-20.23v40.47h-13.46V15.41h-20.23V1.94h53.93v13.46Z"/>
        <path class="cls-2" d="M648.72,1.87v32.12c0,13.03-10.51,23.62-23.55,23.62s-23.62-10.58-23.62-23.62V1.87h13.46v32.12c0,5.62,4.54,10.15,10.15,10.15s10.08-4.61,10.08-10.15V1.87h13.47Z"/>
        <path class="cls-2" d="M709.34,28.88c0,14.91-12.03,27-26.93,27h-26.93V1.94h26.93c14.83,0,26.93,12.1,26.93,26.93ZM695.88,28.88c0-7.42-6.05-13.47-13.46-13.47h-13.46v27h13.46c7.42,0,13.46-6.12,13.46-13.54Z"/>
        <path class="cls-2" d="M728.64,15.41v6.77h26.14v13.47h-26.14v6.7h33.7v13.54h-47.16V1.94h47.16v13.46h-33.7Z"/>
        <path class="cls-2" d="M818.13,2.02v53.86h-13.75l-22.47-32.83v32.83h-13.83V2.02h13.83l22.47,34.35V2.02h13.75Z"/>
        <path class="cls-2" d="M877.1,15.41h-20.23v40.47h-13.46V15.41h-20.23V1.94h53.93v13.46Z"/>
        <path class="cls-2" d="M966.38,40.68c-4.68,10.22-14.98,16.92-26.21,16.92-15.91,0-28.8-12.89-28.8-28.8s12.89-28.8,28.8-28.8c11.45,0,22.03,6.98,26.5,17.57l-12.02,5.11c-2.45-5.76-8.21-9.65-14.47-9.65-8.64,0-15.77,7.13-15.77,15.77s7.13,15.77,15.77,15.77c6.12,0,11.74-3.74,14.33-9.29l11.88,5.4Z"/>
        <path class="cls-2" d="M1028.16,28.95c0,15.84-12.96,28.88-28.8,28.88s-28.88-12.96-28.88-28.88S983.51.14,999.35.14s28.8,12.96,28.8,28.8ZM1015.05,28.95c0-8.64-7.06-15.7-15.7-15.7s-15.77,7.06-15.77,15.7,7.13,15.77,15.77,15.77,15.7-7.13,15.7-15.77Z"/>
        <path class="cls-2" d="M1080.57,1.87v32.12c0,13.03-10.51,23.62-23.55,23.62s-23.62-10.58-23.62-23.62V1.87h13.46v32.12c0,5.62,4.54,10.15,10.15,10.15s10.08-4.61,10.08-10.15V1.87h13.47Z"/>
        <path class="cls-2" d="M1137.45,2.02v53.86h-13.75l-22.47-32.83v32.83h-13.83V2.02h13.83l22.47,34.35V2.02h13.75Z"/>
        <path class="cls-2" d="M1198.36,40.68c-4.68,10.22-14.98,16.92-26.21,16.92-15.91,0-28.8-12.89-28.8-28.8s12.89-28.8,28.8-28.8c11.45,0,22.03,6.98,26.5,17.57l-12.02,5.11c-2.45-5.76-8.21-9.65-14.47-9.65-8.64,0-15.77,7.13-15.77,15.77s7.13,15.77,15.77,15.77c6.12,0,11.74-3.74,14.33-9.29l11.88,5.4Z"/>
        <path class="cls-2" d="M1217.44,55.88h-13.47V1.94h13.47v53.93Z"/>
        <path class="cls-2" d="M1265.54,42.41v13.46h-40.47V1.94h13.54v40.47h26.93Z"/>
        <path class="cls-2" d="M1302.54,35.64h-13.47v-13.47h13.47v13.47ZM1302.54,55.88h-13.47v-13.46h13.47v13.46Z"/>
      </g>
    </g>
  </g>
</svg>